<svg width="24" height="24" viewBox="0 0 24 24" fill="none" xmlns="http://www.w3.org/2000/svg">
<path d="M12 5.90625C12.2587 5.90625 12.4688 6.11627 12.4688 6.375C12.4688 6.63373 12.2587 6.84375 12 6.84375C11.7413 6.84375 11.5312 6.63373 11.5312 6.375C11.5312 6.11627 11.7413 5.90625 12 5.90625Z" fill="white"/>
<path d="M19.7812 14.3438C19.5225 14.3438 19.3125 14.1337 19.3125 13.875C19.3125 13.6163 19.5225 13.4062 19.7812 13.4062C20.04 13.4062 20.25 13.6163 20.25 13.875C20.25 14.1337 20.04 14.3438 19.7812 14.3438Z" fill="white"/>
<path d="M8.25 1.21875C12.47 1.21875 15.9337 4.1283 16.2015 7.79315C20.2205 7.99475 24 10.8928 24 14.8125C24 16.4506 23.3518 18.0377 22.1719 19.2953C21.9384 20.2577 22.2219 21.2778 22.9252 21.9811C23.0592 22.1151 23.0993 22.3167 23.0268 22.4919C22.9543 22.667 22.7834 22.7812 22.5938 22.7812C21.2569 22.7812 19.9686 22.257 19.0113 21.3333C18.0787 21.6511 16.862 21.8438 15.75 21.8438C11.5305 21.8438 8.06726 18.9349 7.79865 15.2708C6.8172 15.2272 5.79639 15.046 4.98871 14.7708C4.03143 15.6945 2.7431 16.2188 1.40625 16.2188C1.21655 16.2188 1.04572 16.1045 0.973206 15.9294C0.900696 15.7542 0.940796 15.5526 1.07483 15.4186C1.77814 14.7153 2.06158 13.6952 1.82812 12.7328C0.648193 11.4752 0 9.88806 0 8.25C0 4.17719 4.07062 1.21875 8.25 1.21875ZM15.75 20.9062C16.8563 20.9062 18.117 20.6891 18.9615 20.3531C19.1424 20.2809 19.3491 20.3284 19.4808 20.4721C20.0468 21.0908 20.7827 21.5222 21.5845 21.7205C21.1426 20.874 21.0298 19.8761 21.2986 18.9305C21.3199 18.856 21.3593 18.7879 21.4133 18.7324C22.4767 17.6371 23.0625 16.2449 23.0625 14.8125C23.0625 11.5093 19.7139 8.71875 15.75 8.71875C12.007 8.71875 8.71875 11.3216 8.71875 14.8125C8.71875 18.1727 11.8729 20.9062 15.75 20.9062ZM2.58673 12.1699C2.64075 12.2256 2.68011 12.2937 2.70135 12.368C2.97015 13.3136 2.85736 14.3115 2.41553 15.158C3.21735 14.9599 3.95325 14.5283 4.51923 13.9096C4.65088 13.7661 4.8576 13.7184 5.03851 13.7906C5.77039 14.0817 6.81445 14.2833 7.80011 14.332C7.93707 12.5594 8.82129 10.8933 10.333 9.65625H4.21875C3.95984 9.65625 3.75 9.44641 3.75 9.1875C3.75 8.92859 3.95984 8.71875 4.21875 8.71875H11.7731C12.8372 8.17712 14.0319 7.86127 15.2617 7.79498C14.9923 4.64667 11.9504 2.15625 8.25 2.15625C4.28613 2.15625 0.9375 4.94678 0.9375 8.25C0.9375 9.68243 1.52325 11.0746 2.58673 12.1699Z" fill="white"/>
<path d="M12 13.4062H17.9062C18.1652 13.4062 18.375 13.6161 18.375 13.875C18.375 14.1339 18.1652 14.3438 17.9062 14.3438H12C11.7411 14.3438 11.5312 14.1339 11.5312 13.875C11.5312 13.6161 11.7411 13.4062 12 13.4062Z" fill="white"/>
<path d="M12 16.2188H19.7812C20.0402 16.2188 20.25 16.4286 20.25 16.6875C20.25 16.9464 20.0402 17.1562 19.7812 17.1562H12C11.7411 17.1562 11.5312 16.9464 11.5312 16.6875C11.5312 16.4286 11.7411 16.2188 12 16.2188Z" fill="white"/>
<path d="M4.21875 5.90625H10.125C10.3839 5.90625 10.5938 6.11609 10.5938 6.375C10.5938 6.63391 10.3839 6.84375 10.125 6.84375H4.21875C3.95984 6.84375 3.75 6.63391 3.75 6.375C3.75 6.11609 3.95984 5.90625 4.21875 5.90625Z" fill="white"/>
</svg>
