<svg width="34" height="34" viewBox="0 0 34 34" fill="none" xmlns="http://www.w3.org/2000/svg">
<circle cx="16.6879" cy="17.4683" r="16.5318" fill="#6B6B6B"/>
<path d="M24.1272 12.3592C24.1272 11.1214 23.035 10.0293 21.7973 10.0293H12.405C11.1673 10.0293 10.0751 11.1214 10.0751 12.3592V21.7514C10.0751 22.9892 11.1673 24.0813 12.405 24.0813H17.1375V18.7663H15.3901V16.4364H17.1375V15.4899C17.1375 13.8881 18.3025 12.5048 19.7587 12.5048H21.6517V14.8346H19.7587C19.5402 14.8346 19.3218 15.0531 19.3218 15.4899V16.4364H21.6517V18.7663H19.3218V24.0813H21.7973C23.035 24.0813 24.1272 22.9892 24.1272 21.7514V12.3592Z" fill="white"/>
</svg>
