<svg width="54" height="54" viewBox="0 0 54 54" fill="none" xmlns="http://www.w3.org/2000/svg">
<path d="M53.6882 22.7118C53.4386 22.4623 53.0801 22.3542 52.7344 22.4237L43.6454 24.2529C43.2644 24.3297 42.9563 24.6098 42.8439 24.9817C42.7315 25.3538 42.8328 25.7576 43.1076 26.0326L44.3373 27.2622L39.5112 32.0883L35.7752 28.3523C35.5773 28.1545 35.3091 28.0434 35.0295 28.0434C34.7498 28.0434 34.4816 28.1545 34.2837 28.3523L29.6994 32.9368L31.419 26.7578C31.8371 25.2557 31.5359 23.6823 30.5927 22.4407C30.015 21.6803 29.2523 21.1197 28.3901 20.7984L29.7648 16.8715C30.1441 16.9048 30.5225 16.9218 30.8966 16.9218C33.9418 16.9218 36.911 15.8484 39.2572 13.8996L39.5085 13.6909C40.7454 12.6632 40.9568 10.8772 39.9899 9.62519C39.4996 8.99021 38.7911 8.59199 37.9949 8.50404C37.1984 8.41598 36.4201 8.64968 35.8037 9.16169L35.5183 9.39887C35.0976 9.74826 34.6376 10.05 34.151 10.2954C32.5248 11.1157 30.494 10.7503 29.1446 9.4149C31.1075 8.80692 32.5373 6.97464 32.5373 4.8146C32.5374 2.15984 30.3775 0 27.7226 0C25.0676 0 22.9078 2.15984 22.9078 4.8147C22.9078 5.87121 23.2507 6.84862 23.8297 7.64337C22.7344 7.87918 21.7487 8.44392 20.9944 9.24237C20.9505 9.28096 20.9083 9.32273 20.8701 9.36976C19.0109 11.6534 16.5324 13.2914 13.7026 14.1065C12.9364 14.3274 12.33 14.8361 11.966 15.4811L9.80452 13.3196C8.85875 12.3739 7.32008 12.374 6.3742 13.3196L3.54543 16.1485L0.716653 18.9772C0.258427 19.4354 0.00616455 20.0444 0.00616455 20.6924C0.00616455 21.3404 0.258532 21.9494 0.716548 22.4077L8.51062 30.2017C8.96885 30.6599 9.57788 30.9121 10.2258 30.9121C10.8739 30.9121 11.4829 30.6597 11.941 30.2017L14.87 27.2728L13.4812 30.9145C13.2736 31.4587 13.5466 32.0682 14.0908 32.2757C14.2145 32.3229 14.3414 32.3452 14.4664 32.3452C14.8912 32.3452 15.2916 32.0866 15.452 31.6662L18.9109 22.5964H25.5138H26.6552C27.5494 22.5964 28.3724 23.0048 28.9133 23.7167C29.4542 24.4287 29.6269 25.331 29.3871 26.1923L26.9907 34.8028C26.8829 35.1902 26.5267 35.4608 26.1245 35.4608C25.7636 35.4608 25.541 35.2632 25.4405 35.1454C25.34 35.0276 25.1797 34.7767 25.2364 34.4205L26.5115 26.4042C26.56 26.0993 26.4725 25.7886 26.2721 25.5539C26.0717 25.3191 25.7785 25.1839 25.47 25.1839H22.9697C22.572 25.1839 22.2081 25.4076 22.0286 25.7625C21.967 25.8842 15.8481 37.9827 13.7861 42.0708C13.5797 42.4802 13.131 42.7138 12.6708 42.6508L12.6208 42.6441C12.3069 42.6017 12.0342 42.4212 11.8723 42.1487C11.7104 41.8763 11.6825 41.5504 11.7954 41.2544L12.4453 39.5505C12.6528 39.0063 12.3799 38.397 11.8357 38.1893C11.2916 37.9818 10.6822 38.2548 10.4745 38.7989L9.82466 40.5028C9.48097 41.4041 9.56639 42.3966 10.059 43.2259C10.5516 44.0552 11.3823 44.605 12.3374 44.7343L12.3874 44.741C12.5319 44.7607 12.676 44.7701 12.8191 44.7701C14.0131 44.7701 15.1236 44.1029 15.6694 43.0207C17.4705 39.4498 22.3687 29.7637 23.6182 27.2931H24.2344L23.1534 34.0891C23.0149 34.9599 23.2638 35.8441 23.8364 36.5147C24.2047 36.9462 24.6815 37.2584 25.2095 37.4268L13.4615 49.1749C13.2637 49.3727 13.1526 49.6409 13.1526 49.9206C13.1526 50.2002 13.2637 50.4685 13.4615 50.6663L16.4864 53.6911C16.6924 53.897 16.9622 54 17.2321 54C17.502 54 17.7719 53.897 17.9778 53.6911L23.793 47.8759C24.2049 47.4641 24.2049 46.7963 23.793 46.3844C23.3811 45.9726 22.7135 45.9726 22.3015 46.3844L17.2321 51.4539L15.6987 49.9205L35.0297 30.5893L38.7657 34.3254C38.9636 34.5231 39.2318 34.6342 39.5114 34.6342C39.7911 34.6342 40.0593 34.5231 40.2571 34.3254L46.5746 28.0078C46.9864 27.596 46.9864 26.9282 46.5746 26.5163L45.9905 25.9323L51.5956 24.8043L50.4676 30.4094L49.5996 29.5413C49.1877 29.1296 48.5201 29.1296 48.1081 29.5413L39.5113 38.1381L35.7753 34.402C35.3633 33.9903 34.6958 33.9903 34.2837 34.402L28.2671 40.4187C27.8553 40.8305 27.8553 41.4983 28.2671 41.9102C28.679 42.3219 29.3466 42.3219 29.7586 41.9102L35.0295 36.6394L38.7655 40.3754C39.1774 40.7871 39.845 40.7871 40.257 40.3754L48.8538 31.7787L50.3676 33.2925C50.6424 33.5673 51.0464 33.6689 51.4183 33.5562C51.7903 33.4439 52.0705 33.1359 52.1472 32.7547L53.9764 23.6656C54.046 23.3196 53.9378 22.9615 53.6882 22.7118ZM27.7226 2.10921C29.2145 2.10921 30.4281 3.32296 30.4281 4.8147C30.4281 6.30655 29.2144 7.5203 27.7226 7.5203C26.2308 7.5203 25.017 6.30655 25.017 4.8147C25.017 3.32296 26.2308 2.10921 27.7226 2.10921ZM17.2871 20.8021L16.0036 19.5187C16.6132 19.3198 17.2119 19.0923 17.798 18.8378L17.2871 20.8021ZM13.7279 17.1439C13.6032 16.7113 13.8539 16.258 14.2865 16.1334C16.0202 15.6339 17.6372 14.8628 19.094 13.8557L18.4985 16.1453C17.3129 16.8004 16.0506 17.3243 14.7381 17.7024C14.7137 17.7094 14.6882 17.7155 14.663 17.7204C14.4684 17.7574 14.2737 17.7187 14.1103 17.6254L13.8014 17.3165C13.7709 17.2627 13.7456 17.2053 13.7279 17.1439ZM7.86552 14.811C7.92721 14.7493 8.00831 14.7185 8.08931 14.7185C8.1703 14.7185 8.2514 14.7493 8.31299 14.811L12.1572 18.6553C12.3356 18.8988 12.5482 19.1111 12.7877 19.2857L16.1072 22.6052C16.2306 22.7285 16.2306 22.9293 16.1072 23.0526L14.0241 25.1356L11.7075 22.819L12.1487 22.3777C12.5605 21.9659 12.5605 21.2981 12.1487 20.8862L9.77478 18.5123C9.36285 18.1005 8.69528 18.1005 8.28325 18.5123L7.842 18.9535L5.78246 16.894L7.86552 14.811ZM9.30906 22.2345C9.20814 22.3354 9.09034 22.3506 9.02907 22.3506C8.9679 22.3506 8.8501 22.3354 8.74917 22.2346V22.2345L8.42657 21.912C8.32575 21.8111 8.31056 21.6933 8.31056 21.6321C8.31056 21.5708 8.32575 21.453 8.42667 21.3521L9.02907 20.7497L9.91146 21.6321L9.30906 22.2345ZM10.4495 28.7103C10.3728 28.7869 10.2856 28.8029 10.2258 28.8029C10.1661 28.8029 10.0787 28.7869 10.0022 28.7102L2.20808 20.9161C2.13141 20.8395 2.11538 20.7521 2.11538 20.6924C2.11538 20.6327 2.13141 20.5453 2.20808 20.4688L4.29103 18.3857L6.44918 20.5437C6.2873 20.8789 6.20135 21.2489 6.20135 21.6321C6.20135 22.3014 6.46205 22.9304 6.93514 23.4035L7.25764 23.7259V23.726C7.73074 24.1991 8.35992 24.4598 9.02907 24.4598C9.41231 24.4598 9.78227 24.374 10.1174 24.212L12.5327 26.6272L10.4495 28.7103ZM25.5137 20.4872H19.5485L21.7149 12.1587C22.1024 10.6696 23.4475 9.62962 24.9862 9.62962C25.9367 9.62962 26.816 10.0129 27.4619 10.7088C29.4433 12.8437 32.5849 13.4481 35.1011 12.1787C35.7294 11.8618 36.3234 11.4725 36.8663 11.0214L37.1517 10.7842C37.3239 10.6412 37.541 10.5756 37.7635 10.6007C37.9855 10.6252 38.1834 10.7365 38.3207 10.9144C38.5857 11.2575 38.5139 11.7753 38.1608 12.0686L37.9096 12.2773C35.9413 13.9124 33.4507 14.8128 30.8967 14.8128C30.342 14.8128 29.7752 14.7684 29.2117 14.6808C28.7088 14.6019 28.2223 14.8942 28.0542 15.3744L26.2643 20.4872H25.5137Z" fill="url(#paint0_linear)"/>
<path d="M26.0483 43.1124C25.771 43.1124 25.4989 43.2252 25.3027 43.4214C25.1066 43.6175 24.9937 43.8896 24.9937 44.167C24.9937 44.4455 25.1065 44.7165 25.3027 44.9125C25.4989 45.1097 25.771 45.2216 26.0483 45.2216C26.3257 45.2216 26.5978 45.1097 26.7938 44.9125C26.99 44.7165 27.1029 44.4453 27.1029 44.167C27.1029 43.8896 26.9901 43.6175 26.7938 43.4214C26.5978 43.2252 26.3257 43.1124 26.0483 43.1124Z" fill="url(#paint1_linear)"/>
<path d="M12.9596 36.2932C13.2369 36.2932 13.509 36.1803 13.7052 35.9841C13.9012 35.788 14.0142 35.5159 14.0142 35.2386C14.0142 34.9612 13.9013 34.6891 13.7052 34.493C13.508 34.2968 13.2369 34.184 12.9596 34.184C12.6822 34.184 12.4101 34.2967 12.2129 34.493C12.0169 34.6891 11.905 34.9612 11.905 35.2386C11.905 35.5159 12.0169 35.788 12.2129 35.9841C12.4101 36.1802 12.6812 36.2932 12.9596 36.2932Z" fill="url(#paint2_linear)"/>
<defs>
<linearGradient id="paint0_linear" x1="27.0017" y1="0" x2="27.0017" y2="54" gradientUnits="userSpaceOnUse">
<stop stop-color="#26E3FF"/>
<stop offset="1" stop-color="#26A5FF"/>
</linearGradient>
<linearGradient id="paint1_linear" x1="26.0483" y1="43.1124" x2="26.0483" y2="45.2216" gradientUnits="userSpaceOnUse">
<stop stop-color="#26E3FF"/>
<stop offset="1" stop-color="#26A5FF"/>
</linearGradient>
<linearGradient id="paint2_linear" x1="12.9596" y1="34.184" x2="12.9596" y2="36.2932" gradientUnits="userSpaceOnUse">
<stop stop-color="#26E3FF"/>
<stop offset="1" stop-color="#26A5FF"/>
</linearGradient>
</defs>
</svg>
