<svg width="52" height="52" viewBox="0 0 52 52" fill="none" xmlns="http://www.w3.org/2000/svg">
<g clip-path="url(#clip0)">
<path d="M1.27527 32.4058C1.56045 32.6034 1.86132 32.7773 2.17487 32.9258C2.55014 33.1174 3.1776 33.438 3.2218 33.6634C3.27696 33.9593 3.24162 34.2649 3.1204 34.5404C2.99127 34.8178 2.8552 35.0561 2.73907 35.2624C2.421 35.8222 1.8906 36.7608 2.6914 37.416C2.8786 37.5894 3.20187 37.8398 3.4974 38.066C3.28023 38.4452 3.18181 38.8809 3.21487 39.3166C3.26039 39.6577 3.44441 39.9649 3.7236 40.166C3.9186 40.3046 4.12747 40.426 4.33027 40.543C4.83987 40.8333 5.0392 40.9685 5.11027 41.2363C5.15688 41.5889 5.12432 41.9474 5.01494 42.2858C4.9638 42.5112 4.9144 42.7356 4.88234 42.9662C4.79643 43.7566 4.89676 44.5562 5.17527 45.301C5.56423 46.681 6.81225 47.6427 8.24587 47.667C8.4838 47.6661 8.72104 47.6411 8.95394 47.5924C11.4298 47.0057 13.8696 46.2756 16.2608 45.4058C18.2125 46.5516 19.4467 50.0356 19.7682 51.3434C19.8645 51.7296 20.2116 52.0006 20.6097 52.0003L42.3631 51.9396C42.6388 51.9391 42.8977 51.8074 43.0606 51.585C43.2235 51.3626 43.2708 51.076 43.1881 50.813C42.9738 50.2258 42.6783 49.6715 42.3102 49.1663C42.102 48.8674 41.9144 48.5547 41.7486 48.2303C41.3567 47.4354 41.0295 46.6103 40.7701 45.7629C40.2758 44.0879 39.9327 42.372 39.7449 40.6357C39.4406 38.0428 39.8338 35.4157 40.8837 33.0255C41.5244 31.6999 42.3141 30.4516 43.2375 29.3049C43.7575 28.6029 44.2975 27.8758 44.7819 27.1122C45.6149 25.8183 46.2189 24.3905 46.5673 22.8916C46.667 22.4289 46.377 21.9717 45.916 21.8648C45.4549 21.7578 44.9932 22.0405 44.879 22.4998C44.5743 23.8081 44.0466 25.054 43.319 26.1832C42.8692 26.8947 42.3492 27.595 41.8457 28.2727C40.8428 29.524 39.987 30.8864 39.2951 32.333C38.1214 35.0062 37.6828 37.9443 38.0245 40.8437C38.2244 42.6851 38.5902 44.5047 39.1174 46.2803C39.4021 47.2126 39.7618 48.1204 40.1929 48.9947C40.3905 49.3853 40.615 49.7618 40.8646 50.1214L40.9227 50.208L21.2649 50.267C20.6889 48.2112 19.6444 46.3168 18.2134 44.7324L18.9934 44.4612C19.5758 44.2575 20.0152 44.1041 20.2423 44.0278C23.9533 42.8448 25.8097 41.1548 25.7586 39.0012C25.7562 38.7711 25.6608 38.5519 25.4941 38.3933C25.3274 38.2348 25.1036 38.1505 24.8737 38.1596C24.3954 38.171 24.0167 38.5679 24.0279 39.0462C24.0487 39.9328 23.3181 41.2311 19.7153 42.3786C19.4796 42.454 19.022 42.6126 18.4231 42.8232C17.7792 43.0476 16.9628 43.3336 16.0615 43.6396H16.0554C13.6181 44.5333 11.1313 45.2856 8.60727 45.8929C7.80003 46.0447 7.01533 45.5377 6.82194 44.7394C6.63554 44.2502 6.56236 43.7251 6.60787 43.2036C6.633 43.0303 6.67374 42.8483 6.7136 42.6715C6.89805 42.0666 6.92785 41.425 6.80027 40.8056C6.54858 40.0119 5.96487 39.3666 5.2004 39.0367L5.01407 38.9301C5.10749 38.7403 5.21955 38.5603 5.3486 38.3928C5.49381 38.2083 5.55799 37.9729 5.52646 37.7403C5.49494 37.5076 5.3704 37.2978 5.18134 37.1586C4.9742 37.0061 4.488 36.6386 4.124 36.3492C4.1656 36.2738 4.21067 36.1906 4.25487 36.116C4.39094 35.8768 4.54694 35.596 4.69774 35.278C4.9724 34.6709 5.05291 33.9938 4.92827 33.3392C4.72114 32.2819 3.708 31.7636 2.96874 31.3858C2.71967 31.2673 2.48082 31.1284 2.2546 30.9706C2.06888 30.8463 1.89483 30.7053 1.7346 30.5494C1.7346 30.4177 1.87587 30.0996 2.5354 29.2962C4.08624 27.2981 5.41568 25.1375 6.5004 22.8526C6.70403 22.4944 6.81875 22.0925 6.83494 21.6808C6.74417 20.8088 6.28054 20.0187 5.56354 19.5142C5.21254 19.1918 4.8806 18.8884 4.84334 18.6328C4.85128 18.4204 4.8989 18.2114 4.98374 18.0166C5.125 17.6456 5.2888 17.2816 5.45174 16.9168C5.8172 16.164 6.10749 15.377 6.3184 14.5672C6.517 13.5959 6.77753 12.6383 7.0984 11.7003C7.78151 9.81461 8.83929 8.08673 10.208 6.62077C11.8651 4.86577 14.4737 3.6247 17.9751 2.92963C20.6533 2.34164 23.3709 1.95002 26.1061 1.7579C27.0265 1.71047 27.949 1.73017 28.8665 1.81683C29.1755 1.84563 29.4764 1.70738 29.6558 1.45417C29.8353 1.20095 29.866 0.871243 29.7364 0.589234C29.6069 0.307225 29.3367 0.115762 29.0277 0.0869659C28.0262 -0.00479551 27.0195 -0.0247799 26.0151 0.0271659C23.1954 0.22282 20.3937 0.624875 17.6327 1.2301C13.7249 2.0101 10.8849 3.3803 8.947 5.4291C7.41675 7.06496 6.23392 8.99399 5.46994 11.0997C5.11872 12.1244 4.83358 13.1706 4.61627 14.2318C4.43104 14.9124 4.18207 15.574 3.87267 16.2078C3.69934 16.6022 3.5208 16.9965 3.3648 17.4064C3.16756 17.8647 3.08659 18.3645 3.12907 18.8616C3.30835 19.6352 3.75799 20.3193 4.397 20.7908C4.82167 21.1799 5.1016 21.4538 5.10507 21.693C5.07352 21.8245 5.02394 21.9511 4.95774 22.0691C3.92011 24.2545 2.6485 26.3209 1.1652 28.232C0.537736 28.9972 -0.12093 29.889 0.0168697 30.7817C0.201422 31.47 0.654872 32.0552 1.27527 32.4058Z" fill="url(#paint0_linear)"/>
<path d="M10.3462 12.9037C10.8681 11.4568 11.677 10.1303 12.7243 9.00375C13.8796 7.78088 15.8773 6.88041 18.6627 6.32661C19.1323 6.23352 19.4375 5.7774 19.3444 5.30785C19.2513 4.83829 18.7952 4.53312 18.3256 4.62621C15.1805 5.25195 12.8725 6.32315 11.4651 7.81035C10.2557 9.10836 9.32172 10.6379 8.71947 12.3066C8.42772 13.1724 8.19008 14.0555 8.00793 14.9508L9.70053 15.3261C9.86665 14.5063 10.0823 13.6974 10.3462 12.9037Z" fill="url(#paint1_linear)"/>
<path d="M28.4777 4.85334L27.9577 7.44641C27.4564 7.61102 26.9685 7.81384 26.4983 8.05308L24.2978 6.57974C23.6102 6.12948 22.701 6.22395 22.1207 6.80594L20.6821 8.24374C20.0886 8.82636 19.9926 9.74835 20.4533 10.4407L21.9197 12.6308C21.6804 13.1011 21.4776 13.589 21.313 14.0903L18.7234 14.6103C17.9142 14.7737 17.3326 15.4852 17.3333 16.3107V18.356C17.3327 19.1801 17.9124 19.8907 18.7199 20.0555L21.313 20.5755C21.4776 21.0768 21.6804 21.5647 21.9197 22.035L20.4463 24.2355C19.9961 24.923 20.0905 25.8323 20.6725 26.4125L22.1112 27.8512C22.6948 28.4419 23.6148 28.5374 24.3073 28.0791L26.4974 26.6127C26.9676 26.852 27.4556 27.0548 27.9569 27.2194L28.4769 29.809C28.6399 30.6185 29.3515 31.2006 30.1773 31.2H32.2226C33.0467 31.2006 33.7573 30.6208 33.9221 29.8133L34.4421 27.2203C34.9434 27.0557 35.4313 26.8528 35.9016 26.6136L38.1021 28.0869C38.7896 28.5372 39.6988 28.4427 40.2791 27.8607L41.7169 26.4229C42.3104 25.8403 42.4064 24.9183 41.9457 24.2259L40.4793 22.0359C40.7186 21.5656 40.9214 21.0777 41.086 20.5764L43.6756 20.0564C44.19 19.9524 44.6291 19.6201 44.869 19.1533L46.1751 20.0287C46.4271 20.1874 46.7187 20.2718 47.0166 20.2722C47.4321 20.2723 47.8304 20.1067 48.1233 19.812L49.276 18.6593C49.8002 18.1325 49.8844 17.3108 49.4779 16.6885L48.3599 15.0159C48.5221 14.6899 48.6622 14.3535 48.7794 14.0088L50.7407 13.6179C51.4745 13.4738 52.0027 12.8292 51.9999 12.0813V10.452C52.0026 9.70698 51.478 9.06408 50.7476 8.91714L48.7777 8.52454C48.6614 8.17977 48.5218 7.8433 48.3599 7.51748L49.4953 5.82488C49.8887 5.20496 49.7986 4.39495 49.2786 3.87661L48.1259 2.72394C47.5992 2.19944 46.7773 2.11522 46.1551 2.52201L44.4825 3.64001C44.1565 3.47784 43.8201 3.33771 43.4754 3.22054L43.0837 1.25928C42.9396 0.525796 42.2954 -0.00238291 41.5479 9.83848e-06H39.9186C39.1736 -0.00261926 38.5307 0.521941 38.3837 1.25234L37.9911 3.22228C37.6463 3.33937 37.3098 3.4798 36.9841 3.64261L35.2915 2.50728C34.6714 2.11454 33.8618 2.20457 33.3432 2.72394L32.5632 3.50394C32.4511 3.48057 32.3371 3.46809 32.2226 3.46668H30.1773C29.3531 3.4661 28.6425 4.04587 28.4777 4.85334ZM41.7273 8.25068L41.3226 7.84594C42.8248 8.04703 44.0196 9.20536 44.2672 10.7006C44.5148 12.1958 43.7571 13.6775 42.3999 14.352L41.0843 14.092C40.9196 13.5907 40.7168 13.1028 40.4776 12.6325L41.9509 10.4321C42.4028 9.74476 42.3094 8.83449 41.7273 8.25328V8.25068ZM34.4733 4.04214L36.4545 5.37334C36.7323 5.55965 37.0926 5.56943 37.3801 5.39848C37.8762 5.1065 38.4098 4.88345 38.9661 4.73548C39.284 4.64963 39.5258 4.39106 39.5901 4.06814L40.0555 1.73334H41.411L41.8764 4.07334C41.9407 4.39626 42.1825 4.65483 42.5004 4.74068C43.0567 4.88865 43.5903 5.1117 44.0864 5.40368C44.3749 5.57308 44.7352 5.56127 45.012 5.37334L46.9932 4.04388L47.9552 5.00588L46.6266 6.98794C46.4403 7.26577 46.4305 7.62601 46.6015 7.91354C46.8934 8.40966 47.1165 8.94323 47.2645 9.49954C47.3503 9.81742 47.6089 10.0592 47.9318 10.1235L50.2718 10.5889V11.9444L47.9361 12.4098C47.6132 12.4742 47.3546 12.7159 47.2688 13.0338C47.1208 13.5901 46.8978 14.1237 46.6058 14.6198C46.4348 14.9073 46.4446 15.2676 46.6309 15.5454L47.9604 17.5266L46.9984 18.4886L45.0666 17.1964V16.3107C45.0667 15.8032 44.8451 15.3211 44.4599 14.9907C45.9857 13.5209 46.4644 11.2709 45.6692 9.3072C44.8739 7.34349 42.9645 6.06065 40.8459 6.06668C40.3219 6.06997 39.8017 6.15536 39.3041 6.31974C38.8807 6.25805 38.4493 6.35296 38.0908 6.58668L35.9025 8.05308C35.4322 7.81384 34.9443 7.61102 34.443 7.44641L33.923 4.85681C33.9076 4.78737 33.8877 4.71904 33.8632 4.65228L34.4733 4.04214ZM29.5533 8.30008L30.1773 5.20001H32.2226L32.8457 8.30268C32.9105 8.6247 33.1518 8.88243 33.4689 8.96828C34.1849 9.16131 34.8728 9.44683 35.5151 9.81761C35.8013 9.98363 36.157 9.97219 36.432 9.78814L39.0545 8.03401L40.5071 9.47874L38.7477 12.1039C38.5637 12.3788 38.5522 12.7346 38.7183 13.0208C39.089 13.6631 39.3745 14.351 39.5676 15.067C39.6534 15.3841 39.9112 15.6254 40.2332 15.6901L43.3333 16.3098V18.356L40.2306 18.9791C39.9086 19.0439 39.6508 19.2852 39.565 19.6023C39.372 20.3183 39.0864 21.0062 38.7157 21.6485C38.5496 21.9347 38.5611 22.2905 38.7451 22.5654L40.4993 25.1879L39.0545 26.6405L36.4294 24.8811C36.1544 24.6971 35.7987 24.6857 35.5125 24.8517C34.8702 25.2225 34.1823 25.508 33.4663 25.701C33.1492 25.7869 32.9079 26.0446 32.8431 26.3666L32.2226 29.4667H30.1773L29.5541 26.364C29.4893 26.042 29.2481 25.7843 28.931 25.6984C28.2149 25.5054 27.5271 25.2199 26.8848 24.8491C26.5986 24.6831 26.2428 24.6945 25.9679 24.8785L23.3453 26.6327L21.8928 25.1879L23.6521 22.5628C23.8362 22.2879 23.8476 21.9321 23.6816 21.6459C23.3108 21.0036 23.0253 20.3157 22.8323 19.5997C22.7464 19.2826 22.4887 19.0413 22.1667 18.9765L19.0666 18.356V16.3107L22.1693 15.6875C22.4913 15.6228 22.749 15.3815 22.8349 15.0644C23.0279 14.3484 23.3134 13.6605 23.6842 13.0182C23.8502 12.732 23.8388 12.3762 23.6547 12.1013L21.9006 9.47874L23.3453 8.02621L25.9705 9.78554C26.2454 9.96959 26.6012 9.98103 26.8874 9.81501C27.5297 9.44423 28.2175 9.15871 28.9336 8.96568C29.2493 8.8787 29.489 8.6212 29.5533 8.30008Z" fill="url(#paint2_linear)"/>
<path d="M31.2 23.3999C34.5505 23.3999 37.2666 20.6838 37.2666 17.3333C37.2666 13.9827 34.5505 11.2666 31.2 11.2666C27.8494 11.2666 25.1333 13.9827 25.1333 17.3333C25.1371 20.6822 27.851 23.3961 31.2 23.3999ZM31.2 12.9999C33.5932 12.9999 35.5333 14.94 35.5333 17.3333C35.5333 19.7265 33.5932 21.6666 31.2 21.6666C28.8067 21.6666 26.8666 19.7265 26.8666 17.3333C26.8695 14.9412 28.8079 13.0028 31.2 12.9999Z" fill="url(#paint3_linear)"/>
<path d="M31.1999 18.2C31.6786 18.2 32.0666 17.812 32.0666 17.3333C32.0666 16.8547 31.6786 16.4667 31.1999 16.4667C30.7213 16.4667 30.3333 16.8547 30.3333 17.3333C30.3333 17.812 30.7213 18.2 31.1999 18.2Z" fill="url(#paint4_linear)"/>
<path d="M7.79989 19.0667C8.27854 19.0667 8.66656 18.6787 8.66656 18.2C8.66656 17.7214 8.27854 17.3334 7.79989 17.3334C7.32125 17.3334 6.93323 17.7214 6.93323 18.2C6.93323 18.6787 7.32125 19.0667 7.79989 19.0667Z" fill="url(#paint5_linear)"/>
</g>
<defs>
<linearGradient id="paint0_linear" x1="23.2927" y1="-0.000976563" x2="23.2927" y2="52.0003" gradientUnits="userSpaceOnUse">
<stop stop-color="#26ABFF"/>
<stop offset="1" stop-color="#26EDFF"/>
</linearGradient>
<linearGradient id="paint1_linear" x1="13.6845" y1="4.6095" x2="13.6845" y2="15.3261" gradientUnits="userSpaceOnUse">
<stop stop-color="#26ABFF"/>
<stop offset="1" stop-color="#26EDFF"/>
</linearGradient>
<linearGradient id="paint2_linear" x1="34.6666" y1="0" x2="34.6666" y2="31.2" gradientUnits="userSpaceOnUse">
<stop stop-color="#26ABFF"/>
<stop offset="1" stop-color="#26EDFF"/>
</linearGradient>
<linearGradient id="paint3_linear" x1="31.2" y1="11.2666" x2="31.2" y2="23.3999" gradientUnits="userSpaceOnUse">
<stop stop-color="#26ABFF"/>
<stop offset="1" stop-color="#26EDFF"/>
</linearGradient>
<linearGradient id="paint4_linear" x1="31.1999" y1="16.4667" x2="31.1999" y2="18.2" gradientUnits="userSpaceOnUse">
<stop stop-color="#26ABFF"/>
<stop offset="1" stop-color="#26EDFF"/>
</linearGradient>
<linearGradient id="paint5_linear" x1="7.79989" y1="17.3334" x2="7.79989" y2="19.0667" gradientUnits="userSpaceOnUse">
<stop stop-color="#26ABFF"/>
<stop offset="1" stop-color="#26EDFF"/>
</linearGradient>
<clipPath id="clip0">
<rect width="52" height="52" fill="white"/>
</clipPath>
</defs>
</svg>
