<svg width="54" height="54" viewBox="0 0 54 54" fill="none" xmlns="http://www.w3.org/2000/svg">
<path d="M53.4045 41.4642L52.53 39.1112C52.3271 38.5653 51.7203 38.2871 51.1742 38.49C50.6282 38.6929 50.3502 39.2999 50.5531 39.8458L51.4275 42.1989C52.259 44.4364 51.9544 46.8438 50.5919 48.8037C49.2293 50.7637 47.0788 51.8878 44.6917 51.8878C42.1814 51.8878 39.8955 50.6125 38.5769 48.4763L37.5091 46.7464C37.8965 46.0887 38.1197 45.3232 38.1197 44.5061C38.1197 42.0639 36.1329 40.0771 33.6907 40.0771C31.6119 40.0771 29.864 41.5171 29.3896 43.4516H24.6103C24.1358 41.5171 22.3879 40.0771 20.3092 40.0771C17.867 40.0771 15.8801 42.0639 15.8801 44.5061C15.8801 45.3231 16.1034 46.0886 16.4907 46.7463L15.4229 48.4763C14.1043 50.6125 11.8184 51.8878 9.30812 51.8878C6.92109 51.8878 4.77059 50.7637 3.40803 48.8037C2.04547 46.8438 1.74082 44.4364 2.57242 42.1989L7.62794 28.595C8.91984 25.1186 12.2797 22.7828 15.9883 22.7828H38.0118C41.7204 22.7828 45.0803 25.1185 46.3722 28.595L47.2467 30.9484C47.4496 31.4943 48.0567 31.7725 48.6025 31.5695C49.1484 31.3666 49.4265 30.7596 49.2236 30.2137L48.3491 27.8603C46.7517 23.5618 42.5974 20.6738 38.0118 20.6738H35.5544C35.0531 17.8023 32.5438 15.612 29.531 15.612H28.0546V14.8211C28.0546 11.7103 25.5237 9.17941 22.4128 9.17941H11.3403C9.39237 9.17941 7.80763 7.59466 7.80763 5.64673C7.80763 3.69881 9.39237 2.11406 11.3403 2.11406H27.0134C27.5959 2.11406 28.068 1.64195 28.068 1.05953C28.068 0.477117 27.5959 0.00500488 27.0134 0.00500488H11.3403C8.22944 0.00500488 5.69857 2.53587 5.69857 5.64673C5.69857 8.75759 8.22944 11.2885 11.3403 11.2885H22.4128C24.3608 11.2885 25.9455 12.8732 25.9455 14.8211V15.612H24.4692C21.4564 15.612 18.9471 17.8023 18.4458 20.6738H15.9883C11.4027 20.6738 7.24841 23.5618 5.65101 27.8603L0.595495 41.4642C-0.480124 44.3585 -0.0861519 47.4724 1.67639 50.0077C3.43882 52.5429 6.22056 53.997 9.30833 53.997C12.5554 53.997 15.5122 52.3473 17.2177 49.5842L18.0146 48.2933C18.6842 48.7006 19.4699 48.9354 20.3094 48.9354C22.3882 48.9354 24.1361 47.4954 24.6105 45.5609H29.3897C29.8642 47.4954 31.6121 48.9354 33.6908 48.9354C34.5302 48.9354 35.3157 48.7006 35.9854 48.2934L36.7822 49.5842C38.4878 52.3474 41.4446 53.997 44.6917 53.997C47.7793 53.997 50.5611 52.5429 52.3235 50.0077C54.0861 47.4724 54.4801 44.3585 53.4045 41.4642ZM24.4692 17.7211H29.531C31.3758 17.7211 32.9334 18.9741 33.3974 20.6738H20.6028C21.0667 18.9742 22.6244 17.7211 24.4692 17.7211ZM20.3093 46.8262C19.03 46.8262 17.9893 45.7855 17.9893 44.5062C17.9893 43.227 19.03 42.1863 20.3093 42.1863C21.5885 42.1863 22.6292 43.227 22.6292 44.5062C22.6292 45.7854 21.5885 46.8262 20.3093 46.8262ZM31.371 44.5062C31.371 43.227 32.4117 42.1863 33.6909 42.1863C34.9702 42.1863 36.0109 43.227 36.0109 44.5062C36.0109 45.7855 34.9702 46.8262 33.6909 46.8262C32.4117 46.8262 31.371 45.7854 31.371 44.5062Z" fill="url(#paint0_linear)"/>
<path d="M36.7911 32.3604C36.7911 34.2212 38.3048 35.7349 40.1656 35.7349C42.0263 35.7349 43.54 34.2212 43.54 32.3604C43.54 30.4997 42.0263 28.986 40.1656 28.986C38.3048 28.986 36.7911 30.4998 36.7911 32.3604ZM41.431 32.3604C41.431 33.0582 40.8633 33.6259 40.1656 33.6259C39.4678 33.6259 38.9001 33.0582 38.9001 32.3604C38.9001 31.6627 39.4678 31.095 40.1656 31.095C40.8633 31.095 41.431 31.6628 41.431 32.3604Z" fill="url(#paint1_linear)"/>
<path d="M27.5112 32.3604C27.5112 34.2212 29.0249 35.7349 30.8857 35.7349C32.7464 35.7349 34.2602 34.2212 34.2602 32.3604C34.2602 30.4997 32.7464 28.986 30.8857 28.986C29.0249 28.986 27.5112 30.4998 27.5112 32.3604ZM32.1511 32.3604C32.1511 33.0582 31.5834 33.6259 30.8857 33.6259C30.1879 33.6259 29.6202 33.0582 29.6202 32.3604C29.6202 31.6627 30.1879 31.095 30.8857 31.095C31.5834 31.095 32.1511 31.6628 32.1511 32.3604Z" fill="url(#paint2_linear)"/>
<path d="M16.5764 26.2443C14.9007 26.2443 13.5251 27.554 13.4194 29.2035C11.7699 29.3093 10.4602 30.6848 10.4602 32.3605C10.4602 34.0363 11.7699 35.4119 13.4194 35.5176C13.5252 37.1671 14.9007 38.4768 16.5764 38.4768C18.2522 38.4768 19.6278 37.1671 19.7335 35.5176C21.383 35.4119 22.6927 34.0363 22.6927 32.3605C22.6927 30.6848 21.383 29.3093 19.7335 29.2035C19.6277 27.5539 18.2521 26.2443 16.5764 26.2443ZM20.5837 32.3604C20.5837 32.9419 20.1106 33.415 19.5291 33.415H18.6855C18.1031 33.415 17.631 33.8871 17.631 34.4695V35.3131C17.631 35.8946 17.1579 36.3676 16.5764 36.3676C15.995 36.3676 15.5219 35.8946 15.5219 35.3131V34.4695C15.5219 33.8871 15.0498 33.415 14.4674 33.415H13.6238C13.0423 33.415 12.5692 32.9419 12.5692 32.3604C12.5692 31.779 13.0423 31.3059 13.6238 31.3059H14.4674C15.0498 31.3059 15.5219 30.8338 15.5219 30.2514V29.4077C15.5219 28.8263 15.995 28.3532 16.5764 28.3532C17.1579 28.3532 17.631 28.8263 17.631 29.4077V30.2514C17.631 30.8338 18.1031 31.3059 18.6855 31.3059H19.5291C20.1106 31.3059 20.5837 31.779 20.5837 32.3604Z" fill="url(#paint3_linear)"/>
<path d="M48.834 35.028C48.834 35.3064 48.9468 35.5774 49.143 35.7746C49.3391 35.9708 49.6101 36.0836 49.8885 36.0836C50.1659 36.0836 50.4379 35.9708 50.6341 35.7746C50.8302 35.5774 50.9431 35.3064 50.9431 35.028C50.9431 34.7507 50.8302 34.4786 50.6341 34.2825C50.4379 34.0863 50.1659 33.9735 49.8885 33.9735C49.6101 33.9735 49.3391 34.0863 49.143 34.2825C48.9468 34.4786 48.834 34.7508 48.834 35.028Z" fill="url(#paint4_linear)"/>
<defs>
<linearGradient id="paint0_linear" x1="27" y1="0.00500488" x2="27" y2="53.997" gradientUnits="userSpaceOnUse">
<stop stop-color="#26A4FF"/>
<stop offset="1" stop-color="#26F2FF"/>
</linearGradient>
<linearGradient id="paint1_linear" x1="40.1656" y1="28.986" x2="40.1656" y2="35.7349" gradientUnits="userSpaceOnUse">
<stop stop-color="#26A4FF"/>
<stop offset="1" stop-color="#26F2FF"/>
</linearGradient>
<linearGradient id="paint2_linear" x1="30.8857" y1="28.986" x2="30.8857" y2="35.7349" gradientUnits="userSpaceOnUse">
<stop stop-color="#26A4FF"/>
<stop offset="1" stop-color="#26F2FF"/>
</linearGradient>
<linearGradient id="paint3_linear" x1="16.5764" y1="26.2443" x2="16.5764" y2="38.4768" gradientUnits="userSpaceOnUse">
<stop stop-color="#26A4FF"/>
<stop offset="1" stop-color="#26F2FF"/>
</linearGradient>
<linearGradient id="paint4_linear" x1="49.8885" y1="33.9735" x2="49.8885" y2="36.0836" gradientUnits="userSpaceOnUse">
<stop stop-color="#26A4FF"/>
<stop offset="1" stop-color="#26F2FF"/>
</linearGradient>
</defs>
</svg>
