<svg width="96" height="96" viewBox="0 0 96 96" fill="none" xmlns="http://www.w3.org/2000/svg">
<g clip-path="url(#clip0)">
<path d="M15.951 85.2994C15.6025 84.9504 15.1187 84.75 14.6256 84.75C14.1325 84.75 13.6487 84.9504 13.3 85.2994C12.9512 85.6483 12.7506 86.1319 12.7506 86.625C12.7506 87.1181 12.951 87.6019 13.3 87.9504C13.6487 88.2992 14.1325 88.5 14.6256 88.5C15.1187 88.5 15.6025 88.2994 15.951 87.9504C16.2998 87.6019 16.5006 87.1181 16.5006 86.625C16.5006 86.1319 16.3 85.6481 15.951 85.2994Z" fill="url(#paint0_linear)"/>
<path d="M88.0358 34.3008C87.6871 33.9519 87.2052 33.7515 86.7102 33.7515C86.2171 33.7515 85.7333 33.9519 85.3846 34.3008C85.036 34.6496 84.8352 35.1333 84.8352 35.6265C84.8352 36.1196 85.0358 36.6033 85.3846 36.9519C85.7333 37.3007 86.2171 37.5015 86.7102 37.5015C87.2052 37.5015 87.6871 37.3008 88.0358 36.9519C88.3863 36.6033 88.5869 36.1196 88.5869 35.6265C88.5869 35.1333 88.3863 34.6496 88.0358 34.3008Z" fill="url(#paint1_linear)"/>
<path d="M95.4511 0.549187C95.0993 0.197625 94.6223 0 94.1249 0L48.001 0.0024375C46.9656 0.0024375 46.1262 0.842062 46.1262 1.87744V7.23938L28.3533 12.0017C27.3529 12.2698 26.7593 13.2979 27.0274 14.298L36.2388 48.6746L28.2702 56.6432C27.256 55.1623 25.5531 54.1884 23.6269 54.1884H5.6275C2.52587 54.1884 0.00268555 56.7118 0.00268555 59.8132V90.375C0.00268555 93.4766 2.52587 96 5.6275 96H23.6271C26.2621 96 28.4787 94.1783 29.0862 91.7288L31.3156 93.6729C33.0366 95.1737 35.2416 96.0002 37.5252 96.0002H94.1253C95.1606 96.0002 96.0003 95.1606 96.0003 94.1252V1.875C95.9999 1.37775 95.8026 0.90075 95.4511 0.549187ZM25.5017 90.3752C25.5017 91.4089 24.6606 92.2502 23.6267 92.2502H5.62731C4.59344 92.2502 3.75231 91.4091 3.75231 90.3752V59.8134C3.75231 58.7796 4.59344 57.9384 5.62731 57.9384H12.7521V79.5375C12.7521 80.5729 13.5917 81.4125 14.6271 81.4125C15.6625 81.4125 16.5021 80.5729 16.5021 79.5375V57.9384H23.6269C24.6608 57.9384 25.5019 58.7796 25.5019 59.8134V90.3752H25.5017ZM31.1348 15.1386L46.1262 11.1216V18.0694L44.8696 18.4061C44.389 18.5349 43.9797 18.849 43.7311 19.2797C43.4824 19.7104 43.4149 20.2221 43.5438 20.7024C44.2643 23.3914 42.6629 26.1651 39.9739 26.8856C39.493 27.0146 39.0829 27.3293 38.8345 27.7609C38.5861 28.1923 38.5191 28.7049 38.6491 29.1857L45.9576 56.2491H42.1945L40.2552 48.6621C40.1935 48.4206 40.0855 48.198 39.9409 48.0045L31.1348 15.1386ZM46.1262 26.6679V42.4894L42.7064 29.8266C44.1349 29.0889 45.304 27.9853 46.1262 26.6679ZM73.0632 92.25H37.5248C36.1476 92.25 34.8177 91.7516 33.7797 90.8466L29.2517 86.8976V60.9651L37.4376 52.7792L38.9223 58.5879C39.1345 59.418 39.8821 59.9985 40.7388 59.9985L77.602 60.0007C79.0495 60.0007 80.227 61.1782 80.227 62.6257C80.227 64.0732 79.0495 65.2507 77.602 65.2507H58.7133C57.6779 65.2507 56.8383 66.0904 56.8383 67.1257C56.8383 68.1611 57.6779 69.0007 58.7133 69.0007H83.4708C84.9183 69.0007 86.0958 70.1783 86.0958 71.6257C86.0958 73.0732 84.9183 74.2507 83.4708 74.2507H58.7133C57.6779 74.2507 56.8383 75.0904 56.8383 76.1257C56.8383 77.1611 57.6779 78.0007 58.7133 78.0007H79.4588C80.9063 78.0007 82.0838 79.1783 82.0838 80.6257C82.0838 82.0732 80.9063 83.2507 79.4588 83.2507H58.7133C57.6779 83.2507 56.8383 84.0904 56.8383 85.1257C56.8383 86.1611 57.6779 87.0007 58.7133 87.0007H73.0632C74.5107 87.0007 75.6882 88.1783 75.6882 89.6257C75.688 91.0725 74.5105 92.25 73.0632 92.25ZM92.2503 92.25H92.2501H78.8703C79.2338 91.4488 79.438 90.5606 79.438 89.625C79.438 88.6894 79.2338 87.8012 78.8703 87H79.4588C82.9739 87 85.8336 84.1403 85.8336 80.6252C85.8336 79.5999 85.5889 78.6311 85.1569 77.772C87.8562 77.0306 89.8454 74.5566 89.8454 71.6254C89.8454 70.2034 89.377 68.8888 88.5871 67.8276V44.0638C88.5871 43.0284 87.7474 42.1888 86.7121 42.1888C85.6767 42.1888 84.8371 43.0284 84.8371 44.0638V65.3998C84.3964 65.3033 83.9395 65.2507 83.4704 65.2507H83.4089C83.7724 64.4496 83.9766 63.5614 83.9766 62.6257C83.9766 59.1105 81.1169 56.2509 77.6018 56.2509H74.5878C77.7882 54.8784 80.0359 51.6973 80.0359 48C80.0359 43.0521 76.0107 39.0266 71.0628 39.0266C66.115 39.0266 62.0896 43.0521 62.0896 48C62.0896 51.6973 64.3375 54.8784 67.5378 56.2509H57.2884V20.5993C60.6379 19.8694 63.2809 17.2266 64.0107 13.8769H78.1146C78.8444 17.2266 81.4874 19.8694 84.8369 20.5993V26.4287C84.8369 27.4641 85.6765 28.3037 86.7119 28.3037C87.7473 28.3037 88.5869 27.4641 88.5869 26.4287V18.9253C88.5869 17.8899 87.7473 17.0503 86.7119 17.0503C83.9281 17.0503 81.6636 14.7855 81.6636 12.0019C81.6636 10.9665 80.824 10.1269 79.7886 10.1269H62.3369C61.3015 10.1269 60.4619 10.9665 60.4619 12.0019C60.4619 14.7857 58.1973 17.0503 55.4136 17.0503C54.3783 17.0503 53.5386 17.8899 53.5386 18.9253V56.2507H49.8764V3.75206L92.2503 3.75V92.25ZM71.0631 53.2234C68.1829 53.2234 65.8399 50.8802 65.8399 48.0002C65.8399 45.1202 68.1831 42.7768 71.0631 42.7768C73.9431 42.7768 76.2863 45.12 76.2863 48C76.2863 50.88 73.9433 53.2234 71.0631 53.2234Z" fill="url(#paint2_linear)"/>
</g>
<defs>
<linearGradient id="paint0_linear" x1="14.6256" y1="84.75" x2="14.6256" y2="88.5" gradientUnits="userSpaceOnUse">
<stop stop-color="#26A4FF"/>
<stop offset="1" stop-color="#26D8FF"/>
</linearGradient>
<linearGradient id="paint1_linear" x1="86.711" y1="33.7515" x2="86.711" y2="37.5015" gradientUnits="userSpaceOnUse">
<stop stop-color="#26A4FF"/>
<stop offset="1" stop-color="#26D8FF"/>
</linearGradient>
<linearGradient id="paint2_linear" x1="48.0015" y1="0" x2="48.0015" y2="96.0002" gradientUnits="userSpaceOnUse">
<stop stop-color="#26A4FF"/>
<stop offset="1" stop-color="#26D8FF"/>
</linearGradient>
<clipPath id="clip0">
<rect width="96" height="96" fill="white"/>
</clipPath>
</defs>
</svg>
