<svg width="84" height="84" viewBox="0 0 84 84" fill="none" xmlns="http://www.w3.org/2000/svg">
<g clip-path="url(#clip0)">
<path d="M71.9012 41.895C72.2379 42.0524 72.6234 42.0694 72.9727 41.9423C73.3219 41.8152 73.6063 41.5544 73.7632 41.2174C75.0681 38.4211 75.7566 35.3768 75.782 32.291C75.8279 29.3469 75.5808 26.4054 75.0442 23.5102C74.9506 23.0188 74.602 22.6146 74.1297 22.4499C73.6573 22.2852 73.133 22.385 72.7542 22.7117C72.3754 23.0384 72.1996 23.5424 72.2932 24.0338C72.7954 26.7421 73.0261 29.4936 72.982 32.2476C72.963 34.9412 72.3637 37.599 71.225 40.04C70.9018 40.7391 71.2039 41.568 71.9012 41.895Z" fill="url(#paint0_linear)"/>
<path d="M2.06076 52.3473C2.52106 52.667 3.00713 52.948 3.51396 53.1873C4.11876 53.4967 5.13376 54.0147 5.20516 54.3773C5.29316 54.8559 5.23561 55.3499 5.03996 55.7955C4.83136 56.2435 4.61296 56.6285 4.42396 56.9603C3.91156 57.8661 3.05336 59.3837 4.34696 60.4407C4.64936 60.7207 5.17156 61.1253 5.64756 61.4907C5.29715 62.1034 5.13865 62.8071 5.19256 63.5109C5.26685 64.0651 5.56741 64.5639 6.02277 64.8885C6.33356 65.1069 6.66536 65.2973 6.99156 65.4835C7.82036 65.9539 8.14376 66.1737 8.25156 66.6133C8.32935 67.1767 8.28154 67.7504 8.11156 68.2933C8.02896 68.6671 7.94916 69.0423 7.90157 69.4133C7.76254 70.6892 7.92017 71.9799 8.36216 73.1849C8.99191 75.4093 11.0039 76.9589 13.3154 76.9999C13.7012 76.9987 14.0859 76.9579 14.4634 76.8781C18.4629 75.93 22.4039 74.7506 26.2668 73.3459C29.421 75.1967 31.4132 80.8247 31.9326 82.9373C32.0876 83.5618 32.6485 84.0002 33.292 83.9999L68.432 83.9019C68.8773 83.901 69.2957 83.6883 69.5588 83.329C69.8219 82.9697 69.8984 82.5067 69.7648 82.0819C69.4186 81.1333 68.9412 80.2379 68.3466 79.4219C68.0109 78.9379 67.7082 78.4318 67.4408 77.9071C66.8066 76.624 66.278 75.2915 65.8602 73.9227C65.0604 71.2172 64.5061 68.4452 64.204 65.6403C63.7139 61.4486 64.3524 57.2021 66.0534 53.3399C66.3324 52.6838 66.6638 52.0513 67.0446 51.4485C67.3097 51.0233 67.3278 50.489 67.0922 50.0469C66.8565 49.6047 66.4029 49.3219 65.9022 49.3049C65.4014 49.2879 64.9297 49.5393 64.6646 49.9645C64.2109 50.6887 63.8139 51.4469 63.4774 52.2325C61.5827 56.551 60.8742 61.2968 61.425 65.9805C61.7487 68.9539 62.3391 71.8922 63.189 74.7599C63.6496 76.2648 64.2306 77.7302 64.9264 79.1419C65.2458 79.7759 65.6083 80.3872 66.0114 80.9717L66.1052 81.1117L34.3504 81.1999C33.421 77.8788 31.7341 74.8185 29.4224 72.2595L30.6824 71.8185C31.6204 71.4909 32.3274 71.2445 32.69 71.1283C38.6876 69.2313 41.6864 66.4999 41.6052 63.0083C41.5869 62.2482 40.9654 61.6416 40.2052 61.6419H40.18C39.4072 61.6602 38.7956 62.3013 38.8136 63.0741C38.8472 64.5147 37.667 66.6161 31.8472 68.4571C31.4678 68.5789 30.737 68.8337 29.7668 69.1725C28.7266 69.5365 27.4036 69.9985 25.9448 70.4941H25.935C21.9951 71.9383 17.9751 73.1536 13.895 74.1341C12.5893 74.3864 11.3174 73.5626 11.0138 72.2679C10.7147 71.4714 10.6021 70.617 10.6848 69.7703C10.7212 69.4763 10.7884 69.1851 10.8528 68.8925C11.138 67.9246 11.1799 66.9012 10.9746 65.9133C10.5674 64.6272 9.62105 63.5817 8.38176 63.0489L8.09196 62.8837C8.24313 62.5785 8.42365 62.2887 8.63097 62.0185C8.86583 61.7209 8.96996 61.3408 8.91957 60.965C8.86917 60.5893 8.66855 60.25 8.36356 60.0249C8.02757 59.7785 7.23517 59.1849 6.65557 58.7173C6.72276 58.5955 6.79556 58.4611 6.86556 58.3393C7.08536 57.9543 7.33596 57.5063 7.58097 56.9883C8.02399 56.0069 8.15449 54.9131 7.95477 53.8551C7.61876 52.1471 5.98216 51.3099 4.78936 50.6995C4.38659 50.5081 4.00028 50.2838 3.63436 50.0289C3.33668 49.8277 3.05745 49.6004 2.79996 49.3499C2.79996 49.1371 3.02816 48.6219 4.09496 47.3241C6.60246 44.096 8.75237 40.6055 10.507 36.9137C10.835 36.3353 11.0199 35.6867 11.046 35.0223C10.9014 33.615 10.1556 32.339 9.00056 31.5223C8.44057 31.0029 7.90156 30.5129 7.83856 30.0565C7.84785 29.726 7.92206 29.4006 8.05696 29.0989C8.28516 28.4983 8.54836 27.9103 8.81297 27.3209C9.38704 26.1372 9.84556 24.9008 10.1822 23.6291L10.3222 23.0327C10.6177 21.633 10.9987 20.2528 11.4632 18.8999C12.5668 15.8538 14.2755 13.0627 16.4864 10.6945C19.1646 7.86086 23.38 5.85606 29.0332 4.73186C30.4794 4.43926 31.927 4.16206 33.3886 3.89186C34.1077 3.71541 34.565 3.00956 34.4322 2.28114C34.2995 1.55273 33.6225 1.05364 32.8874 1.14226C31.4108 1.40919 29.9427 1.68919 28.483 1.98226C22.1704 3.24226 17.5826 5.45566 14.4508 8.76526C11.9803 11.4087 10.0702 14.5246 8.83536 17.9255C8.33102 19.3902 7.91678 20.8845 7.59496 22.3999L7.45496 22.9907C7.15616 24.0887 6.75542 25.1564 6.25796 26.1799C5.97796 26.8183 5.68676 27.4567 5.43616 28.1175C5.11395 28.853 4.98666 29.6592 5.06656 30.4583C5.34826 31.7129 6.07237 32.8242 7.10637 33.5887C7.79097 34.2159 8.24037 34.6583 8.24597 35.0433C8.19587 35.2561 8.11574 35.4607 8.00796 35.6509C6.33143 39.1806 4.27781 42.5185 1.88296 45.6063C0.867965 46.8411 -0.196035 48.2817 0.0279647 49.7237C0.324932 50.8361 1.05774 51.7819 2.06076 52.3473Z" fill="url(#paint1_linear)"/>
<path d="M54.3466 1.75812C53.8742 1.59357 53.3498 1.69354 52.9711 2.02038C52.5924 2.34722 52.4168 2.85128 52.5105 3.34268C52.6042 3.83408 52.953 4.23817 53.4254 4.40272C55.8474 5.26111 58.1599 6.40205 60.3148 7.80192C60.9666 8.2179 61.8322 8.02673 62.2482 7.37492C62.6642 6.72312 62.473 5.8575 61.8212 5.44152C59.483 3.92439 56.9741 2.68806 54.3466 1.75812Z" fill="url(#paint2_linear)"/>
<path d="M15.6338 24.9199L15.7738 24.3109C16.0194 23.1412 16.3321 21.9866 16.7104 20.8529C17.5547 18.5162 18.8612 16.3735 20.552 14.5529C22.3665 12.8423 24.5874 11.6227 27.0046 11.0095C27.4926 10.872 27.8682 10.4813 27.9863 9.98817C28.1044 9.49506 27.9467 8.97661 27.574 8.63284C27.2012 8.28908 26.6717 8.17373 26.1898 8.33131C23.3049 9.08101 20.6621 10.5618 18.5164 12.6307C16.5668 14.7244 15.0597 17.19 14.0854 19.8799C13.6656 21.1212 13.3197 22.3862 13.0494 23.6683L12.9094 24.2745C12.7898 24.7634 12.9419 25.2788 13.3076 25.6244C13.6734 25.9701 14.1965 26.0929 14.6779 25.9461C15.1592 25.7992 15.5247 25.4053 15.6352 24.9143L15.6338 24.9199Z" fill="url(#paint3_linear)"/>
<path d="M12.6 30.7998C13.3732 30.7998 14 30.173 14 29.3998C14 28.6266 13.3732 27.9998 12.6 27.9998C11.8268 27.9998 11.2 28.6266 11.2 29.3998C11.2 30.173 11.8268 30.7998 12.6 30.7998Z" fill="url(#paint4_linear)"/>
<path d="M51.8 21C47.9359 21.0046 44.8046 24.1359 44.8 28C44.8 28.7732 45.4268 29.4 46.2 29.4C46.9732 29.4 47.6 28.7732 47.6 28C47.6 25.6804 49.4804 23.8 51.8 23.8C52.5732 23.8 53.2 23.1732 53.2 22.4C53.2 21.6268 52.5732 21 51.8 21Z" fill="url(#paint5_linear)"/>
<path d="M77 44.7999C75.5592 44.8018 74.1546 45.2514 72.9806 46.0865L61.8548 35.5599C65.02 31.3918 65.2535 25.6931 62.44 21.2799L67.2168 17.4579C70.4703 20.3414 75.3903 20.2521 78.537 17.2523C81.6836 14.2525 82.0079 9.34239 79.2831 5.95483C76.5583 2.56728 71.6928 1.83163 68.0883 4.26223C64.4838 6.69283 63.342 11.4794 65.4612 15.2753L60.7012 19.0861C57.5055 15.8729 52.8211 14.6409 48.4582 15.8661L47.243 12.8421C50.135 10.9308 51.188 7.18784 49.7168 4.04899C48.2455 0.910136 44.6951 -0.675096 41.3759 0.32489C38.0568 1.32488 35.9729 4.60758 36.4805 8.03677C36.988 11.466 39.9334 14.0043 43.4 13.9999C43.8158 13.9948 44.2304 13.9532 44.639 13.8753L45.8528 16.8965C40.5028 19.7567 37.9541 26.0261 39.7908 31.8079L33.6 34.5603C31.1522 30.8278 26.2505 29.5973 22.33 31.7311C18.4096 33.865 16.7817 38.6494 18.5873 42.7315C20.3928 46.8135 25.0279 48.8278 29.2441 47.3626C33.4603 45.8975 35.8475 41.443 34.7326 37.1209L40.9458 34.3601C42.4711 36.9559 44.8722 38.9226 47.7176 39.9069L46.004 47.6195C43.1682 47.7031 40.8375 49.8832 40.565 52.7071C40.2926 55.531 42.1635 58.1166 44.931 58.7407C47.6985 59.3649 50.4981 57.8326 51.4641 55.1652C52.4301 52.4977 51.2608 49.5281 48.7354 48.2355L50.4448 40.5243C50.8948 40.5735 51.3472 40.5988 51.8 40.5999C54.7823 40.6011 57.6673 39.5388 59.9368 37.6039L71.0654 48.1319C70.3736 49.2306 70.0045 50.5016 70 51.7999C70 55.6659 73.134 58.7999 77 58.7999C80.866 58.7999 84 55.6659 84 51.7999C84 47.9339 80.866 44.7999 77 44.7999ZM39.2 6.99991C39.1962 4.88437 40.7666 3.09625 42.8649 2.82672C44.9632 2.55719 46.9344 3.89037 47.4655 5.93818C47.9965 7.98599 46.9216 10.1091 44.9568 10.8933H44.9484C44.4565 11.0933 43.9309 11.1974 43.4 11.1999C42.2861 11.1999 41.2178 10.7574 40.4301 9.96976C39.6425 9.1821 39.2 8.11382 39.2 6.99991ZM26.6 44.7999C23.5072 44.7999 21 42.2927 21 39.1999C21 36.1071 23.5072 33.5999 26.6 33.5999C29.6928 33.5999 32.2 36.1071 32.2 39.1999C32.2 42.2927 29.6928 44.7999 26.6 44.7999ZM46.2 55.9999C44.6536 55.9999 43.4 54.7463 43.4 53.1999C43.4 51.6535 44.6536 50.3999 46.2 50.3999C47.7464 50.3999 49 51.6535 49 53.1999C49 54.7463 47.7464 55.9999 46.2 55.9999ZM72.8 5.59991C75.8928 5.59991 78.4 8.10711 78.4 11.1999C78.4 14.2927 75.8928 16.7999 72.8 16.7999C69.7072 16.7999 67.2 14.2927 67.2 11.1999C67.2 8.10711 69.7072 5.59991 72.8 5.59991ZM42 27.9999C42 22.5875 46.3876 18.1999 51.8 18.1999C57.2124 18.1999 61.6 22.5875 61.6 27.9999C61.6 33.4123 57.2124 37.7999 51.8 37.7999C46.3901 37.7937 42.0061 33.4097 42 27.9999ZM77 55.9999C74.6804 55.9999 72.8 54.1195 72.8 51.7999C72.8 49.4803 74.6804 47.5999 77 47.5999C79.3196 47.5999 81.2 49.4803 81.2 51.7999C81.2 54.1195 79.3196 55.9999 77 55.9999Z" fill="url(#paint6_linear)"/>
</g>
<defs>
<linearGradient id="paint0_linear" x1="73.4414" y1="22.3718" x2="73.4414" y2="42.0267" gradientUnits="userSpaceOnUse">
<stop stop-color="#268AFF"/>
<stop offset="1" stop-color="#26CBFF"/>
</linearGradient>
<linearGradient id="paint1_linear" x1="34.9135" y1="1.13208" x2="34.9135" y2="83.9999" gradientUnits="userSpaceOnUse">
<stop stop-color="#268AFF"/>
<stop offset="1" stop-color="#26CBFF"/>
</linearGradient>
<linearGradient id="paint2_linear" x1="57.477" y1="1.68018" x2="57.477" y2="8.02196" gradientUnits="userSpaceOnUse">
<stop stop-color="#268AFF"/>
<stop offset="1" stop-color="#26CBFF"/>
</linearGradient>
<linearGradient id="paint3_linear" x1="20.4471" y1="8.26196" x2="20.4471" y2="26.007" gradientUnits="userSpaceOnUse">
<stop stop-color="#268AFF"/>
<stop offset="1" stop-color="#26CBFF"/>
</linearGradient>
<linearGradient id="paint4_linear" x1="12.6" y1="27.9998" x2="12.6" y2="30.7998" gradientUnits="userSpaceOnUse">
<stop stop-color="#268AFF"/>
<stop offset="1" stop-color="#26CBFF"/>
</linearGradient>
<linearGradient id="paint5_linear" x1="49" y1="21" x2="49" y2="29.4" gradientUnits="userSpaceOnUse">
<stop stop-color="#268AFF"/>
<stop offset="1" stop-color="#26CBFF"/>
</linearGradient>
<linearGradient id="paint6_linear" x1="50.9264" y1="0.0268555" x2="50.9264" y2="58.8795" gradientUnits="userSpaceOnUse">
<stop stop-color="#268AFF"/>
<stop offset="1" stop-color="#26CBFF"/>
</linearGradient>
<clipPath id="clip0">
<rect width="84" height="84" fill="white"/>
</clipPath>
</defs>
</svg>
