<svg width="97" height="97" viewBox="0 0 97 97" fill="none" xmlns="http://www.w3.org/2000/svg">
<g clip-path="url(#clip0)">
<path d="M82.24 73.0496H61.4003V63.5769C61.4003 60.443 58.8507 57.8933 55.7168 57.8933H36.7716C33.6377 57.8933 31.0881 60.443 31.0881 63.5769V65.4716H10.2484C7.11446 65.4716 4.56482 68.0212 4.56482 71.1551V105.257C4.56482 106.303 5.41299 107.151 6.45934 107.151H86.029C87.0754 107.151 87.9235 106.303 87.9235 105.257V78.7332C87.9235 75.5993 85.3739 73.0496 82.24 73.0496ZM57.6113 103.362H34.8771V98.625C34.8771 97.5787 34.0289 96.7305 32.9826 96.7305C31.9362 96.7305 31.0881 97.5787 31.0881 98.625V103.362H8.35385V71.1549C8.35385 70.1103 9.20373 69.2604 10.2484 69.2604H31.0881V81.5744C31.0881 82.6207 31.9362 83.4689 32.9826 83.4689C34.0289 83.4689 34.8771 82.6207 34.8771 81.5744V63.5767C34.8771 62.532 35.727 61.6822 36.7716 61.6822H55.7168C56.7614 61.6822 57.6113 62.532 57.6113 63.5767V103.362ZM84.1345 103.362H61.4003V76.8387H82.24C83.2846 76.8387 84.1345 77.6885 84.1345 78.7332V103.362Z" fill="url(#paint0_linear)"/>
<path d="M77.5081 86.3113C77.5081 83.1773 74.9663 80.6277 71.842 80.6277C70.185 80.6277 68.6162 81.3523 67.5374 82.6156C66.858 83.4113 66.9524 84.6072 67.7479 85.2867C68.5438 85.9661 69.7394 85.8719 70.419 85.0762C70.7767 84.6574 71.2954 84.4169 71.842 84.4169C72.877 84.4169 73.7191 85.2668 73.7191 86.3115C73.7191 86.8262 73.5177 87.3078 73.1524 87.6676C72.7483 88.0654 72.5437 88.6234 72.5949 89.1881C72.646 89.7529 72.9472 90.2652 73.4161 90.584C74.1963 91.1147 74.662 91.9962 74.662 92.9423C74.662 94.5093 73.397 95.7841 71.8422 95.7841C71.2185 95.7841 70.6278 95.5831 70.1337 95.2031C69.3044 94.5652 68.1151 94.7204 67.4768 95.5494C66.8387 96.3786 66.9939 97.5682 67.8231 98.2063C68.9856 99.1007 70.3752 99.5734 71.8422 99.5734C75.4863 99.5734 78.451 96.5988 78.451 92.9425C78.451 91.3945 77.9143 89.9198 76.9635 88.7509C77.3202 87.9987 77.5081 87.1703 77.5081 86.3113Z" fill="url(#paint1_linear)"/>
<path d="M23.5097 88.2061H18.9444C19.3618 87.8224 19.8847 87.4117 20.4949 86.9407C22.6617 85.269 25.358 83.1884 25.404 79.2694C25.4378 76.391 23.5968 73.9054 20.9273 73.2245C18.3751 72.5739 15.8867 73.7354 14.5878 76.1841C14.0975 77.1085 14.4495 78.2552 15.3738 78.7455C16.2983 79.2358 17.4449 78.8838 17.9352 77.9595C18.5805 76.7428 19.5003 76.7712 19.991 76.8961C20.8107 77.1052 21.6309 77.9064 21.6153 79.225C21.5926 81.1692 20.3024 82.3037 18.1806 83.9409C16.2387 85.4393 14.0376 87.1376 14.0376 90.1006C14.0376 91.1469 14.8858 91.9951 15.9321 91.9951H23.5097C24.556 91.9951 25.4042 91.1469 25.4042 90.1006C25.4042 89.0542 24.556 88.2061 23.5097 88.2061Z" fill="url(#paint2_linear)"/>
<path d="M48.3447 80.6277H48.1388V67.3662C48.1388 66.6893 47.7777 66.0639 47.1915 65.7255C46.6055 65.387 45.8833 65.3872 45.297 65.7255L43.1965 66.9382C42.2903 67.4613 41.9798 68.62 42.5031 69.5261C42.8903 70.1968 43.6262 70.5407 44.3497 70.4626V80.6277H44.1438C43.0974 80.6277 42.2492 81.4759 42.2492 82.5223C42.2492 83.5686 43.0974 84.4168 44.1438 84.4168H48.3447C49.391 84.4168 50.2392 83.5686 50.2392 82.5223C50.2392 81.4759 49.391 80.6277 48.3447 80.6277Z" fill="url(#paint3_linear)"/>
<path d="M33.4858 38.0212L32.536 45.2624C32.3373 46.3076 32.4784 47.3647 32.9458 48.3245C33.7949 50.0682 35.5468 51.084 37.3672 51.084C38.0873 51.084 38.8186 50.9249 39.5082 50.589L46.1676 47.3475L53.0101 50.6072C53.8721 51.0187 54.8349 51.1659 55.7943 51.0333C57.092 50.8539 58.242 50.1798 59.0327 49.1352C59.8233 48.0905 60.1598 46.8007 59.98 45.5005L58.9537 38.1568L64.0093 32.8245C64.7691 32.097 65.2659 31.1651 65.4472 30.1256C65.6726 28.8339 65.3816 27.5318 64.6278 26.4589C63.874 25.3861 62.7473 24.6711 61.4604 24.4464L54.1625 23.1536L50.5445 16.4983C50.5445 16.4979 50.5444 16.4978 50.5442 16.4974C50.0853 15.6543 49.3946 14.9698 48.5466 14.5174C47.3919 13.9017 46.0665 13.7723 44.8144 14.1533C43.5625 14.5343 42.5338 15.3802 41.9175 16.5356L38.4331 23.0765L31.1023 24.4386C30.108 24.5957 29.199 25.0477 28.471 25.7479C27.5271 26.6558 26.9934 27.877 26.968 29.1865C26.9427 30.496 27.4288 31.7369 28.3382 32.6822L33.4858 38.0212ZM31.0979 28.4789C31.3095 28.2752 31.5433 28.204 31.7019 28.1801C31.7235 28.1769 31.7449 28.1733 31.7663 28.1693L40.0224 26.6351C40.5892 26.5298 41.0773 26.1721 41.3484 25.6632L45.2613 18.318C45.4007 18.0564 45.634 17.8646 45.9178 17.7783C46.0246 17.7457 46.1339 17.7296 46.2425 17.7296C46.4223 17.7296 46.6005 17.7737 46.7635 17.8607C46.9561 17.9633 47.1126 18.1183 47.2163 18.3087L51.2696 25.7646C51.5449 26.2712 52.0359 26.6247 52.6037 26.7253L60.8047 28.178C61.0993 28.2294 61.3562 28.3925 61.5282 28.6372C61.7002 28.882 61.7665 29.1791 61.7152 29.4741C61.6618 29.7796 61.502 29.9824 61.3776 30.0985C61.3493 30.1248 61.3219 30.1521 61.2952 30.1801L55.5768 36.2117C55.18 36.63 54.9955 37.2063 55.0753 37.7773L56.2273 46.0219C56.2681 46.3171 56.1917 46.6103 56.0117 46.8479C55.8319 47.0853 55.5705 47.2387 55.2755 47.2795C55.0529 47.3104 54.8335 47.2783 54.6411 47.1866L46.9738 43.534C46.4531 43.286 45.8482 43.2887 45.3299 43.541L37.85 47.1819C37.2947 47.4526 36.6229 47.2207 36.3525 46.6653C36.2146 46.382 36.2273 46.1206 36.2622 45.951C36.2714 45.906 36.279 45.8607 36.2851 45.815L37.3614 37.6089C37.4364 37.0373 37.2469 36.4627 36.8468 36.0476L31.0676 30.0536C30.8615 29.8391 30.751 29.5572 30.7567 29.2596C30.7624 28.9625 30.8834 28.685 31.0979 28.4789Z" fill="url(#paint4_linear)"/>
<path d="M16.5952 13.6866L24.0737 18.0043C24.372 18.1767 24.6977 18.2585 25.0192 18.2585C25.674 18.2585 26.3107 17.9187 26.6616 17.3109C27.1849 16.4047 26.8743 15.246 25.9682 14.723L18.4897 10.4053C17.5837 9.88205 16.4249 10.1926 15.9018 11.0987C15.3785 12.0049 15.689 13.1636 16.5952 13.6866Z" fill="url(#paint5_linear)"/>
<path d="M11.1281 36.3996C11.2189 36.3996 11.3108 36.3929 11.4034 36.3797L19.9487 35.1363C20.984 34.9857 21.7013 34.024 21.5507 32.9887C21.3999 31.9533 20.439 31.2362 19.4031 31.3866L10.8578 32.63C9.82241 32.7806 9.10514 33.7423 9.25576 34.7777C9.39311 35.7206 10.2026 36.3996 11.1281 36.3996Z" fill="url(#paint6_linear)"/>
<path d="M24.1451 47.9272L18.039 54.0333C17.2992 54.7731 17.2992 55.9727 18.039 56.7128C18.409 57.0828 18.8938 57.2677 19.3786 57.2677C19.8634 57.2677 20.3484 57.0828 20.7182 56.7128L26.8243 50.6067C27.5641 49.8669 27.5641 48.6672 26.8243 47.9272C26.0845 47.1872 24.8849 47.1874 24.1451 47.9272Z" fill="url(#paint7_linear)"/>
<path d="M67.4696 18.2586C67.7909 18.2586 68.1167 18.1765 68.4151 18.0043L75.8936 13.6867C76.7997 13.1636 77.1103 12.0049 76.587 11.0988C76.0637 10.1924 74.9052 9.88209 73.9991 10.4054L66.5206 14.723C65.6144 15.2461 65.3039 16.4048 65.8272 17.3109C66.1779 17.9187 66.8148 18.2586 67.4696 18.2586Z" fill="url(#paint8_linear)"/>
<path d="M70.9379 32.9883C70.7873 34.0236 71.5045 34.9853 72.5399 35.1359L81.0852 36.3793C81.1776 36.3927 81.2695 36.3992 81.3605 36.3992C82.2859 36.3992 83.0957 35.7202 83.2328 34.7771C83.3834 33.7417 82.6662 32.7801 81.6308 32.6294L73.0855 31.3861C72.0509 31.236 71.0885 31.9529 70.9379 32.9883Z" fill="url(#paint9_linear)"/>
<path d="M65.6639 47.9272C64.9241 48.667 64.9241 49.8666 65.6639 50.6066L71.77 56.7127C72.14 57.0827 72.6248 57.2676 73.1096 57.2676C73.5944 57.2676 74.0794 57.0827 74.4493 56.7127C75.1891 55.9729 75.1891 54.7733 74.4493 54.0333L68.3432 47.9272C67.6036 47.1874 66.4039 47.1874 65.6639 47.9272Z" fill="url(#paint10_linear)"/>
<path d="M32.9825 88.2051C31.9362 88.2051 31.088 89.0538 31.088 90.1002C31.088 91.1465 31.9362 91.9947 32.9825 91.9947C34.0289 91.9947 34.8771 91.1465 34.8771 90.1002V90.0989C34.8771 89.0527 34.0289 88.2051 32.9825 88.2051Z" fill="url(#paint11_linear)"/>
</g>
<defs>
<linearGradient id="paint0_linear" x1="46.2442" y1="57.8933" x2="46.2442" y2="107.151" gradientUnits="userSpaceOnUse">
<stop stop-color="#26A4FF"/>
<stop offset="1" stop-color="#26CBFF"/>
</linearGradient>
<linearGradient id="paint1_linear" x1="72.7674" y1="80.6277" x2="72.7674" y2="99.5734" gradientUnits="userSpaceOnUse">
<stop stop-color="#26A4FF"/>
<stop offset="1" stop-color="#26CBFF"/>
</linearGradient>
<linearGradient id="paint2_linear" x1="19.721" y1="73.0461" x2="19.721" y2="91.9951" gradientUnits="userSpaceOnUse">
<stop stop-color="#26A4FF"/>
<stop offset="1" stop-color="#26CBFF"/>
</linearGradient>
<linearGradient id="paint3_linear" x1="46.2441" y1="65.4717" x2="46.2441" y2="84.4168" gradientUnits="userSpaceOnUse">
<stop stop-color="#26A4FF"/>
<stop offset="1" stop-color="#26CBFF"/>
</linearGradient>
<linearGradient id="paint4_linear" x1="46.2443" y1="13.9387" x2="46.2443" y2="51.084" gradientUnits="userSpaceOnUse">
<stop stop-color="#26A4FF"/>
<stop offset="1" stop-color="#26CBFF"/>
</linearGradient>
<linearGradient id="paint5_linear" x1="21.2817" y1="10.1511" x2="21.2817" y2="18.2585" gradientUnits="userSpaceOnUse">
<stop stop-color="#26A4FF"/>
<stop offset="1" stop-color="#26CBFF"/>
</linearGradient>
<linearGradient id="paint6_linear" x1="15.4032" y1="31.3667" x2="15.4032" y2="36.3996" gradientUnits="userSpaceOnUse">
<stop stop-color="#26A4FF"/>
<stop offset="1" stop-color="#26CBFF"/>
</linearGradient>
<linearGradient id="paint7_linear" x1="22.4317" y1="47.3723" x2="22.4317" y2="57.2677" gradientUnits="userSpaceOnUse">
<stop stop-color="#26A4FF"/>
<stop offset="1" stop-color="#26CBFF"/>
</linearGradient>
<linearGradient id="paint8_linear" x1="71.2071" y1="10.1511" x2="71.2071" y2="18.2586" gradientUnits="userSpaceOnUse">
<stop stop-color="#26A4FF"/>
<stop offset="1" stop-color="#26CBFF"/>
</linearGradient>
<linearGradient id="paint9_linear" x1="77.0854" y1="31.3662" x2="77.0854" y2="36.3992" gradientUnits="userSpaceOnUse">
<stop stop-color="#26A4FF"/>
<stop offset="1" stop-color="#26CBFF"/>
</linearGradient>
<linearGradient id="paint10_linear" x1="70.0566" y1="47.3723" x2="70.0566" y2="57.2676" gradientUnits="userSpaceOnUse">
<stop stop-color="#26A4FF"/>
<stop offset="1" stop-color="#26CBFF"/>
</linearGradient>
<linearGradient id="paint11_linear" x1="32.9825" y1="88.2051" x2="32.9825" y2="91.9947" gradientUnits="userSpaceOnUse">
<stop stop-color="#26A4FF"/>
<stop offset="1" stop-color="#26CBFF"/>
</linearGradient>
<clipPath id="clip0">
<rect width="97" height="97" fill="white"/>
</clipPath>
</defs>
</svg>
