<svg width="78" height="78" viewBox="0 0 78 78" fill="none" xmlns="http://www.w3.org/2000/svg">
<path d="M7.5484 25.1614H12.5807V27.6775H7.5484V25.1614Z" fill="url(#paint0_linear)"/>
<path d="M74.2258 20.129C76.3064 20.129 78 18.4354 78 16.3548V3.77419C78 1.6936 76.3064 0 74.2258 0H56.6129C54.5323 0 52.8387 1.6936 52.8387 3.77419V16.3548C52.8387 18.4354 54.5323 20.129 56.6129 20.129H60.3871V22.6452H57.871V25.1613H64.1613V37.7419H58.9693C57.9656 36.7621 56.7296 36.0121 55.3462 35.5993C55.3524 35.4721 55.3548 35.3493 55.3548 35.2258C55.3548 29.6763 50.8398 25.1613 45.2903 25.1613C41.8472 25.1613 38.6468 26.9526 36.8137 29.8176C35.5225 29.2377 34.1262 28.9355 32.7097 28.9355C28.5344 28.9355 24.7749 31.5671 23.3043 35.4273C22.3485 35.6325 21.4577 35.9998 20.6487 36.4839H11.3226V32.7097H16.3548C18.4354 32.7097 20.129 31.0161 20.129 28.9355V3.77419C20.129 1.6936 18.4354 0 16.3548 0H3.77419C1.6936 0 0 1.6936 0 3.77419V28.9355C0 31.0161 1.6936 32.7097 3.77419 32.7097H8.80645V39H17.9729C17.4378 39.7636 17.0226 40.6064 16.7498 41.5161H11.3226V55.3548H6.29032C4.20972 55.3548 2.51613 57.0484 2.51613 59.129V70.4516H0V74.2258C0 76.3064 1.6936 78 3.77419 78H23.9032C25.9838 78 27.6774 76.3064 27.6774 74.2258V70.4516H25.1613V59.129C25.1613 57.0484 23.4677 55.3548 21.3871 55.3548H13.8387V44.0323H16.3548C16.3548 48.887 20.3066 52.8387 25.1613 52.8387H52.8387C57.2659 52.8387 60.9307 49.5504 61.5444 45.2903H66.6774V55.3548H57.871V78H78V55.3548H69.1936V42.7742H61.5395C61.4087 41.8884 61.1371 41.0456 60.7569 40.2581H66.6774V25.1613H72.9677V22.6452H70.4516V20.129H74.2258ZM17.6129 20.129H2.51613V7.54839H17.6129V20.129ZM3.77419 2.51613H16.3548C17.049 2.51613 17.6129 3.08005 17.6129 3.77419V5.03226H2.51613V3.77419C2.51613 3.08005 3.08005 2.51613 3.77419 2.51613ZM2.51613 28.9355V22.6452H17.6129V28.9355C17.6129 29.6296 17.049 30.1935 16.3548 30.1935H3.77419C3.08005 30.1935 2.51613 29.6296 2.51613 28.9355ZM25.1613 74.2258C25.1613 74.92 24.5974 75.4839 23.9032 75.4839H3.77419C3.08005 75.4839 2.51613 74.92 2.51613 74.2258V72.9677H25.1613V74.2258ZM22.6452 59.129V70.4516H5.03226V59.129C5.03226 58.4349 5.59618 57.871 6.29032 57.871H21.3871C22.0812 57.871 22.6452 58.4349 22.6452 59.129ZM60.3871 75.4839V67.9355H75.4839V75.4839H60.3871ZM75.4839 65.4194H60.3871V57.871H75.4839V65.4194ZM52.8387 50.3226H25.1613C21.693 50.3226 18.871 47.5005 18.871 44.0323C18.871 40.8521 21.2513 38.1695 24.4063 37.7923L25.2319 37.6928L25.4647 36.8942C26.3954 33.6895 29.3759 31.4516 32.7097 31.4516C34.0986 31.4516 35.4623 31.8417 36.6577 32.5776L37.8587 33.3184L38.4576 32.0389C39.696 29.3882 42.378 27.6774 45.2903 27.6774C49.4534 27.6774 52.8387 31.0628 52.8387 35.2258C52.8387 35.5729 52.8074 35.9427 52.7392 36.3893L52.5494 37.6338L53.7933 37.8224C56.8353 38.2868 59.129 40.9565 59.129 44.0323C59.129 47.5005 56.307 50.3226 52.8387 50.3226ZM56.6129 2.51613H74.2258C74.92 2.51613 75.4839 3.08005 75.4839 3.77419V12.5806H55.3548V3.77419C55.3548 3.08005 55.9188 2.51613 56.6129 2.51613ZM55.3548 16.3548V15.0968H75.4839V16.3548C75.4839 17.049 74.92 17.6129 74.2258 17.6129H56.6129C55.9188 17.6129 55.3548 17.049 55.3548 16.3548ZM67.9355 22.6452H62.9032V20.129H67.9355V22.6452Z" fill="url(#paint1_linear)"/>
<path d="M62.9032 60.3872H65.4193V62.9033H62.9032V60.3872Z" fill="url(#paint2_linear)"/>
<path d="M70.4516 70.4517H72.9677V72.9678H70.4516V70.4517Z" fill="url(#paint3_linear)"/>
<path d="M67.9355 60.3872H72.9677V62.9033H67.9355V60.3872Z" fill="url(#paint4_linear)"/>
<path d="M62.9032 70.4517H67.9355V72.9678H62.9032V70.4517Z" fill="url(#paint5_linear)"/>
<defs>
<linearGradient id="paint0_linear" x1="10.0645" y1="25.1614" x2="10.0645" y2="27.6775" gradientUnits="userSpaceOnUse">
<stop stop-color="#268AFF"/>
<stop offset="1" stop-color="#26CBFF"/>
</linearGradient>
<linearGradient id="paint1_linear" x1="39" y1="0" x2="39" y2="78" gradientUnits="userSpaceOnUse">
<stop stop-color="#268AFF"/>
<stop offset="1" stop-color="#26CBFF"/>
</linearGradient>
<linearGradient id="paint2_linear" x1="64.1613" y1="60.3872" x2="64.1613" y2="62.9033" gradientUnits="userSpaceOnUse">
<stop stop-color="#268AFF"/>
<stop offset="1" stop-color="#26CBFF"/>
</linearGradient>
<linearGradient id="paint3_linear" x1="71.7097" y1="70.4517" x2="71.7097" y2="72.9678" gradientUnits="userSpaceOnUse">
<stop stop-color="#268AFF"/>
<stop offset="1" stop-color="#26CBFF"/>
</linearGradient>
<linearGradient id="paint4_linear" x1="70.4516" y1="60.3872" x2="70.4516" y2="62.9033" gradientUnits="userSpaceOnUse">
<stop stop-color="#268AFF"/>
<stop offset="1" stop-color="#26CBFF"/>
</linearGradient>
<linearGradient id="paint5_linear" x1="65.4193" y1="70.4517" x2="65.4193" y2="72.9678" gradientUnits="userSpaceOnUse">
<stop stop-color="#268AFF"/>
<stop offset="1" stop-color="#26CBFF"/>
</linearGradient>
</defs>
</svg>
