<svg width="94" height="94" viewBox="0 0 94 94" fill="none" xmlns="http://www.w3.org/2000/svg">
<g clip-path="url(#clip0)">
<path d="M83.2569 43.9268H10.6649C5.59387 43.9268 1.46875 48.0519 1.46875 53.1229V84.8043C1.46875 89.8747 5.59387 93.9998 10.6649 93.9998H83.2569C88.328 93.9998 92.4531 89.8747 92.4531 84.8043V53.1229C92.4531 48.0519 88.328 43.9268 83.2569 43.9268ZM86.9453 84.8043C86.9453 86.8375 85.2908 88.492 83.2569 88.492H10.6649C8.63106 88.492 6.97656 86.8375 6.97656 84.8043V53.1229C6.97656 51.0891 8.63106 49.4346 10.6649 49.4346H83.2569C85.2908 49.4346 86.9453 51.0891 86.9453 53.1229V84.8043Z" fill="url(#paint0_linear)"/>
<path d="M46.9685 29.4927C49.1566 29.4927 51.3447 28.6615 53.0106 26.9984C54.6264 25.3862 55.5157 23.2419 55.5157 20.9606C55.5157 18.6793 54.6264 16.535 53.0106 14.9228C49.6787 11.5973 44.2576 11.5973 40.9257 14.9228C39.3099 16.535 38.4207 18.6793 38.4207 20.9606C38.4207 23.2419 39.3099 25.3862 40.9257 26.9984C42.5917 28.6615 44.7797 29.4927 46.9685 29.4927ZM44.8163 18.8206C45.4101 18.2282 46.189 17.9328 46.9685 17.9328C47.7474 17.9328 48.5262 18.2289 49.1193 18.8206C49.6923 19.3922 50.0079 20.1524 50.0079 20.9606C50.0079 21.7689 49.6923 22.5283 49.12 23.1006C47.9331 24.2847 46.0032 24.284 44.8163 23.1006C44.2433 22.5283 43.9285 21.7689 43.9285 20.9606C43.9285 20.1524 44.244 19.3929 44.8163 18.8206Z" fill="url(#paint1_linear)"/>
<path d="M57.031 33.0031C57.5688 33.5424 58.2745 33.8121 58.9802 33.8121C59.6845 33.8121 60.388 33.5439 60.9259 33.0074C64.1495 29.7895 65.9252 25.5117 65.9252 20.9605C65.9252 16.4094 64.1495 12.1308 60.9259 8.91363C59.8494 7.83932 58.1053 7.84076 57.031 8.91722C55.9566 9.99368 55.9588 11.7378 57.0353 12.8121C59.2162 14.9887 60.4174 17.8825 60.4174 20.9605C60.4174 24.0379 59.2162 26.9324 57.0353 29.1089C55.9588 30.1833 55.9566 31.9267 57.031 33.0031Z" fill="url(#paint2_linear)"/>
<path d="M32.9959 33.0076C33.5338 33.544 34.2373 33.8122 34.9416 33.8122C35.6473 33.8122 36.353 33.5426 36.8908 33.0033C37.9651 31.9268 37.963 30.1834 36.8865 29.1091C34.7056 26.9318 33.5044 24.038 33.5044 20.96C33.5044 17.8826 34.7056 14.9889 36.8865 12.8116C37.963 11.7372 37.9651 9.99382 36.8908 8.91736C35.8165 7.84018 34.0724 7.83875 32.9959 8.91306C29.7723 12.131 27.9973 16.4088 27.9966 20.96C27.9966 25.5111 29.7723 29.7897 32.9959 33.0076Z" fill="url(#paint3_linear)"/>
<path d="M25.4077 77.4722H18.0151V57.7007C18.0151 56.1796 16.7823 54.9468 15.2612 54.9468C13.7401 54.9468 12.5073 56.1796 12.5073 57.7007V80.2261C12.5073 81.7472 13.7401 82.98 15.2612 82.98H25.4077C26.928 82.98 28.1616 81.7472 28.1616 80.2261C28.1616 78.7057 26.928 77.4722 25.4077 77.4722Z" fill="url(#paint4_linear)"/>
<path d="M33.9398 54.9468C32.4187 54.9468 31.1859 56.1796 31.1859 57.7007V80.2261C31.1859 81.7472 32.4187 82.98 33.9398 82.98C35.4602 82.98 36.6937 81.7472 36.6937 80.2261V57.7007C36.6937 56.1796 35.4602 54.9468 33.9398 54.9468Z" fill="url(#paint5_linear)"/>
<path d="M58.0236 55.0646C56.5684 54.625 55.0308 55.449 54.5912 56.9049L50.4274 70.698L46.2628 56.9049C45.8232 55.4483 44.2863 54.625 42.8305 55.0646C41.3746 55.5042 40.5506 57.0411 40.9902 58.497L47.7911 81.0223C47.7918 81.0245 47.7925 81.0266 47.7932 81.0288C48.5427 83.427 52.2346 83.5725 53.0615 81.0288C53.0622 81.0266 53.0629 81.0252 53.0637 81.0223L59.8645 58.497C60.3041 57.0404 59.4794 55.5042 58.0236 55.0646Z" fill="url(#paint6_linear)"/>
<path d="M78.6605 60.4546C80.1816 60.4546 81.4144 59.2218 81.4144 57.7007C81.4144 56.1796 80.1816 54.9468 78.6605 54.9468H66.2371C64.716 54.9468 63.4832 56.1796 63.4832 57.7007V80.2261C63.4832 81.7472 64.716 82.98 66.2371 82.98H78.2897C79.8108 82.98 81.0436 81.7472 81.0436 80.2261C81.0436 78.7057 79.8108 77.4722 78.2897 77.4722H68.991V70.2991H76.8059C78.327 70.2991 79.5598 69.0663 79.5598 67.5452C79.5598 66.0241 78.327 64.7913 76.8059 64.7913H68.991V60.4546H78.6605Z" fill="url(#paint7_linear)"/>
<path d="M70.0116 20.9604C70.0116 27.1007 67.6155 32.8746 63.2645 37.217C62.188 38.2914 62.1859 40.0355 63.2602 41.112C63.7988 41.6505 64.5038 41.9202 65.2095 41.9202C65.9137 41.9202 66.6172 41.652 67.1551 41.1155C72.5489 35.7325 75.5194 28.5745 75.5194 20.9604C75.5194 13.347 72.5489 6.18826 67.1551 0.805236C66.0787 -0.269074 64.3352 -0.26764 63.2602 0.808822C62.1859 1.88528 62.188 3.62942 63.2645 4.70373C67.6155 9.04616 70.0116 14.8193 70.0116 20.9604Z" fill="url(#paint8_linear)"/>
<path d="M28.7124 41.9203C29.4181 41.9203 30.1238 41.6507 30.6617 41.1121C31.736 40.0356 31.7345 38.2915 30.6574 37.2172C26.3063 32.8748 23.9103 27.1009 23.9103 20.9598C23.9103 14.8195 26.3063 9.04558 30.6574 4.70316C31.7338 3.62885 31.736 1.88471 30.6617 0.808961C29.5866 -0.268218 27.8432 -0.269652 26.7667 0.804658C21.373 6.1884 18.4025 13.3464 18.4025 20.9598C18.4025 28.5739 21.373 35.7319 26.7667 41.1157C27.3046 41.6521 28.0082 41.9203 28.7124 41.9203Z" fill="url(#paint9_linear)"/>
</g>
<defs>
<linearGradient id="paint0_linear" x1="46.9609" y1="43.9268" x2="46.9609" y2="93.9998" gradientUnits="userSpaceOnUse">
<stop stop-color="#268AFF"/>
<stop offset="1" stop-color="#26D8FF"/>
</linearGradient>
<linearGradient id="paint1_linear" x1="46.9682" y1="12.4287" x2="46.9682" y2="29.4927" gradientUnits="userSpaceOnUse">
<stop stop-color="#268AFF"/>
<stop offset="1" stop-color="#26D8FF"/>
</linearGradient>
<linearGradient id="paint2_linear" x1="61.0759" y1="8.10889" x2="61.0759" y2="33.8121" gradientUnits="userSpaceOnUse">
<stop stop-color="#268AFF"/>
<stop offset="1" stop-color="#26D8FF"/>
</linearGradient>
<linearGradient id="paint3_linear" x1="32.8459" y1="8.1084" x2="32.8459" y2="33.8122" gradientUnits="userSpaceOnUse">
<stop stop-color="#268AFF"/>
<stop offset="1" stop-color="#26D8FF"/>
</linearGradient>
<linearGradient id="paint4_linear" x1="20.3344" y1="54.9468" x2="20.3344" y2="82.98" gradientUnits="userSpaceOnUse">
<stop stop-color="#268AFF"/>
<stop offset="1" stop-color="#26D8FF"/>
</linearGradient>
<linearGradient id="paint5_linear" x1="33.9398" y1="54.9468" x2="33.9398" y2="82.98" gradientUnits="userSpaceOnUse">
<stop stop-color="#268AFF"/>
<stop offset="1" stop-color="#26D8FF"/>
</linearGradient>
<linearGradient id="paint6_linear" x1="50.4273" y1="54.9463" x2="50.4273" y2="82.8824" gradientUnits="userSpaceOnUse">
<stop stop-color="#268AFF"/>
<stop offset="1" stop-color="#26D8FF"/>
</linearGradient>
<linearGradient id="paint7_linear" x1="72.4488" y1="54.9468" x2="72.4488" y2="82.98" gradientUnits="userSpaceOnUse">
<stop stop-color="#268AFF"/>
<stop offset="1" stop-color="#26D8FF"/>
</linearGradient>
<linearGradient id="paint8_linear" x1="68.9876" y1="0.000488281" x2="68.9876" y2="41.9202" gradientUnits="userSpaceOnUse">
<stop stop-color="#268AFF"/>
<stop offset="1" stop-color="#26D8FF"/>
</linearGradient>
<linearGradient id="paint9_linear" x1="24.9344" y1="0" x2="24.9344" y2="41.9203" gradientUnits="userSpaceOnUse">
<stop stop-color="#268AFF"/>
<stop offset="1" stop-color="#26D8FF"/>
</linearGradient>
<clipPath id="clip0">
<rect width="94" height="94" fill="white"/>
</clipPath>
</defs>
</svg>
