<svg width="88" height="88" viewBox="0 0 88 88" fill="none" xmlns="http://www.w3.org/2000/svg">
<g clip-path="url(#clip0)">
<path d="M75.6312 0H71.8477C70.1846 0 70.1846 2.5785 71.8477 2.5785H75.6312C79.5385 2.5785 82.7175 5.74592 82.7175 9.63911V39.4761C82.7175 43.3695 79.5387 46.5369 75.6312 46.5369H71.3401C71.057 46.5369 70.7818 46.6301 70.5568 46.8021L62.6827 52.8252V47.8262C62.6827 47.1141 62.1057 46.5369 61.3935 46.5369H45.7024C44.4175 46.5369 43.1826 46.1977 42.0934 45.5529V31.0804C42.0934 28.3695 40.7127 25.9744 38.616 24.5574V9.63911C38.616 5.74592 41.795 2.5785 45.7024 2.5785H63.7684C65.4314 2.5785 65.4314 0 63.7684 0H45.7024C40.3732 0 36.0375 4.32414 36.0375 9.63911V23.4243C35.4472 23.2833 34.8322 23.2065 34.1993 23.2065H10.5981C6.24541 23.2065 2.7041 26.7387 2.7041 31.0804V33.8643C2.7041 35.5272 5.2826 35.5272 5.2826 33.8643V31.0804C5.2826 28.1605 7.66702 25.785 10.5981 25.785H34.1994C37.1305 25.785 39.5151 28.1605 39.5151 31.0804V46.0662C39.4996 46.18 39.5003 46.2947 39.5151 46.4076V54.6093C39.5151 54.7714 39.5053 54.9328 39.4907 55.0934H36.8319C33.9022 55.0934 31.4599 57.2079 30.9534 59.987C30.8362 60.0312 30.7236 60.0929 30.6193 60.1734L24.8529 64.6258V61.1939C24.8529 60.4819 24.2758 59.9047 23.5636 59.9047H10.5981C7.66702 59.9047 5.2826 57.5292 5.2826 54.6093V41.5998C5.2826 39.9368 2.7041 39.9368 2.7041 41.5998V54.6095C2.7041 58.9512 6.24541 62.4834 10.5981 62.4834H22.2746V67.2501C22.2746 68.2843 23.5303 68.9047 24.3518 68.2707L30.8556 63.249V77.7531C30.8556 81.0406 33.5367 83.7151 36.8321 83.7151H44.7438V86.7235C44.7438 87.7573 45.9995 88.3784 46.8208 87.744L52.039 83.7151H53.5806C56.8759 83.7151 59.5571 81.0405 59.5571 77.7531V75.464C59.5571 73.8011 56.9786 73.8011 56.9786 75.464V77.7531C56.9786 79.6189 55.4543 81.1366 53.5806 81.1366H51.5991C51.3139 81.1366 51.0368 81.2311 50.8113 81.4052L47.3221 84.0991V82.4256C47.3221 81.7136 46.745 81.1364 46.0328 81.1364H36.8319C34.9584 81.1364 33.434 79.6185 33.434 77.7529V61.0556C33.434 59.1898 34.9582 57.6721 36.8319 57.6721H53.5806C55.4542 57.6721 56.9786 59.1899 56.9786 61.0556V67.3847C56.9786 69.0477 59.5571 69.0477 59.5571 67.3847V61.0557C59.5571 57.7682 56.8759 55.0937 53.5806 55.0937H42.0788C42.0886 54.9327 42.0936 48.4209 42.0936 48.4209C43.2304 48.878 44.4491 49.1156 45.7026 49.1156H60.1044V55.4346C60.1044 56.4662 61.3548 57.0873 62.177 56.4586L71.7769 49.1156H75.6314C80.9605 49.1156 85.2961 44.7914 85.2961 39.4763V9.63911C85.296 4.32414 80.9603 0 75.6312 0V0Z" fill="url(#paint0_linear)"/>
<path d="M63.8883 9.52529C62.2513 9.1074 60.5832 10.4008 60.5832 12.0923C60.5832 13.9404 59.9097 15.7214 58.6877 17.1064L55.1355 21.126C54.9055 20.773 54.5081 20.5394 54.0555 20.5394H47.121C46.4089 20.5394 45.8318 21.1167 45.8318 21.8287V37.4312C45.8318 38.1432 46.4089 38.7204 47.121 38.7204H54.0555C54.5765 38.7204 55.0241 38.4108 55.2275 37.9663C56.6314 38.8241 58.2583 39.2879 59.9135 39.2879H72.1686C74.0412 39.2879 75.5861 37.6629 75.4983 35.795C75.4592 34.9678 75.5019 23.8609 75.5019 23.6142C75.5019 21.7763 74.0065 20.2807 72.1723 20.2807L65.7995 20.2616L66.0634 19.6368C67.2692 16.781 67.0707 13.4695 65.5329 10.7781C65.174 10.1493 64.5897 9.70458 63.8883 9.52529C64.5897 9.70458 63.1866 9.34617 63.8883 9.52529C64.5897 9.70458 62.2515 9.1074 63.8883 9.52529ZM52.7662 36.1419H48.4103V23.1179H52.7662V36.1419ZM72.1686 22.859C72.5849 22.859 72.9236 23.1977 72.9236 23.614C72.9236 23.8593 72.921 24.5251 72.9175 25.4277C72.8985 30.4115 72.8857 35.1315 72.9225 35.916C72.9359 36.1992 72.7982 36.3879 72.715 36.4752C72.571 36.6262 72.3769 36.7092 72.1686 36.7092H59.9135C58.4527 36.7092 57.023 36.2029 55.8874 35.2838L55.3447 34.8444V24.783L60.6205 18.813C62.2592 16.9558 63.1617 14.569 63.1617 12.0921C63.1617 12.0192 63.2612 12.0003 63.2942 12.057C64.436 14.055 64.5831 16.5134 63.6881 18.6334L62.6706 21.0433C62.5026 21.4409 62.5449 21.8959 62.7827 22.2559C63.0207 22.6158 63.423 22.8327 63.8543 22.8341L72.1686 22.859Z" fill="url(#paint1_linear)"/>
<path d="M13.7436 44.7796C13.0314 44.7796 12.4543 45.3568 12.4543 46.0688C12.4543 46.7809 13.0314 47.3581 13.7436 47.3581H17.544L16.834 51.652C16.7178 52.3544 17.1933 53.0181 17.8957 53.1343C17.967 53.1461 18.0377 53.1518 18.1074 53.1518C18.727 53.1518 19.2734 52.704 19.378 52.0726L20.1574 47.3583H23.2675L22.5576 51.6522C22.4414 52.3545 22.9169 53.0182 23.6192 53.1344C23.6906 53.1463 23.7612 53.152 23.831 53.152C24.4505 53.152 24.997 52.7042 25.1015 52.0728L25.8809 47.3584H31.0539C31.7661 47.3584 32.3432 46.7812 32.3432 46.0692C32.3432 45.3572 31.7661 44.7799 31.0539 44.7799H26.3072L26.8272 41.6349H31.0539C31.7661 41.6349 32.3432 41.0576 32.3432 40.3456C32.3432 39.6336 31.7661 39.0564 31.0539 39.0564H27.2535L27.9635 34.7625C28.0797 34.0601 27.6042 33.3964 26.9018 33.2802C26.1986 33.1636 25.5358 33.6395 25.4195 34.3418L24.6402 39.0562H21.53L22.2399 34.7623C22.3561 34.0599 21.8806 33.3962 21.1783 33.28C20.4742 33.1635 19.8123 33.6393 19.696 34.3417L18.9166 39.056H13.7436C13.0314 39.056 12.4543 39.6333 12.4543 40.3453C12.4543 41.0573 13.0314 41.6345 13.7436 41.6345H18.4903L17.9703 44.7796H13.7436ZM21.1038 41.6345H24.214L23.694 44.7796H20.5838L21.1038 41.6345Z" fill="url(#paint2_linear)"/>
<path d="M45.1908 64.3243C44.1498 63.4672 42.7648 63.129 41.3755 63.4668C39.5951 63.8991 37.7986 65.5635 37.7986 68.3068C37.7986 70.0143 38.4217 71.4964 39.7036 72.8379C40.7506 73.9338 42.2616 74.9759 44.6026 76.217C44.7915 76.3172 44.999 76.3672 45.2064 76.3672C45.4139 76.3672 45.6214 76.3172 45.8103 76.217C49.8943 74.0519 52.6141 71.8782 52.6141 68.3068C52.6141 65.5485 50.7538 63.9012 48.91 63.4923C47.5249 63.1849 46.182 63.5112 45.1908 64.3243ZM50.0355 68.3068C50.0355 70.2331 48.7577 71.6577 45.2063 73.6127C41.6548 71.6575 40.3769 70.233 40.3769 68.3068C40.3769 66.8735 41.2068 66.1612 41.9837 65.9724C42.1269 65.9377 42.2802 65.9181 42.4378 65.9181C43.0221 65.9181 43.6645 66.188 44.0606 66.9559C44.2863 67.3928 44.7425 67.6637 45.2319 67.6536C45.7233 67.6438 46.1667 67.3554 46.3745 66.9098C46.7917 66.0156 47.6691 65.8583 48.3512 66.0097C49.1656 66.1901 50.0355 66.8885 50.0355 68.3068Z" fill="url(#paint3_linear)"/>
</g>
<defs>
<linearGradient id="paint0_linear" x1="44.0001" y1="0" x2="44.0001" y2="88.0001" gradientUnits="userSpaceOnUse">
<stop stop-color="#268AFF"/>
<stop offset="1" stop-color="#26D8FF"/>
</linearGradient>
<linearGradient id="paint1_linear" x1="60.6668" y1="9.37354" x2="60.6668" y2="39.2879" gradientUnits="userSpaceOnUse">
<stop stop-color="#268AFF"/>
<stop offset="1" stop-color="#26D8FF"/>
</linearGradient>
<linearGradient id="paint2_linear" x1="22.3988" y1="33.2625" x2="22.3988" y2="53.152" gradientUnits="userSpaceOnUse">
<stop stop-color="#268AFF"/>
<stop offset="1" stop-color="#26D8FF"/>
</linearGradient>
<linearGradient id="paint3_linear" x1="45.2064" y1="63.3376" x2="45.2064" y2="76.3672" gradientUnits="userSpaceOnUse">
<stop stop-color="#268AFF"/>
<stop offset="1" stop-color="#26D8FF"/>
</linearGradient>
<clipPath id="clip0">
<rect width="88" height="88" fill="white"/>
</clipPath>
</defs>
</svg>
