<svg width="102" height="102" viewBox="0 0 102 102" fill="none" xmlns="http://www.w3.org/2000/svg">
<g clip-path="url(#clip0)">
<path d="M97.0195 88.3461V82.0781C97.0195 80.9778 96.1276 80.0859 95.0273 80.0859H79.4883V74.1094C79.4883 73.0091 78.5964 72.1172 77.4961 72.1172H52.9922V67.9336C52.9922 66.8333 52.1003 65.9414 51 65.9414C49.8997 65.9414 49.0078 66.8333 49.0078 67.9336V72.1172H24.5039C23.4036 72.1172 22.5117 73.0091 22.5117 74.1094V80.0859H6.97266C5.87237 80.0859 4.98047 80.9778 4.98047 82.0781V88.3461C2.10375 89.2056 0 91.8749 0 95.0273C0 98.8721 3.12793 102 6.97266 102C10.8174 102 13.9453 98.8721 13.9453 95.0273C13.9453 91.8749 11.8416 89.2056 8.96484 88.3461V84.0703H40.043V88.3461C37.1662 89.2056 35.0625 91.8747 35.0625 95.0273C35.0625 98.8721 38.1904 102 42.0352 102C45.8799 102 49.0078 98.8721 49.0078 95.0273C49.0078 91.8749 46.9041 89.2056 44.0273 88.3461V82.0781C44.0273 80.9778 43.1354 80.0859 42.0352 80.0859H26.4961V76.1016H75.5039V80.0859H59.9648C58.8646 80.0859 57.9727 80.9778 57.9727 82.0781V88.3461C55.0959 89.2056 52.9922 91.8747 52.9922 95.0273C52.9922 98.8721 56.1201 102 59.9648 102C63.8096 102 66.9375 98.8721 66.9375 95.0273C66.9375 91.8749 64.8337 89.2056 61.957 88.3461V84.0703H93.0352V88.3461C90.1584 89.2056 88.0547 91.8747 88.0547 95.0273C88.0547 98.8721 91.1826 102 95.0273 102C98.8721 102 102 98.8721 102 95.0273C102 91.8749 99.8962 89.2056 97.0195 88.3461ZM9.96094 95.0273C9.96094 96.6751 8.62039 98.0156 6.97266 98.0156C5.32492 98.0156 3.98438 96.6751 3.98438 95.0273C3.98438 93.3796 5.32492 92.0391 6.97266 92.0391C8.62039 92.0391 9.96094 93.3796 9.96094 95.0273ZM45.0234 95.0273C45.0234 96.6751 43.6829 98.0156 42.0352 98.0156C40.3874 98.0156 39.0469 96.6751 39.0469 95.0273C39.0469 93.3796 40.3874 92.0391 42.0352 92.0391C43.6829 92.0391 45.0234 93.3796 45.0234 95.0273ZM62.9531 95.0273C62.9531 96.6751 61.6126 98.0156 59.9648 98.0156C58.3171 98.0156 56.9766 96.6751 56.9766 95.0273C56.9766 93.3796 58.3171 92.0391 59.9648 92.0391C61.6126 92.0391 62.9531 93.3796 62.9531 95.0273ZM95.0273 98.0156C93.3796 98.0156 92.0391 96.6751 92.0391 95.0273C92.0391 93.3796 93.3796 92.0391 95.0273 92.0391C96.6751 92.0391 98.0156 93.3796 98.0156 95.0273C98.0156 96.6751 96.6751 98.0156 95.0273 98.0156Z" fill="url(#paint0_linear)"/>
<path d="M51 61.957C52.1003 61.957 52.9922 61.0651 52.9922 59.9648C52.9922 58.8646 52.1003 57.9727 51 57.9727C49.8997 57.9727 49.0078 58.8646 49.0078 59.9648C49.0078 61.0651 49.8997 61.957 51 61.957Z" fill="url(#paint1_linear)"/>
<path d="M37.1946 26.826C38.674 30.3902 41.4945 33.2606 45.0235 34.8071V42.0352H38.0508C36.9505 42.0352 36.0586 42.9271 36.0586 44.0273V50.0039H31.0781C30.5542 50.0039 30.0402 50.2171 29.6697 50.5876C29.2991 50.9582 29.086 51.4721 29.086 51.9961V59.9648C29.086 60.4888 29.2991 61.0028 29.6697 61.3733C30.0402 61.7439 30.5542 61.957 31.0781 61.957H42.0352C43.1329 61.957 44.0274 61.0625 44.0274 59.9648C44.0274 58.8671 43.1329 57.9727 42.0352 57.9727H33.0703V53.9883H68.9297V57.9727H59.9649C58.8672 57.9727 57.9727 58.8671 57.9727 59.9648C57.9727 61.0625 58.8672 61.957 59.9649 61.957H70.9219C71.4458 61.957 71.9598 61.7439 72.3304 61.3733C72.7009 61.0028 72.9141 60.4888 72.9141 59.9648V51.9961C72.9141 51.4721 72.7009 50.9582 72.3304 50.5876C71.9598 50.2171 71.4458 50.0039 70.9219 50.0039H65.9414V44.0273C65.9414 42.9271 65.0495 42.0352 63.9492 42.0352H56.9766V34.8073C60.5059 33.2604 63.3269 30.3894 64.8061 26.8246C67.9362 26.5202 70.8833 25.2137 73.2235 23.0675C75.9145 20.6 77.5782 17.2374 77.8946 13.5995C77.8995 13.5421 77.8946 5.97656 77.8946 5.97656C77.8946 4.87628 77.0027 3.98438 75.9024 3.98438H65.9414V1.99219C65.9414 0.891902 65.0495 0 63.9492 0H38.0508C36.9505 0 36.0586 0.891902 36.0586 1.99219V3.98438H25.8985C24.7982 3.98438 23.9063 4.87628 23.9063 5.97656C23.9063 5.97656 23.9013 13.5421 23.9063 13.5995C24.5139 20.5859 30.2295 26.1534 37.1946 26.826ZM61.9571 50.0039H40.043V46.0195H61.9571V50.0039ZM52.9922 36.0586V42.0352H49.0078V36.0586H52.9922ZM51 32.0742C44.9583 32.0742 40.043 27.1589 40.043 21.1172V11.9531H61.9571V21.1172C61.9571 27.1589 57.0417 32.0742 51 32.0742ZM73.9102 7.96875V13.3367C73.4739 17.952 70.1886 21.6007 65.8657 22.6227C65.9155 22.1274 65.9414 21.6252 65.9414 21.117V7.96875H73.9102ZM40.043 3.98438H61.9571V7.96875H40.043V3.98438ZM27.8906 7.96875H36.0586V21.1172C36.0586 21.625 36.0845 22.1268 36.1343 22.6217C31.7487 21.5881 28.3231 17.8839 27.8906 13.3365V7.96875Z" fill="url(#paint2_linear)"/>
</g>
<defs>
<linearGradient id="paint0_linear" x1="51" y1="65.9414" x2="51" y2="102" gradientUnits="userSpaceOnUse">
<stop stop-color="#268AFF"/>
<stop offset="1" stop-color="#26D8FF"/>
</linearGradient>
<linearGradient id="paint1_linear" x1="51" y1="57.9727" x2="51" y2="61.957" gradientUnits="userSpaceOnUse">
<stop stop-color="#268AFF"/>
<stop offset="1" stop-color="#26D8FF"/>
</linearGradient>
<linearGradient id="paint2_linear" x1="50.9004" y1="0" x2="50.9004" y2="61.957" gradientUnits="userSpaceOnUse">
<stop stop-color="#268AFF"/>
<stop offset="1" stop-color="#26D8FF"/>
</linearGradient>
<clipPath id="clip0">
<rect width="102" height="102" fill="white"/>
</clipPath>
</defs>
</svg>
