<svg width="88" height="88" viewBox="0 0 88 88" fill="none" xmlns="http://www.w3.org/2000/svg">
<path d="M83.6 73.04C74.8464 68.398 68.1319 65.7951 62.1548 64.7972L62.7734 63.9468C63.0668 63.6534 63.2134 63.2134 63.0668 62.7734L61.6923 57.2756C62.1904 56.5715 62.6603 55.8434 63.1005 55.0949C68.5661 53.2347 71.33 50.0902 71.7944 45.4606C74.1952 45.3355 76.2666 43.1927 76.2666 40.7734V29.7734C76.2666 27.3651 74.3507 25.2309 71.8408 25.0881C71.5179 16.6153 67.782 0 44 0C20.2175 0 16.482 16.616 16.159 25.0886C13.778 25.2292 11.7334 27.2283 11.7334 29.7732V40.7732C11.7334 43.2666 13.9334 45.4666 16.5734 45.4666H18.7734C19.5819 45.4666 20.3589 45.2342 21.0358 44.8365C21.8675 49.2511 23.7029 53.5932 26.3079 57.2755L24.9334 62.7732C24.9334 63.0666 24.9334 63.5066 25.2268 63.9466L25.8454 64.7971C19.8682 65.7951 13.1538 68.3978 4.40017 73.0398C1.61339 74.36 0 77.1466 0 80.2266V86.5332C0 87.4134 0.586609 88 1.46661 88H36.6666H37.2532H50.7466H51.3332H86.5332C87.4132 88 87.9998 87.4134 87.9998 86.5334V80.2268C88 77.2934 86.24 74.5066 83.6 73.04ZM44.0081 69.6852L47.52 77.7334H40.431L44.0081 69.6852ZM39.3654 80.6666H48.6289L49.4875 85.0666H38.4852L39.3654 80.6666ZM59.4 60.1334L59.9866 62.7734L58.4884 64.8306C58.3928 64.9088 58.3043 65.0035 58.2266 65.12L52.1259 73.5671L50.1902 76.225L46.2363 67.3286C51.0587 66.7404 55.3532 64.2826 58.7964 60.7609C58.9999 60.5557 59.2013 60.3472 59.4 60.1334ZM65.127 51.0098C65.9543 48.9969 66.5778 46.9047 66.9721 44.7958C67.5305 45.134 68.1663 45.3601 68.8518 45.4367C68.5975 47.5099 67.6765 49.4672 65.127 51.0098ZM73.1866 29.6266V40.6266C73.1866 41.5066 72.4532 42.3866 71.4266 42.3866H69.2266C68.3466 42.3866 67.4666 41.6532 67.4666 40.6266V39.6V29.6266C67.4666 28.7466 68.2 27.8666 69.2266 27.8666H71.4266C72.3066 27.8666 73.1866 28.6 73.1866 29.6266ZM44 2.93339C53.0401 2.93339 68.2547 5.88449 68.9088 25.1039C68.2942 25.167 67.7055 25.3538 67.173 25.6408C65.3883 14.4722 55.6509 5.86661 44 5.86661C32.3507 5.86661 22.6143 14.4698 20.8276 25.636C20.3031 25.3528 19.7173 25.1656 19.091 25.1034C19.7455 5.88448 34.9601 2.93339 44 2.93339ZM20.3866 40.6266C20.3866 41.5066 19.6532 42.3866 18.6266 42.3866H16.4266C15.5466 42.3866 14.6666 41.6532 14.6666 40.6266V29.6266C14.6666 28.7466 15.4 27.8666 16.4266 27.8666H18.6266C19.5066 27.8666 20.3866 28.6 20.3866 29.6266V40.6266ZM23.4666 29.3334C23.4666 18.04 32.7066 8.8 44 8.8C55.2934 8.8 64.5334 18.04 64.5334 29.3334V39.6C64.5334 44.4524 63.2701 48.8948 61.222 52.6431C57.7213 53.6585 52.6852 54.2666 45.4668 54.2666C44.5868 54.2666 44.0002 54.8532 44.0002 55.7332C44.0002 56.6132 44.5868 57.1998 45.4668 57.1998C50.7511 57.1998 55.1705 56.8753 58.7897 56.1969C58.6998 56.2868 58.6099 56.3767 58.52 56.4666C57.7821 57.4504 57.0034 58.3474 56.1897 59.1563C52.7362 62.3736 48.6172 64.3225 44.648 64.5155C44.4482 64.4297 44.2243 64.3866 44 64.3866C43.7745 64.3866 43.5713 64.4308 43.3892 64.5174C40.9595 64.406 38.473 63.6359 36.1161 62.3186C33.7282 60.9467 31.482 58.9689 29.48 56.4666C29.3334 56.32 29.1866 56.1732 29.04 56.0266L28.9544 55.9981C25.6606 51.6782 23.4666 45.9951 23.4666 39.6V29.3334ZM41.7636 67.3286L37.8096 76.225L35.8739 73.5671L29.7732 65.12C29.7265 65.0732 29.6749 65.027 29.6213 64.9815L28.0132 62.7734L28.5998 60.1334C28.7983 60.3472 28.9998 60.5555 29.2029 60.7606C32.6463 64.2823 36.9411 66.7403 41.7636 67.3286ZM2.93339 80.2266C2.93339 78.32 3.96 76.56 5.72 75.68C15.0688 70.7135 21.7986 68.2208 27.7936 67.4762L36.5458 79.5106L35.4346 85.0666H2.93339V80.2266ZM85.0666 85.0666H52.5654L51.4542 79.5106L60.3013 67.3458C66.2752 68.2473 73.1258 70.7381 82.2802 75.5332C84.0402 76.5598 85.0668 78.3198 85.0668 80.2266V85.0666H85.0666Z" fill="url(#paint0_linear)"/>
<defs>
<linearGradient id="paint0_linear" x1="43.9999" y1="0" x2="43.9999" y2="88" gradientUnits="userSpaceOnUse">
<stop stop-color="#26A4FF"/>
<stop offset="1" stop-color="#26EDFF"/>
</linearGradient>
</defs>
</svg>
