<svg width="87" height="87" viewBox="0 0 87 87" fill="none" xmlns="http://www.w3.org/2000/svg">
<g clip-path="url(#clip0)">
<path d="M77.0569 40.6558H9.87074C5.17731 40.6558 1.35938 44.4737 1.35938 49.1671V78.4893C1.35938 83.182 5.17731 87 9.87074 87H77.0569C81.7503 87 85.5683 83.182 85.5683 78.4893V49.1671C85.5683 44.4737 81.7503 40.6558 77.0569 40.6558ZM80.4706 78.4893C80.4706 80.371 78.9393 81.9023 77.0569 81.9023H9.87074C7.98832 81.9023 6.45703 80.371 6.45703 78.4893V49.1671C6.45703 47.2847 7.98832 45.7534 9.87074 45.7534H77.0569C78.9393 45.7534 80.4706 47.2847 80.4706 49.1671V78.4893Z" fill="url(#paint0_linear)"/>
<path d="M43.4708 27.2962C45.4959 27.2962 47.521 26.5269 49.0629 24.9877C50.5584 23.4955 51.3814 21.5109 51.3814 19.3995C51.3814 17.2881 50.5584 15.3034 49.0629 13.8113C45.9791 10.7335 40.9618 10.7335 37.878 13.8113C36.3825 15.3034 35.5594 17.2881 35.5594 19.3995C35.5594 21.5109 36.3825 23.4955 37.878 24.9877C39.4199 26.5269 41.445 27.2962 43.4708 27.2962ZM41.4788 17.4188C42.0284 16.8706 42.7493 16.5971 43.4708 16.5971C44.1916 16.5971 44.9125 16.8712 45.4614 17.4188C45.9917 17.9478 46.2838 18.6514 46.2838 19.3995C46.2838 20.1475 45.9917 20.8505 45.462 21.3801C44.3635 22.476 42.5774 22.4753 41.4788 21.3801C40.9485 20.8505 40.6571 20.1475 40.6571 19.3995C40.6571 18.6514 40.9492 17.9485 41.4788 17.4188Z" fill="url(#paint1_linear)"/>
<path d="M52.7839 30.5453C53.2817 31.0445 53.9349 31.294 54.588 31.294C55.2398 31.294 55.891 31.0458 56.3888 30.5493C59.3724 27.571 61.0158 23.6117 61.0158 19.3995C61.0158 15.1873 59.3724 11.2273 56.3888 8.2497C55.3925 7.25539 53.7782 7.25672 52.7839 8.25302C51.7896 9.24932 51.7916 10.8636 52.7879 11.8579C54.8064 13.8724 55.9182 16.5507 55.9182 19.3995C55.9182 22.2477 54.8064 24.9266 52.7879 26.9411C51.7916 27.9354 51.7896 29.549 52.7839 30.5453Z" fill="url(#paint2_linear)"/>
<path d="M30.5388 30.5494C31.0366 31.0459 31.6878 31.2941 32.3396 31.2941C32.9927 31.2941 33.6458 31.0446 34.1437 30.5454C35.138 29.5491 35.136 27.9355 34.1397 26.9412C32.1212 24.926 31.0094 22.2478 31.0094 19.3989C31.0094 16.5507 32.1212 13.8725 34.1397 11.8573C35.136 10.863 35.138 9.24941 34.1437 8.25311C33.1494 7.25615 31.5351 7.25482 30.5388 8.24913C27.5552 11.2274 25.9124 15.1867 25.9117 19.3989C25.9117 23.6111 27.5552 27.5711 30.5388 30.5494Z" fill="url(#paint3_linear)"/>
<path d="M23.5156 71.7029H16.6736V53.4038C16.6736 51.996 15.5326 50.855 14.1248 50.855C12.7169 50.855 11.5759 51.996 11.5759 53.4038V74.2518C11.5759 75.6596 12.7169 76.8006 14.1248 76.8006H23.5156C24.9228 76.8006 26.0644 75.6596 26.0644 74.2518C26.0644 72.8446 24.9228 71.7029 23.5156 71.7029Z" fill="url(#paint4_linear)"/>
<path d="M31.4124 50.855C30.0045 50.855 28.8635 51.996 28.8635 53.4038V74.2518C28.8635 75.6596 30.0045 76.8006 31.4124 76.8006C32.8195 76.8006 33.9612 75.6596 33.9612 74.2518V53.4038C33.9612 51.996 32.8195 50.855 31.4124 50.855Z" fill="url(#paint5_linear)"/>
<path d="M53.7026 50.964C52.3558 50.5571 50.9328 51.3198 50.5259 52.6672L46.6721 65.4332L42.8177 52.6672C42.4108 51.3191 40.9883 50.5571 39.6409 50.964C38.2935 51.3709 37.5308 52.7933 37.9377 54.1408L44.2321 74.9887C44.2328 74.9907 44.2334 74.9927 44.2341 74.9947C44.9277 77.2143 48.3448 77.349 49.1101 74.9947C49.1107 74.9927 49.1114 74.9913 49.1121 74.9887L55.4065 54.1408C55.8134 52.7927 55.05 51.3709 53.7026 50.964Z" fill="url(#paint6_linear)"/>
<path d="M72.8028 55.9526C74.2107 55.9526 75.3517 54.8116 75.3517 53.4038C75.3517 51.996 74.2107 50.855 72.8028 50.855H61.3046C59.8967 50.855 58.7557 51.996 58.7557 53.4038V74.2518C58.7557 75.6596 59.8967 76.8006 61.3046 76.8006H72.4597C73.8675 76.8006 75.0085 75.6596 75.0085 74.2518C75.0085 72.8446 73.8675 71.7029 72.4597 71.7029H63.8534V65.064H71.0864C72.4942 65.064 73.6352 63.923 73.6352 62.5152C73.6352 61.1074 72.4942 59.9664 71.0864 59.9664H63.8534V55.9526H72.8028Z" fill="url(#paint7_linear)"/>
<path d="M64.7979 19.3995C64.7979 25.0826 62.5803 30.4265 58.5533 34.4456C57.557 35.4399 57.555 37.0542 58.5493 38.0505C59.0478 38.5489 59.7003 38.7985 60.3534 38.7985C61.0052 38.7985 61.6563 38.5503 62.1542 38.0538C67.1463 33.0716 69.8956 26.4467 69.8956 19.3995C69.8956 12.3531 67.1463 5.72747 62.1542 0.745308C61.1579 -0.249001 59.5443 -0.247673 58.5493 0.748627C57.555 1.74493 57.557 3.35918 58.5533 4.35349C62.5803 8.37254 64.7979 13.7158 64.7979 19.3995Z" fill="url(#paint8_linear)"/>
<path d="M26.5742 38.7986C27.2273 38.7986 27.8804 38.549 28.3783 38.0506C29.3726 37.0543 29.3712 35.44 28.3743 34.4457C24.3473 30.4266 22.1296 25.0827 22.1296 19.399C22.1296 13.7159 24.3473 8.37197 28.3743 4.35292C29.3706 3.35861 29.3726 1.74436 28.3783 0.74872C27.3833 -0.248244 25.7697 -0.249571 24.7734 0.744737C19.7813 5.72756 17.032 12.3525 17.032 19.399C17.032 26.4461 19.7813 33.071 24.7734 38.0539C25.2712 38.5504 25.9224 38.7986 26.5742 38.7986Z" fill="url(#paint9_linear)"/>
</g>
<defs>
<linearGradient id="paint0_linear" x1="43.4638" y1="40.6558" x2="43.4638" y2="87" gradientUnits="userSpaceOnUse">
<stop stop-color="#268AFF"/>
<stop offset="1" stop-color="#26D8FF"/>
</linearGradient>
<linearGradient id="paint1_linear" x1="43.4704" y1="11.5029" x2="43.4704" y2="27.2962" gradientUnits="userSpaceOnUse">
<stop stop-color="#268AFF"/>
<stop offset="1" stop-color="#26D8FF"/>
</linearGradient>
<linearGradient id="paint2_linear" x1="56.5276" y1="7.50488" x2="56.5276" y2="31.294" gradientUnits="userSpaceOnUse">
<stop stop-color="#268AFF"/>
<stop offset="1" stop-color="#26D8FF"/>
</linearGradient>
<linearGradient id="paint3_linear" x1="30.3999" y1="7.50439" x2="30.3999" y2="31.2941" gradientUnits="userSpaceOnUse">
<stop stop-color="#268AFF"/>
<stop offset="1" stop-color="#26D8FF"/>
</linearGradient>
<linearGradient id="paint4_linear" x1="18.8202" y1="50.855" x2="18.8202" y2="76.8006" gradientUnits="userSpaceOnUse">
<stop stop-color="#268AFF"/>
<stop offset="1" stop-color="#26D8FF"/>
</linearGradient>
<linearGradient id="paint5_linear" x1="31.4124" y1="50.855" x2="31.4124" y2="76.8006" gradientUnits="userSpaceOnUse">
<stop stop-color="#268AFF"/>
<stop offset="1" stop-color="#26D8FF"/>
</linearGradient>
<linearGradient id="paint6_linear" x1="46.6721" y1="50.8545" x2="46.6721" y2="76.7103" gradientUnits="userSpaceOnUse">
<stop stop-color="#268AFF"/>
<stop offset="1" stop-color="#26D8FF"/>
</linearGradient>
<linearGradient id="paint7_linear" x1="67.0537" y1="50.855" x2="67.0537" y2="76.8006" gradientUnits="userSpaceOnUse">
<stop stop-color="#268AFF"/>
<stop offset="1" stop-color="#26D8FF"/>
</linearGradient>
<linearGradient id="paint8_linear" x1="63.8502" y1="0.000488281" x2="63.8502" y2="38.7985" gradientUnits="userSpaceOnUse">
<stop stop-color="#268AFF"/>
<stop offset="1" stop-color="#26D8FF"/>
</linearGradient>
<linearGradient id="paint9_linear" x1="23.0775" y1="0" x2="23.0775" y2="38.7986" gradientUnits="userSpaceOnUse">
<stop stop-color="#268AFF"/>
<stop offset="1" stop-color="#26D8FF"/>
</linearGradient>
<clipPath id="clip0">
<rect width="87" height="87" fill="white"/>
</clipPath>
</defs>
</svg>
