<svg width="102" height="102" viewBox="0 0 102 102" fill="none" xmlns="http://www.w3.org/2000/svg">
<path d="M85.6651 79.3909C84.5504 76.7919 82.516 74.7226 79.9363 73.5643C79.1837 73.2264 78.2993 73.5623 77.9613 74.3154C77.6232 75.0682 77.9595 75.9523 78.7123 76.2904C80.6065 77.1411 82.1004 78.6603 82.9186 80.5686C85.4017 86.3583 86.6606 92.4883 86.6606 98.7882C86.6606 98.9115 86.5602 99.0119 86.4368 99.0119H77.5989C77.5612 97.1219 77.258 94.5741 76.8014 92.6032C76.6152 91.7994 75.8123 91.2984 75.0087 91.4848C74.2048 91.6711 73.704 92.4738 73.8902 93.2776C74.3158 95.1144 74.5708 97.4367 74.61 99.0119H58.6683L55.3695 89.0663L57.177 85.3254C57.5633 85.4553 57.9679 85.5242 58.3785 85.5242C58.6618 85.5242 58.9476 85.4925 59.2315 85.428C60.3864 85.1656 61.3365 84.4002 61.8387 83.3278L67.2531 71.7622L73.5314 74.2379C73.7113 74.3088 73.8968 74.3425 74.0791 74.3425C74.6748 74.3425 75.2378 73.9839 75.4697 73.396C75.7725 72.6284 75.3953 71.7606 74.6276 71.458L67.4603 68.6319C67.3997 68.6079 67.3383 68.5898 67.277 68.5743L61.825 64.3971V58.5119C61.825 58.5056 61.8242 58.4994 61.824 58.493C64.3008 56.6154 66.3229 54.3421 67.8555 51.7132C67.9525 51.6761 68.0495 51.6397 68.145 51.599C71.9022 49.9995 72.9057 46.2795 72.9467 46.1219C73.095 45.5506 72.8904 44.9469 72.4284 44.5792C71.9664 44.2114 71.3287 44.1517 70.8055 44.424C70.802 44.4258 70.7942 44.4298 70.7876 44.4332C70.8962 43.9536 70.994 43.4669 71.0809 42.9727C74.8501 42.7986 77.8631 39.6784 77.8631 35.8669C77.8631 33.4333 76.6347 31.2815 74.7656 29.9982V22.1904C74.7658 9.95436 64.8114 0 52.5756 0H49.5043C37.2687 0 27.3141 9.95436 27.3141 22.1902V29.9446C25.4002 31.221 24.1366 33.3986 24.1366 35.8667C24.1366 39.5973 27.0232 42.6641 30.6801 42.9559C30.7809 43.5325 30.8959 44.0997 31.0265 44.6561C30.7333 44.5381 30.5486 44.4441 30.5145 44.4264C29.9908 44.1489 29.3531 44.2066 28.8885 44.5738C28.4235 44.941 28.2195 45.5482 28.3684 46.1215C28.4092 46.2791 29.4127 49.9991 33.1699 51.5987C33.3879 51.6915 33.6112 51.7724 33.8373 51.8469C33.8738 51.9993 33.9339 52.1487 34.0214 52.2891C35.6046 54.8328 37.6713 57.029 40.1751 58.8365V64.6774L35.1077 68.4075L22.5452 73.3611C19.7731 74.4542 17.5097 76.6518 16.3352 79.3907C13.6915 85.5547 12.3514 92.0809 12.3514 98.7878C12.3514 100.559 13.7921 102 15.5634 102H86.4372C88.2085 102 89.6492 100.559 89.6492 98.7878C89.6488 92.0809 88.3085 85.5547 85.6651 79.3909ZM46.6989 99.0117L49.5368 90.4555H52.6824L55.5201 99.0117H46.6989ZM43.1631 64.6855V60.6537C45.5548 61.8118 48.1601 62.3917 50.7667 62.3917C53.5432 62.3917 56.3197 61.7321 58.8371 60.4177V65.4804L51.1966 78.3501L43.157 64.8076C43.1602 64.7672 43.1631 64.7268 43.1631 64.6855ZM51.1602 80.777C51.1729 80.7667 51.1843 80.7551 51.1966 80.7444C51.209 80.7551 51.2204 80.7667 51.2331 80.777L54.6883 83.6073L52.8233 87.4672H49.3957L47.58 83.7095L51.1602 80.777ZM59.1323 82.0606C58.9841 82.3773 58.7163 82.4803 58.5699 82.5136C58.4233 82.5469 58.1376 82.5696 57.8669 82.3481L54.1204 79.2793L61.0659 67.5796L64.6323 70.3121L59.1323 82.0606ZM68.083 48.2008C67.7627 48.4474 67.3951 48.6705 66.975 48.8494C64.5541 49.8798 61.0337 49.1648 56.7931 46.7817C55.6099 46.1166 54.5949 45.6691 53.599 45.3735C52.747 45.1205 52.1517 44.3218 52.1517 43.4315C52.1517 42.3149 53.0603 41.4064 54.177 41.4064C54.1865 41.4064 54.2001 41.406 54.2192 41.406C54.5638 41.406 58.5994 41.4873 61.3363 45.1629C63.2193 47.6924 65.796 48.3432 68.083 48.2008ZM71.4697 39.9256C71.6803 37.3738 71.6303 34.6541 71.3211 31.7852C73.3257 32.0651 74.875 33.7861 74.875 35.8667C74.875 37.8958 73.4018 39.5834 71.4697 39.9256ZM30.3024 22.1902C30.3024 11.6021 38.9162 2.98828 49.5043 2.98828H52.5756C63.1637 2.98828 71.7777 11.6021 71.7777 22.1902V28.8285C71.4636 28.7829 63.9988 28.4733 60.9086 21.1815C60.7621 20.7524 60.6344 20.3004 60.5304 19.8217C60.3717 19.0921 59.7055 18.6054 58.9823 18.6491C58.6536 18.6337 58.3247 18.725 58.0496 18.9196C58.0151 18.9441 54.5417 21.3867 49.3808 23.8104C48.6337 24.1612 48.3125 25.0512 48.6632 25.798C49.0144 26.5451 49.9041 26.866 50.6508 26.5154C53.9829 24.9508 56.6116 23.3998 58.1769 22.4131C59.3893 25.7679 61.7162 28.3883 65.0013 30.0539C66.1825 30.6528 67.3188 31.0415 68.2585 31.2927C68.9126 36.5417 68.6568 41.2287 67.4973 45.2324C66.2159 45.233 64.8039 44.8164 63.7329 43.3781C60.0651 38.4518 54.6065 38.4142 54.1652 38.4177C52.7996 38.4209 51.5608 38.9734 50.6576 39.8649C49.7543 38.9734 48.5156 38.4207 47.1499 38.4177C46.7054 38.4132 41.2494 38.4522 37.5822 43.3781C36.6336 44.6521 35.4171 45.1248 34.2613 45.2161C33.1251 41.2829 32.8598 36.6971 33.4712 31.566C37.142 31.208 41.0371 30.292 45.077 28.8327C45.8532 28.5524 46.255 27.696 45.9747 26.9198C45.6944 26.1437 44.8372 25.7419 44.0618 26.0222C39.6559 27.6137 31.2654 28.7522 31.2509 28.7522C30.9291 28.7522 30.613 28.7758 30.3024 28.8174V22.1902ZM27.1248 35.8667C27.1248 33.8702 28.5505 32.2011 30.4371 31.8222C30.133 34.6587 30.083 37.3485 30.2878 39.8746C28.4765 39.4391 27.1248 37.8097 27.1248 35.8667ZM39.979 45.1629C42.7157 41.4871 46.7519 41.406 47.0961 41.406C47.1178 41.406 47.1256 41.4062 47.1384 41.4064C48.255 41.4064 49.1634 42.3149 49.1634 43.4315C49.1634 44.3218 48.5683 45.1205 47.7165 45.3735C46.7204 45.6691 45.7054 46.1166 44.5222 46.7817C40.3028 49.153 36.7947 49.8734 34.3748 48.8642C33.9375 48.6817 33.557 48.453 33.2269 48.2008C35.5145 48.3436 38.0944 47.694 39.979 45.1629ZM37.6382 52.2686C40.1012 52.0863 42.8918 51.1257 45.9863 49.3865C46.9702 48.8335 47.7902 48.4685 48.5667 48.238C49.3722 47.999 50.084 47.5621 50.6576 46.9921C51.2311 47.5621 51.9429 47.9988 52.7486 48.238C53.5249 48.4685 54.3451 48.8335 55.3288 49.3865C58.5102 51.1745 61.3697 52.1399 63.8825 52.2824C62.4234 54.1845 60.6169 55.8257 58.4835 57.1778C53.796 60.1485 47.7378 60.1485 43.0498 57.1778C40.9108 55.8223 39.0979 54.1752 37.6382 52.2686ZM41.3108 67.5519L48.2729 79.2793L44.5264 82.3481C44.2561 82.5698 43.9698 82.5473 43.8232 82.5138C43.6769 82.4806 43.4092 82.3775 43.261 82.0606L37.7097 70.2029L41.3108 67.5519ZM15.3395 98.788C15.3395 92.4883 16.5983 86.3583 19.0812 80.5686C19.9436 78.5575 21.6057 76.9439 23.6411 76.1412L35.0788 71.6313L40.5546 83.3276C41.0568 84.4 42.0069 85.1656 43.1616 85.4278C43.4454 85.4923 43.7313 85.524 44.0148 85.524C44.3722 85.524 44.7246 85.4708 45.0647 85.3722L46.8495 89.0661L43.5504 99.0117H27.3898C27.429 97.4363 27.6842 95.114 28.1096 93.2772C28.2958 92.4734 27.795 91.6707 26.9912 91.4844C26.1881 91.2984 25.3847 91.799 25.1984 92.6029C24.742 94.5737 24.4388 97.1217 24.4011 99.0115H15.5632C15.4399 99.0117 15.3395 98.9113 15.3395 98.788Z" fill="url(#paint0_linear)"/>
<path d="M62.1356 90.0859C61.3102 90.0859 60.6414 90.7549 60.6414 91.5801C60.6414 92.4052 61.3102 93.0742 62.1356 93.0742H69.4905C70.3159 93.0742 70.9847 92.4052 70.9847 91.5801C70.9847 90.7549 70.3159 90.0859 69.4905 90.0859H62.1356Z" fill="url(#paint1_linear)"/>
<defs>
<linearGradient id="paint0_linear" x1="51.0003" y1="0" x2="51.0003" y2="102" gradientUnits="userSpaceOnUse">
<stop stop-color="#268AFF"/>
<stop offset="1" stop-color="#26D8FF"/>
</linearGradient>
<linearGradient id="paint1_linear" x1="65.813" y1="90.0859" x2="65.813" y2="93.0742" gradientUnits="userSpaceOnUse">
<stop stop-color="#268AFF"/>
<stop offset="1" stop-color="#26D8FF"/>
</linearGradient>
</defs>
</svg>
