<svg width="34" height="34" viewBox="0 0 34 34" fill="none" xmlns="http://www.w3.org/2000/svg">
<circle cx="17.4682" cy="17.4683" r="16.5318" fill="#636363"/>
<path d="M22.9078 10.8555H12.8552C11.7202 10.8555 10.8555 11.7202 10.8555 12.8552V22.9078C10.8555 24.0428 11.7202 24.9075 12.8552 24.9075H22.9078C24.0428 24.9075 24.9075 24.0428 24.9075 22.9078V12.8552C24.9075 11.7202 24.0428 10.8555 22.9078 10.8555ZM17.8815 22.0971C20.2055 22.0971 22.0971 20.2595 22.0971 18.0436C22.0971 17.6653 22.043 17.2329 21.9349 16.9086H23.124V22.6375C23.124 22.9078 22.9078 23.178 22.5835 23.178H13.1795C12.9092 23.178 12.639 22.9618 12.639 22.6375V16.8546H13.8821C13.774 17.2329 13.7199 17.6112 13.7199 17.9896C13.6659 20.2595 15.5575 22.0971 17.8815 22.0971ZM17.8815 20.4757C16.3682 20.4757 15.1792 19.2867 15.1792 17.8274C15.1792 16.3682 16.3682 15.1792 17.8815 15.1792C19.3948 15.1792 20.5838 16.3682 20.5838 17.8274C20.5838 19.3407 19.3948 20.4757 17.8815 20.4757ZM23.0699 14.6928C23.0699 15.017 22.7997 15.2873 22.4754 15.2873H20.9621C20.6378 15.2873 20.3676 15.017 20.3676 14.6928V13.2335C20.3676 12.9092 20.6378 12.639 20.9621 12.639H22.4754C22.7997 12.639 23.0699 12.9092 23.0699 13.2335V14.6928Z" fill="white"/>
</svg>
