<svg width="48" height="48" viewBox="0 0 48 48" fill="none" xmlns="http://www.w3.org/2000/svg">
<path d="M42.032 44.1251H7.35852C6.84074 44.1251 6.42102 43.7053 6.42102 43.1876V26.3906C6.42102 25.8728 6.84074 25.4531 7.35852 25.4531H27.3265C27.8443 25.4531 28.264 25.8728 28.264 26.3906C28.264 26.9083 27.8443 27.3281 27.3265 27.3281H8.29601V42.2501H41.0945V27.3281H38.8418C38.3241 27.3281 37.9043 26.9083 37.9043 26.3906C37.9043 25.8728 38.3241 25.4531 38.8418 25.4531H42.032C42.5498 25.4531 42.9695 25.8728 42.9695 26.3906V43.1876C42.9695 43.7053 42.5498 44.1251 42.032 44.1251Z" fill="url(#paint0_linear)"/>
<path d="M45.9122 15.7633H11.2302L44.9085 7.49517C45.1501 7.43583 45.3581 7.28292 45.487 7.07021C45.6158 6.8573 45.6548 6.60211 45.5952 6.36062L45.4175 5.63884C45.4175 5.63875 44.2048 0.713618 44.2048 0.713618C44.0812 0.211121 43.5735 -0.0961894 43.071 0.0272786L1.8643 10.1436C1.62271 10.2029 1.41468 10.3558 1.28587 10.5686C1.19728 10.7149 1.15125 10.8812 1.1504 11.0494C1.15003 11.1259 1.15903 11.2027 1.17759 11.2781L2.5408 16.8151V43.6359C2.5408 46.0421 4.50063 47.9998 6.90971 47.9998H42.481C44.89 47.9998 46.8498 46.0421 46.8498 43.6359V16.7007C46.8497 16.1831 46.43 15.7633 45.9122 15.7633ZM44.9747 19.5117L43.0987 17.6383H44.9747V19.5117ZM40.4451 17.6383L44.3909 21.5785H40.28L36.3342 17.6383H40.4451ZM31.6112 21.5786L27.6654 17.6384H33.6807L37.6265 21.5786H31.6112ZM25.0119 17.6383L28.9577 21.5785H24.8469L20.9011 17.6383H25.0119ZM16.1781 21.5786L12.2322 17.6384H18.2475L22.1933 21.5786H16.1781ZM8.23552 10.5102L13.0093 13.3958L9.01907 14.3754L4.24516 11.4898L8.23552 10.5102ZM16.6537 8.44345L21.4276 11.3291L15.587 12.763L10.8132 9.87735L16.6537 8.44345ZM23.2224 6.83086L27.9962 9.71647L24.0051 10.6963L19.2312 7.81073L23.2224 6.83086ZM31.6406 4.76416L36.4144 7.64976L30.5739 9.08366L25.8 6.19805L31.6406 4.76416ZM38.2094 3.15148L42.9833 6.03709L38.992 7.01696L34.2182 4.13135L38.2094 3.15148ZM6.44143 15.0083L4.16445 15.5673L3.60467 13.2936L6.44143 15.0083ZM4.4157 19.2366L6.76102 21.5786H4.4157V19.2366ZM5.4686 17.6383H9.57866L13.5245 21.5785H9.41451L5.4686 17.6383ZM43.0561 3.89032L40.787 2.51867L42.6084 2.07149L43.0561 3.89032ZM44.9747 43.636C44.9747 45.0084 43.856 46.1249 42.4809 46.1249H6.90962C5.5345 46.1249 4.4157 45.0084 4.4157 43.636V23.4536H44.9747V43.636Z" fill="url(#paint1_linear)"/>
<path d="M33.4096 27.3279C33.2261 27.3272 33.042 27.2724 32.8892 27.1695C32.046 26.5959 32.5907 25.2816 33.5924 25.4718C34.6922 25.7132 34.5344 27.3043 33.4096 27.3279Z" fill="url(#paint2_linear)"/>
<path d="M23.3829 39.8397C23.0334 39.8397 22.6839 39.7476 22.3654 39.5636C21.7288 39.1959 21.3489 38.5375 21.3489 37.8023V31.7756C21.3489 31.0405 21.7288 30.3822 22.3653 30.0144C23.0019 29.6466 23.7621 29.6462 24.3988 30.0133L29.6256 33.0268C30.2632 33.3944 30.6438 34.0531 30.6437 34.7891C30.6436 35.525 30.263 36.1838 29.6255 36.5513L24.3988 39.5646C24.0808 39.7479 23.7318 39.8397 23.3829 39.8397ZM23.383 31.6148C23.3563 31.6148 23.3297 31.6225 23.3033 31.6378C23.2505 31.6682 23.2238 31.7146 23.2238 31.7755V37.8022C23.2238 37.8631 23.2505 37.9096 23.3033 37.94C23.3561 37.9706 23.4096 37.9706 23.4623 37.9401L28.6891 34.9267C28.742 34.8962 28.7688 34.8499 28.7688 34.7888C28.7688 34.7279 28.742 34.6814 28.6891 34.6509L23.4624 31.6375C23.436 31.6224 23.4095 31.6148 23.383 31.6148Z" fill="url(#paint3_linear)"/>
<defs>
<linearGradient id="paint0_linear" x1="24.6953" y1="25.4531" x2="24.6953" y2="44.1251" gradientUnits="userSpaceOnUse">
<stop stop-color="#268AFF"/>
<stop offset="1" stop-color="#26D8FF"/>
</linearGradient>
<linearGradient id="paint1_linear" x1="24.0001" y1="0" x2="24.0001" y2="47.9998" gradientUnits="userSpaceOnUse">
<stop stop-color="#268AFF"/>
<stop offset="1" stop-color="#26D8FF"/>
</linearGradient>
<linearGradient id="paint2_linear" x1="33.407" y1="25.4531" x2="33.407" y2="27.3279" gradientUnits="userSpaceOnUse">
<stop stop-color="#268AFF"/>
<stop offset="1" stop-color="#26D8FF"/>
</linearGradient>
<linearGradient id="paint3_linear" x1="25.9963" y1="29.7383" x2="25.9963" y2="39.8397" gradientUnits="userSpaceOnUse">
<stop stop-color="#268AFF"/>
<stop offset="1" stop-color="#26D8FF"/>
</linearGradient>
</defs>
</svg>
