<svg width="45" height="45" viewBox="0 0 45 45" fill="none" xmlns="http://www.w3.org/2000/svg">
<g clip-path="url(#clip0)">
<path d="M11.0312 7.73438H12.4375V13.3594H13.8438V7.73438H15.25V6.32812H11.0312V7.73438Z" fill="url(#paint0_linear)"/>
<path d="M27.9062 7.73438H29.3125V13.3594H30.7188V7.73438H32.125V6.32812H27.9062V7.73438Z" fill="url(#paint1_linear)"/>
<path d="M16.6562 7.03125V12.6562C16.6562 12.8427 16.7303 13.0216 16.8622 13.1534C16.9941 13.2853 17.1729 13.3594 17.3594 13.3594H20.875V11.9531H18.0625V10.5469H20.875V9.14062H18.0625V7.73438H20.875V6.32812H17.3594C17.1729 6.32812 16.9941 6.4022 16.8622 6.53407C16.7303 6.66593 16.6562 6.84477 16.6562 7.03125Z" fill="url(#paint2_linear)"/>
<path d="M22.2812 8.4375C22.2813 8.99694 22.5035 9.53347 22.8991 9.92905C23.2947 10.3246 23.8312 10.5469 24.3906 10.5469C24.5771 10.5469 24.7559 10.621 24.8878 10.7528C25.0197 10.8847 25.0938 11.0635 25.0938 11.25C25.0938 11.4365 25.0197 11.6153 24.8878 11.7472C24.7559 11.879 24.5771 11.9531 24.3906 11.9531H22.2812V13.3594H24.3906C24.9501 13.3594 25.4866 13.1371 25.8822 12.7416C26.2778 12.346 26.5 11.8094 26.5 11.25C26.5 10.6906 26.2778 10.154 25.8822 9.75845C25.4866 9.36286 24.9501 9.14062 24.3906 9.14062C24.2041 9.14062 24.0253 9.06655 23.8934 8.93468C23.7616 8.80282 23.6875 8.62398 23.6875 8.4375C23.6875 8.25102 23.7616 8.07218 23.8934 7.94032C24.0253 7.80845 24.2041 7.73438 24.3906 7.73438H26.5V6.32812H24.3906C23.8312 6.32812 23.2947 6.55036 22.8991 6.94595C22.5035 7.34153 22.2813 7.87806 22.2812 8.4375Z" fill="url(#paint3_linear)"/>
<path d="M8.92188 16.1719H34.2344C34.4209 16.1719 34.5997 16.0978 34.7316 15.9659C34.8634 15.8341 34.9375 15.6552 34.9375 15.4688V4.21875C34.9375 4.03227 34.8634 3.85343 34.7316 3.72157C34.5997 3.5897 34.4209 3.51562 34.2344 3.51562H8.92188C8.73539 3.51562 8.55655 3.5897 8.42469 3.72157C8.29283 3.85343 8.21875 4.03227 8.21875 4.21875V15.4688C8.21875 15.6552 8.29283 15.8341 8.42469 15.9659C8.55655 16.0978 8.73539 16.1719 8.92188 16.1719ZM9.625 4.92188H33.5312V14.7656H9.625V4.92188Z" fill="url(#paint4_linear)"/>
<path d="M8.21875 24.6096H12.4375C12.624 24.6096 12.8028 24.5355 12.9347 24.4036C13.0665 24.2718 13.1406 24.0929 13.1406 23.9064V19.976L15.0461 18.0775L14.0477 17.0791L12.1492 18.9846H8.21875C8.03227 18.9846 7.85343 19.0586 7.72157 19.1905C7.5897 19.3224 7.51562 19.5012 7.51562 19.6877V23.9064C7.51562 24.0929 7.5897 24.2718 7.72157 24.4036C7.85343 24.5355 8.03227 24.6096 8.21875 24.6096ZM11.7344 23.2033H9.91328L11.7344 21.3822V23.2033ZM10.743 20.3908L8.92188 22.2119V20.3908H10.743Z" fill="url(#paint5_linear)"/>
<path d="M12.4375 33.0469H8.21875C8.03227 33.0469 7.85343 33.121 7.72157 33.2528C7.5897 33.3847 7.51562 33.5635 7.51562 33.75V37.9688C7.51562 38.1552 7.5897 38.3341 7.72157 38.4659C7.85343 38.5978 8.03227 38.6719 8.21875 38.6719H12.4375C12.624 38.6719 12.8028 38.5978 12.9347 38.4659C13.0665 38.3341 13.1406 38.1552 13.1406 37.9688V33.75C13.1406 33.5635 13.0665 33.3847 12.9347 33.2528C12.8028 33.121 12.624 33.0469 12.4375 33.0469ZM11.7344 37.2656H8.92188V34.4531H11.7344V37.2656Z" fill="url(#paint6_linear)"/>
<path d="M13.3445 24.8135L12.1492 26.0158H8.21875C8.03227 26.0158 7.85343 26.0899 7.72157 26.2218C7.5897 26.3536 7.51562 26.5325 7.51562 26.7189V30.9377C7.51562 31.1242 7.5897 31.303 7.72157 31.4349C7.85343 31.5667 8.03227 31.6408 8.21875 31.6408H12.4375C12.624 31.6408 12.8028 31.5667 12.9347 31.4349C13.0665 31.303 13.1406 31.1242 13.1406 30.9377V27.0072L14.343 25.8119L13.3445 24.8135ZM10.743 27.4221L8.92188 29.2432V27.4221H10.743ZM11.7344 30.2346H9.91328L11.7344 28.4135V30.2346Z" fill="url(#paint7_linear)"/>
<path d="M14.5469 19.6875H34.9375V21.0938H14.5469V19.6875Z" fill="url(#paint8_linear)"/>
<path d="M14.5469 33.75H23.6875V35.1562H14.5469V33.75Z" fill="url(#paint9_linear)"/>
<path d="M14.5469 36.5625H34.9375V37.9688H14.5469V36.5625Z" fill="url(#paint10_linear)"/>
<path d="M48.093 15.6727L45.2805 12.8602C45.2151 12.7943 45.1373 12.7419 45.0517 12.7062C44.966 12.6706 44.8741 12.6522 44.7812 12.6522C44.6884 12.6522 44.5965 12.6706 44.5108 12.7062C44.4252 12.7419 44.3474 12.7943 44.282 12.8602L38.4531 18.6961V1.40625C38.4531 1.21977 38.379 1.04093 38.2472 0.909066C38.1153 0.777204 37.9365 0.703125 37.75 0.703125H5.40625C5.21977 0.703125 5.04093 0.777204 4.90907 0.909066C4.7772 1.04093 4.70312 1.21977 4.70312 1.40625V43.5938C4.70312 43.7802 4.7772 43.9591 4.90907 44.0909C5.04093 44.2228 5.21977 44.2969 5.40625 44.2969H37.75C37.9365 44.2969 38.1153 44.2228 38.2472 44.0909C38.379 43.9591 38.4531 43.7802 38.4531 43.5938V26.3039L48.093 16.6711C48.1589 16.6057 48.2112 16.528 48.2469 16.4423C48.2826 16.3566 48.301 16.2647 48.301 16.1719C48.301 16.0791 48.2826 15.9872 48.2469 15.9015C48.2112 15.8158 48.1589 15.738 48.093 15.6727ZM28.1453 31.4648L29.4883 32.8078L27.1328 33.8203L28.1453 31.4648ZM28.8977 30.2344L41.9688 17.1633L43.7898 18.9844L30.7188 32.0555L28.8977 30.2344ZM37.0469 42.8906H6.10938V2.10938H37.0469V20.1023L34.6492 22.5H14.5469V23.9062H33.243L30.4305 26.7188H14.5469V28.125H29.0242L27.618 29.5312H14.5469V30.9375H26.8375L25.15 34.882C25.1047 34.9889 25.0866 35.1053 25.0973 35.2209C25.108 35.3364 25.1471 35.4475 25.2111 35.5443C25.2752 35.6411 25.3622 35.7205 25.4644 35.7755C25.5666 35.8305 25.6808 35.8593 25.7969 35.8594C25.8911 35.8592 25.9844 35.8401 26.0711 35.8031L30.993 33.6937C31.076 33.6579 31.1521 33.608 31.218 33.5461L37.0469 27.7102V42.8906ZM44.7812 17.993L42.9602 16.1719L44.7812 14.3508L46.6023 16.1719L44.7812 17.993Z" fill="url(#paint11_linear)"/>
</g>
<defs>
<linearGradient id="paint0_linear" x1="13.1406" y1="6.32812" x2="13.1406" y2="13.3594" gradientUnits="userSpaceOnUse">
<stop stop-color="#268AFF"/>
<stop offset="1" stop-color="#26D8FF"/>
</linearGradient>
<linearGradient id="paint1_linear" x1="30.0156" y1="6.32812" x2="30.0156" y2="13.3594" gradientUnits="userSpaceOnUse">
<stop stop-color="#268AFF"/>
<stop offset="1" stop-color="#26D8FF"/>
</linearGradient>
<linearGradient id="paint2_linear" x1="18.7656" y1="6.32812" x2="18.7656" y2="13.3594" gradientUnits="userSpaceOnUse">
<stop stop-color="#268AFF"/>
<stop offset="1" stop-color="#26D8FF"/>
</linearGradient>
<linearGradient id="paint3_linear" x1="24.3906" y1="6.32812" x2="24.3906" y2="13.3594" gradientUnits="userSpaceOnUse">
<stop stop-color="#268AFF"/>
<stop offset="1" stop-color="#26D8FF"/>
</linearGradient>
<linearGradient id="paint4_linear" x1="21.5781" y1="3.51562" x2="21.5781" y2="16.1719" gradientUnits="userSpaceOnUse">
<stop stop-color="#268AFF"/>
<stop offset="1" stop-color="#26D8FF"/>
</linearGradient>
<linearGradient id="paint5_linear" x1="11.2809" y1="17.0791" x2="11.2809" y2="24.6096" gradientUnits="userSpaceOnUse">
<stop stop-color="#268AFF"/>
<stop offset="1" stop-color="#26D8FF"/>
</linearGradient>
<linearGradient id="paint6_linear" x1="10.3281" y1="33.0469" x2="10.3281" y2="38.6719" gradientUnits="userSpaceOnUse">
<stop stop-color="#268AFF"/>
<stop offset="1" stop-color="#26D8FF"/>
</linearGradient>
<linearGradient id="paint7_linear" x1="10.9293" y1="24.8135" x2="10.9293" y2="31.6408" gradientUnits="userSpaceOnUse">
<stop stop-color="#268AFF"/>
<stop offset="1" stop-color="#26D8FF"/>
</linearGradient>
<linearGradient id="paint8_linear" x1="24.7422" y1="19.6875" x2="24.7422" y2="21.0938" gradientUnits="userSpaceOnUse">
<stop stop-color="#268AFF"/>
<stop offset="1" stop-color="#26D8FF"/>
</linearGradient>
<linearGradient id="paint9_linear" x1="19.1172" y1="33.75" x2="19.1172" y2="35.1562" gradientUnits="userSpaceOnUse">
<stop stop-color="#268AFF"/>
<stop offset="1" stop-color="#26D8FF"/>
</linearGradient>
<linearGradient id="paint10_linear" x1="24.7422" y1="36.5625" x2="24.7422" y2="37.9688" gradientUnits="userSpaceOnUse">
<stop stop-color="#268AFF"/>
<stop offset="1" stop-color="#26D8FF"/>
</linearGradient>
<linearGradient id="paint11_linear" x1="26.502" y1="0.703125" x2="26.502" y2="44.2969" gradientUnits="userSpaceOnUse">
<stop stop-color="#268AFF"/>
<stop offset="1" stop-color="#26D8FF"/>
</linearGradient>
<clipPath id="clip0">
<rect width="45" height="45" fill="white"/>
</clipPath>
</defs>
</svg>
