<svg width="45" height="45" viewBox="0 0 45 45" fill="none" xmlns="http://www.w3.org/2000/svg">
<g clip-path="url(#clip0)">
<path d="M17.2507 30.7485H14.2511V27.7489C14.2511 27.3348 13.9154 26.999 13.5012 26.999H10.5017C10.0875 26.999 9.75177 27.3348 9.75177 27.7489V30.7485H6.75221C6.33808 30.7485 6.00232 31.0842 6.00232 31.4984V34.4979C6.00232 34.9121 6.33808 35.2478 6.75221 35.2478H9.75177V38.2474C9.75177 38.6615 10.0875 38.9973 10.5017 38.9973H13.5012C13.9154 38.9973 14.2511 38.6615 14.2511 38.2474V35.2478H17.2507C17.6648 35.2478 18.0006 34.9121 18.0006 34.4979V31.4984C18.0006 31.0842 17.6648 30.7485 17.2507 30.7485ZM16.5008 33.748H13.5012C13.0871 33.748 12.7513 34.0838 12.7513 34.4979V37.4975H11.2516V34.4979C11.2516 34.0838 10.9158 33.748 10.5017 33.748H7.5021V32.2483H10.5017C10.9158 32.2483 11.2516 31.9125 11.2516 31.4984V28.4988H12.7513V31.4984C12.7513 31.9125 13.0871 32.2483 13.5012 32.2483H16.5008V33.748Z" fill="url(#paint0_linear)"/>
<path d="M44.9216 31.629C44.3464 26.4615 39.4932 21.627 34.3212 21.0758C33.8819 21.0274 33.4403 21.0023 32.9983 21.0008H24.7496V18.0013H23.2498V16.5015C23.2498 14.8449 21.9068 13.5019 20.2502 13.5019H16.5008C15.6724 13.5019 15.001 12.8305 15.001 12.0022C15.001 11.1738 15.6724 10.5024 16.5008 10.5024H28.499C30.1556 10.5024 31.4986 9.15941 31.4986 7.50281C31.4986 5.84621 30.1556 4.50325 28.499 4.50325H24.7496C23.9212 4.50325 23.2498 3.83182 23.2498 3.00347V0.00390625H21.75V3.00347C21.75 4.66007 23.0929 6.00303 24.7496 6.00303H28.499C29.3274 6.00303 29.9988 6.67446 29.9988 7.50281C29.9988 8.33116 29.3274 9.00259 28.499 9.00259H16.5008C14.8442 9.00259 13.5012 10.3456 13.5012 12.0022C13.5012 13.6588 14.8442 15.0017 16.5008 15.0017H20.2502C21.0786 15.0017 21.75 15.6732 21.75 16.5015V18.0013H20.2502V21.0008H12.0014C11.559 21.0019 11.1168 21.0269 10.6771 21.0758C5.50286 21.6308 0.652567 26.4653 0.0789007 31.6328C-0.674458 38.2163 4.05173 44.164 10.6353 44.9174C13.3162 45.2242 16.0221 44.6183 18.3162 43.1977C19.3039 42.5511 20.4329 42.1522 21.6075 42.0346C22.1877 41.9888 22.7705 41.9867 23.351 42.0286C24.5442 42.144 25.6913 42.5475 26.694 43.2044C32.3309 46.6881 39.7245 44.9426 43.2081 39.3057C44.6256 37.012 45.2293 34.3077 44.9216 31.629ZM21.75 19.5011H23.2498V21.0008H21.75V19.5011ZM40.8235 39.9986C37.4331 43.7908 31.8109 44.6046 27.4844 41.9295C26.2762 41.1428 24.8941 40.6633 23.4582 40.5325C23.1418 40.5095 22.8223 40.498 22.4999 40.498C22.1587 40.498 21.825 40.5122 21.489 40.5385C20.075 40.6739 18.7147 41.1488 17.5236 41.9228C12.5929 44.9734 6.12274 43.4495 3.072 38.5188C1.83008 36.5115 1.30085 34.1443 1.56968 31.7993C2.06311 27.3584 6.39298 23.045 10.8383 22.5674C11.2245 22.5242 11.6128 22.5019 12.0014 22.5006H32.9983C33.3869 22.5009 33.7751 22.5216 34.1614 22.5629C38.606 23.0405 42.9352 27.3539 43.4301 31.7948C43.7836 34.7772 42.8336 37.7672 40.8235 39.9986Z" fill="url(#paint1_linear)"/>
<path d="M32.9985 25.499C31.3419 25.499 29.9989 26.842 29.9989 28.4986C29.9989 30.1552 31.3419 31.4981 32.9985 31.4981C34.6551 31.4981 35.998 30.1552 35.998 28.4986C35.998 26.842 34.6551 25.499 32.9985 25.499ZM32.9985 29.9984C32.1701 29.9984 31.4987 29.3269 31.4987 28.4986C31.4987 27.6702 32.1701 26.9988 32.9985 26.9988C33.8268 26.9988 34.4982 27.6702 34.4982 28.4986C34.4982 29.3269 33.8267 29.9984 32.9985 29.9984Z" fill="url(#paint2_linear)"/>
<path d="M32.9985 34.498C31.3419 34.498 29.9989 35.841 29.9989 37.4976C29.9989 39.1542 31.3419 40.4972 32.9985 40.4972C34.6551 40.4972 35.998 39.1542 35.998 37.4976C35.998 35.841 34.6551 34.498 32.9985 34.498ZM32.9985 38.9974C32.1701 38.9974 31.4987 38.326 31.4987 37.4976C31.4987 36.6693 32.1701 35.9978 32.9985 35.9978C33.8268 35.9978 34.4982 36.6693 34.4982 37.4976C34.4982 38.326 33.8267 38.9974 32.9985 38.9974Z" fill="url(#paint3_linear)"/>
<path d="M27.7492 29.9985C26.0926 29.9985 24.7496 31.3415 24.7496 32.9981C24.7496 34.6547 26.0926 35.9977 27.7492 35.9977C29.4058 35.9977 30.7488 34.6547 30.7488 32.9981C30.7488 31.3415 29.4058 29.9985 27.7492 29.9985ZM27.7492 34.4979C26.9208 34.4979 26.2494 33.8264 26.2494 32.9981C26.2494 32.1698 26.9208 31.4983 27.7492 31.4983C28.5775 31.4983 29.249 32.1698 29.249 32.9981C29.249 33.8264 28.5774 34.4979 27.7492 34.4979Z" fill="url(#paint4_linear)"/>
<path d="M38.2476 29.9985C36.591 29.9985 35.248 31.3415 35.248 32.9981C35.248 34.6547 36.591 35.9977 38.2476 35.9977C39.9042 35.9977 41.2472 34.6547 41.2472 32.9981C41.2472 31.3415 39.9042 29.9985 38.2476 29.9985ZM38.2476 34.4979C37.4193 34.4979 36.7478 33.8264 36.7478 32.9981C36.7478 32.1698 37.4193 31.4983 38.2476 31.4983C39.076 31.4983 39.7474 32.1698 39.7474 32.9981C39.7474 33.8264 39.0759 34.4979 38.2476 34.4979Z" fill="url(#paint5_linear)"/>
</g>
<defs>
<linearGradient id="paint0_linear" x1="12.0014" y1="26.999" x2="12.0014" y2="38.9973" gradientUnits="userSpaceOnUse">
<stop stop-color="#268AFF"/>
<stop offset="1" stop-color="#26D8FF"/>
</linearGradient>
<linearGradient id="paint1_linear" x1="22.5" y1="0.00390625" x2="22.5" y2="44.9979" gradientUnits="userSpaceOnUse">
<stop stop-color="#268AFF"/>
<stop offset="1" stop-color="#26D8FF"/>
</linearGradient>
<linearGradient id="paint2_linear" x1="32.9985" y1="25.499" x2="32.9985" y2="31.4981" gradientUnits="userSpaceOnUse">
<stop stop-color="#268AFF"/>
<stop offset="1" stop-color="#26D8FF"/>
</linearGradient>
<linearGradient id="paint3_linear" x1="32.9985" y1="34.498" x2="32.9985" y2="40.4972" gradientUnits="userSpaceOnUse">
<stop stop-color="#268AFF"/>
<stop offset="1" stop-color="#26D8FF"/>
</linearGradient>
<linearGradient id="paint4_linear" x1="27.7492" y1="29.9985" x2="27.7492" y2="35.9977" gradientUnits="userSpaceOnUse">
<stop stop-color="#268AFF"/>
<stop offset="1" stop-color="#26D8FF"/>
</linearGradient>
<linearGradient id="paint5_linear" x1="38.2476" y1="29.9985" x2="38.2476" y2="35.9977" gradientUnits="userSpaceOnUse">
<stop stop-color="#268AFF"/>
<stop offset="1" stop-color="#26D8FF"/>
</linearGradient>
<clipPath id="clip0">
<rect width="45" height="45" fill="white"/>
</clipPath>
</defs>
</svg>
