<svg width="118" height="46" viewBox="0 0 118 46" fill="none" xmlns="http://www.w3.org/2000/svg">
<g clip-path="url(#clip0)">
<path d="M8.55664 14.7619V4.73811H10.2002V6.92955C10.6353 6.18056 11.2355 5.54492 11.9534 5.07291C12.621 4.6654 13.3865 4.45467 14.1648 4.46418C14.7659 4.46566 15.3634 4.55798 15.9379 4.73811V8.34993H14.3441V6.06718C14.1307 6.02455 13.914 6.00079 13.6966 5.99616C13.0299 6.01555 12.3913 6.27427 11.8936 6.72664C11.2003 7.35652 10.6205 8.10504 10.1803 8.93837V14.7619H8.55664Z" fill="#00CDFF"/>
<path d="M23.1797 15.0354C22.542 15.0612 21.9069 14.9395 21.322 14.6795C20.7372 14.4194 20.2178 14.0277 19.8028 13.5339C18.9361 12.4713 18.4855 11.1199 18.5378 9.73943C18.4871 8.3623 18.9376 7.01463 19.8028 5.95514C20.2352 5.4839 20.7581 5.10819 21.339 4.85133C21.9199 4.59446 22.5464 4.46191 23.1797 4.46191C23.813 4.46191 24.4395 4.59446 25.0204 4.85133C25.6012 5.10819 26.1241 5.4839 26.5565 5.95514C27.4168 7.01745 27.8667 8.36315 27.8216 9.73943C27.8691 11.1192 27.4191 12.4689 26.5565 13.5339C26.1416 14.0277 25.6222 14.4194 25.0373 14.6795C24.4525 14.9395 23.8173 15.0612 23.1797 15.0354ZM23.1797 13.6455C23.5893 13.6692 23.9982 13.5879 24.3689 13.4088C24.7396 13.2298 25.0602 12.9588 25.3014 12.6208C25.8633 11.7806 26.1365 10.7746 26.0784 9.75973C26.1379 8.74152 25.8647 7.73188 25.3014 6.88853C25.0617 6.55958 24.7468 6.29522 24.3839 6.11841C24.0211 5.9416 23.6214 5.85769 23.2195 5.87397C22.8163 5.85864 22.4155 5.9429 22.0513 6.11957C21.687 6.29624 21.3701 6.56007 21.1277 6.88853C20.558 7.72251 20.2744 8.72459 20.3208 9.73943C20.2553 10.76 20.5252 11.7737 21.0878 12.6208C21.3291 12.9505 21.6458 13.2153 22.0103 13.3921C22.3748 13.5689 22.7763 13.6524 23.1797 13.6353V13.6455Z" fill="#00CDFF"/>
<path d="M32.344 6.9904C32.791 6.21975 33.4126 5.56923 34.1569 5.09318C34.7357 4.72799 35.3989 4.525 36.0794 4.50473C36.4988 4.5056 36.9134 4.59639 37.2961 4.77118C37.6788 4.94598 38.0211 5.20088 38.3007 5.51929C39.0298 6.44682 39.3859 7.62175 39.2969 8.80645C39.3159 9.87912 39.0909 10.9417 38.6394 11.911C38.2468 12.7697 37.6471 13.5131 36.8962 14.072C36.101 14.6286 35.151 14.9096 34.1868 14.8735C33.8879 14.8735 33.4198 14.8735 32.7822 14.772H32.3539H30.7103V0.28418H32.344V6.9904ZM32.344 9.01951V13.3212C32.8805 13.4666 33.4324 13.545 33.9876 13.5546C34.4659 13.5596 34.9392 13.4545 35.3721 13.2472C35.805 13.0399 36.1864 12.7358 36.4878 12.3574C37.2038 11.4386 37.5588 10.2814 37.4839 9.11082C37.5402 8.31669 37.3484 7.52478 36.9361 6.84836C36.8001 6.62877 36.6141 6.44585 36.3938 6.31515C36.1736 6.18444 35.9256 6.10981 35.671 6.09759C35.0366 6.15406 34.4413 6.43388 33.9876 6.88894C33.3267 7.48504 32.7708 8.1919 32.344 8.97893V9.01951Z" fill="#00CDFF"/>
<path d="M46.449 15.0357C45.8113 15.0615 45.1762 14.9398 44.5913 14.6797C44.0064 14.4197 43.487 14.028 43.0721 13.5341C42.2054 12.4715 41.7548 11.1201 41.8071 9.7397C41.7564 8.36257 42.2069 7.01489 43.0721 5.9554C43.5036 5.48444 44.0257 5.1089 44.6057 4.85215C45.1858 4.59539 45.8115 4.46289 46.444 4.46289C47.0765 4.46289 47.7022 4.59539 48.2822 4.85215C48.8623 5.1089 49.3843 5.48444 49.8158 5.9554C50.6811 7.01489 51.1316 8.36257 51.0809 9.7397C51.1331 11.1201 50.6826 12.4715 49.8158 13.5341C49.4029 14.0278 48.8853 14.4194 48.3021 14.6796C47.7188 14.9397 47.0852 15.0614 46.449 15.0357ZM46.449 13.6457C46.851 13.6629 47.251 13.5794 47.6139 13.4025C47.9769 13.2256 48.2917 12.9608 48.5308 12.6312C49.0927 11.791 49.3659 10.785 49.3078 9.77013C49.3629 8.75875 49.0899 7.75697 48.5308 6.91923C48.283 6.59658 47.9663 6.33563 47.6047 6.15617C47.2431 5.97671 46.8462 5.88345 46.444 5.88345C46.0418 5.88345 45.6448 5.97671 45.2833 6.15617C44.9217 6.33563 44.605 6.59658 44.3571 6.91923C43.798 7.75697 43.525 8.75875 43.5801 9.77013C43.5243 10.7816 43.7974 11.7836 44.3571 12.621C44.5984 12.9508 44.915 13.2156 45.2796 13.3924C45.6441 13.5692 46.0455 13.6527 46.449 13.6356V13.6457Z" fill="#00CDFF"/>
<path d="M62.0183 14.4672C61.0096 14.8288 59.9498 15.0206 58.8805 15.0353C57.9605 15.0529 57.0537 14.8106 56.2607 14.3353C55.5054 13.8889 54.8851 13.2396 54.4677 12.4584C54.0278 11.6267 53.8049 10.694 53.8202 9.74949C53.8011 9.0516 53.9199 8.35692 54.1698 7.70679C54.4196 7.05666 54.7953 6.46438 55.2746 5.96519C55.7328 5.48871 56.2822 5.11317 56.8888 4.86186C57.4954 4.61055 58.1462 4.48882 58.8008 4.50423C59.8969 4.51967 60.9833 4.71494 62.0183 5.08253V6.68552C61.0615 6.20539 60.0161 5.93576 58.9502 5.89417C58.3575 5.89264 57.7744 6.04636 57.2568 6.34058C56.7108 6.66956 56.2816 7.16703 56.0316 7.76095C55.7488 8.3771 55.6026 9.04906 55.6033 9.72919C55.6131 10.6573 55.9016 11.5602 56.4301 12.3163C56.7287 12.7279 57.1244 13.0562 57.5805 13.2707C58.0367 13.4853 58.5386 13.5793 59.0399 13.5439C59.3933 13.5429 59.7462 13.5158 60.0958 13.4628C60.7498 13.3277 61.3926 13.1412 62.0183 12.9048V14.4672Z" fill="#FF0000"/>
<path d="M68.9512 15.0354C68.3135 15.0612 67.6784 14.9395 67.0935 14.6795C66.5086 14.4194 65.9892 14.0277 65.5743 13.5339C64.7076 12.4713 64.257 11.1199 64.3093 9.73943C64.2586 8.3623 64.7091 7.01463 65.5743 5.95514C66.0067 5.4839 66.5296 5.10819 67.1105 4.85133C67.6914 4.59446 68.3179 4.46191 68.9512 4.46191C69.5844 4.46191 70.211 4.59446 70.7918 4.85133C71.3727 5.10819 71.8956 5.4839 72.328 5.95514C73.1883 7.01745 73.6382 8.36315 73.5931 9.73943C73.6406 11.1192 73.1906 12.4689 72.328 13.5339C71.9131 14.0277 71.3937 14.4194 70.8088 14.6795C70.224 14.9395 69.5888 15.0612 68.9512 15.0354ZM68.9512 13.6455C69.3546 13.6626 69.756 13.5791 70.1205 13.4023C70.4851 13.2255 70.8017 12.9607 71.043 12.6309C71.5966 11.7872 71.8659 10.7831 71.81 9.76987C71.863 8.76018 71.5939 7.76013 71.043 6.91897C70.7942 6.59617 70.4766 6.33519 70.1142 6.15573C69.7518 5.97626 69.3541 5.88301 68.9512 5.88301C68.5482 5.88301 68.1505 5.97626 67.7882 6.15573C67.4258 6.33519 67.1082 6.59617 66.8593 6.91897C66.3322 7.75765 66.0809 8.74555 66.1421 9.73943C66.0672 10.7538 66.319 11.7653 66.8593 12.6208C67.1006 12.9505 67.4172 13.2153 67.7818 13.3921C68.1463 13.5689 68.5477 13.6524 68.9512 13.6353V13.6455Z" fill="#FF0000"/>
<path d="M83.0761 12.5096C82.635 13.2788 82.016 13.9266 81.2731 14.3967C80.6788 14.791 79.9898 15.012 79.2809 15.0358C78.8629 15.0204 78.4528 14.9159 78.077 14.7289C77.7012 14.5419 77.3682 14.2766 77.0994 13.9503C76.3703 13.0227 76.0142 11.8478 76.1033 10.6631C76.0872 9.58637 76.3156 8.52042 76.7707 7.54841C77.1599 6.68758 77.7603 5.94335 78.5139 5.3874C79.3124 4.83895 80.2608 4.56194 81.2233 4.59605C81.6929 4.60524 82.1617 4.63911 82.6278 4.6975H83.0562V0.28418H84.6898V14.7619H83.0761V12.5096ZM83.0761 10.4805V6.21934C82.5464 6.07336 82.001 5.99498 81.4524 5.98599C80.9692 5.97711 80.4903 6.08027 80.0519 6.28768C79.6136 6.49508 79.2273 6.8013 78.9223 7.18316C78.2105 8.10429 77.856 9.25975 77.9262 10.4297C77.8714 11.2205 78.0631 12.0088 78.474 12.6821C78.6066 12.9033 78.7903 13.0883 79.009 13.2209C79.2277 13.3535 79.4749 13.4298 79.7291 13.443C80.367 13.3888 80.9662 13.1088 81.4225 12.6516C82.0963 12.0497 82.6567 11.3277 83.0761 10.5211V10.4805Z" fill="#FF0000"/>
<path d="M90.3677 14.7619V6.12802H87.6284V4.73807H92.0412V13.372H94.7805V14.7619H90.3677ZM90.0988 1.11611C90.0882 0.956213 90.1173 0.796171 90.1834 0.650766C90.2496 0.50536 90.3507 0.37928 90.4773 0.284171C90.6708 0.100898 90.9253 -0.000976562 91.1895 -0.000976562C91.4538 -0.000976562 91.7082 0.100898 91.9018 0.284171C92.0211 0.386064 92.1171 0.513354 92.1829 0.657086C92.2488 0.800818 92.2829 0.957499 92.2829 1.11611C92.2829 1.27472 92.2488 1.4314 92.1829 1.57513C92.1171 1.71886 92.0211 1.84615 91.9018 1.94804C91.7082 2.13132 91.4538 2.23319 91.1895 2.23319C90.9253 2.23319 90.6708 2.13132 90.4773 1.94804C90.3507 1.85293 90.2496 1.72686 90.1834 1.58145C90.1173 1.43604 90.0882 1.276 90.0988 1.11611Z" fill="#FF0000"/>
<path d="M98.2072 14.7618V4.73797H99.8507V6.92941C100.276 6.20392 100.855 5.58366 101.544 5.11336C102.132 4.70337 102.824 4.47764 103.536 4.46404C104.098 4.45781 104.649 4.62013 105.12 4.93074C105.576 5.22134 105.926 5.65611 106.116 6.1685C106.366 7.14448 106.464 8.15453 106.405 9.16144V14.7618H104.772V8.95853C104.799 8.31937 104.752 7.67919 104.632 7.05116C104.547 6.75123 104.373 6.48543 104.134 6.29024C103.909 6.10319 103.628 5.99947 103.337 5.99602C102.643 6.04528 101.988 6.3395 101.484 6.82796C100.807 7.40501 100.251 8.11599 99.8507 8.91794V14.7618H98.2072Z" fill="#FF0000"/>
<path d="M116.356 12.5091C115.918 13.2806 115.299 13.9291 114.553 14.3962C113.978 14.7828 113.31 15.0036 112.621 15.0354C112.196 15.0257 111.778 14.9238 111.395 14.7366C111.012 14.5494 110.673 14.2812 110.4 13.9498C109.671 13.0223 109.315 11.8473 109.404 10.6626C109.388 9.5859 109.616 8.51996 110.071 7.54794C110.464 6.68928 111.063 5.94585 111.814 5.38694C112.613 4.83849 113.561 4.56148 114.524 4.59558C114.993 4.60478 115.462 4.63865 115.928 4.69704H116.356H118V11.7989C118 13.4932 118 14.5179 117.93 14.8933C117.889 15.2769 117.819 15.6567 117.721 16.0296C117.604 16.4718 117.402 16.8859 117.126 17.2481C116.851 17.6103 116.508 17.9134 116.117 18.1399C115.207 18.6646 114.175 18.9308 113.129 18.911C111.866 18.8919 110.624 18.5722 109.503 17.9776V16.3036C110.038 16.661 110.613 16.9506 111.216 17.1659C111.855 17.4056 112.529 17.5326 113.209 17.5413C113.694 17.5439 114.176 17.4615 114.633 17.2978C115.043 17.1576 115.412 16.9173 115.709 16.5978C115.985 16.2984 116.181 15.9315 116.277 15.5325C116.389 15.0026 116.439 14.4612 116.426 13.9194L116.356 12.5091ZM116.356 10.48V6.21888C115.827 6.07228 115.281 5.99388 114.733 5.98553C114.251 5.97669 113.774 6.07993 113.337 6.28739C112.9 6.49485 112.516 6.80106 112.213 7.1827C111.501 8.10383 111.146 9.25928 111.216 10.4293C111.166 11.2197 111.358 12.0065 111.764 12.6816C111.898 12.9043 112.083 13.0901 112.304 13.2228C112.524 13.3555 112.774 13.4309 113.029 13.4425C113.667 13.3867 114.266 13.1069 114.723 12.6512C115.39 12.0478 115.943 11.3259 116.356 10.5206V10.48Z" fill="#FF0000"/>
<path d="M9.53283 26.9767V23.2838H7.92908V22.6953H11.9135V23.2838H10.2899V26.9767H9.53283Z" fill="white"/>
<path d="M16.1072 26.6926C15.6162 26.9481 15.0746 27.0869 14.5233 27.0985C14.2424 27.1041 13.9639 27.045 13.7086 26.9256C13.4533 26.8061 13.2278 26.6293 13.0491 26.4086C12.6899 25.9713 12.4988 25.4161 12.5112 24.8461C12.5004 24.2685 12.6949 23.7064 13.0591 23.2634C13.2337 23.0431 13.4556 22.8663 13.7077 22.7468C13.9598 22.6272 14.2354 22.5679 14.5134 22.5735C14.7716 22.559 15.0289 22.6154 15.2585 22.7367C15.488 22.8581 15.6814 23.04 15.8183 23.2634C16.0698 23.732 16.1904 24.2619 16.1669 24.7954V24.9476H13.2682C13.255 25.34 13.3785 25.7245 13.6169 26.0332C13.7354 26.185 13.8873 26.3064 14.0603 26.3874C14.2334 26.4685 14.4227 26.507 14.613 26.4999C15.1406 26.4765 15.6541 26.3196 16.1072 26.0433V26.6926ZM13.3479 24.42H15.4597V24.3186C15.4691 24.0334 15.3888 23.7525 15.2306 23.5171C15.1504 23.4032 15.044 23.3113 14.9206 23.2493C14.7972 23.1874 14.6608 23.1574 14.5233 23.162C14.3662 23.1576 14.2103 23.1912 14.0683 23.2599C13.9263 23.3287 13.8024 23.4307 13.7065 23.5576C13.515 23.8082 13.3914 24.1056 13.3479 24.42Z" fill="white"/>
<path d="M20.8487 24.4405C20.8765 25.0826 20.6904 25.7154 20.3207 26.2363C20.1301 26.492 19.8826 26.698 19.5986 26.8373C19.3146 26.9767 19.0022 27.0454 18.6871 27.0378L17.9002 26.9769V28.6408H17.2029V22.6955H17.9002V23.7101C18.0774 23.4185 18.3073 23.1638 18.5775 22.9593C18.844 22.7511 19.1682 22.6339 19.5039 22.6245C19.7188 22.6184 19.9312 22.673 20.1176 22.7822C20.3039 22.8914 20.457 23.051 20.5598 23.2434C20.7602 23.6086 20.86 24.0223 20.8487 24.4405ZM20.0916 24.542C20.0996 24.2594 20.0451 23.9785 19.9322 23.7202C19.8891 23.587 19.8066 23.4707 19.6961 23.3871C19.5855 23.3036 19.4523 23.2569 19.3147 23.2535C18.9893 23.2857 18.6891 23.4458 18.4779 23.6999C18.2468 23.9408 18.046 24.21 17.8802 24.5014V26.3378C18.1105 26.4036 18.3483 26.4377 18.5875 26.4392C18.8139 26.4428 19.0375 26.3868 19.2364 26.2766C19.4354 26.1664 19.603 26.0058 19.7231 25.8102C19.9718 25.4365 20.1006 24.9934 20.0916 24.542Z" fill="white"/>
<path d="M25.4807 24.4405C25.499 25.0861 25.3024 25.719 24.9228 26.2363C24.7366 26.4944 24.4914 26.7022 24.2085 26.8419C23.9255 26.9816 23.6134 27.0488 23.2992 27.0378L22.5122 26.9769V28.6408H21.8149V22.6955H22.5122V23.7101C22.6867 23.4163 22.917 23.1611 23.1896 22.9593C23.4516 22.7499 23.7731 22.6325 24.106 22.6245C24.3209 22.6184 24.5333 22.673 24.7197 22.7822C24.906 22.8914 25.0591 23.051 25.1619 23.2434C25.3722 23.6058 25.4824 24.0195 25.4807 24.4405ZM24.7136 24.542C24.7204 24.2605 24.6695 23.9806 24.5642 23.7202C24.5199 23.5878 24.4371 23.4723 24.3268 23.3889C24.2165 23.3056 24.0839 23.2584 23.9466 23.2535C23.6183 23.2852 23.3149 23.4452 23.0999 23.6999C22.8723 23.9414 22.6749 24.2106 22.5122 24.5014V26.3378C22.7391 26.4035 22.9736 26.4376 23.2095 26.4392C23.4373 26.4426 23.6621 26.3866 23.8626 26.2765C24.0632 26.1664 24.2327 26.0059 24.355 25.8102C24.5962 25.4334 24.7211 24.9917 24.7136 24.542Z" fill="white"/>
<path d="M29.2858 23.7099L27.1939 26.9767H26.4867V22.6953H27.1939V25.323V25.9216L29.2858 22.6953H29.9831V26.9767H29.2858V23.7099Z" fill="white"/>
<path d="M32.4634 26.9767V23.2838H30.8696V22.6953H34.8541V23.2838H33.2703V26.9767H32.4634Z" fill="white"/>
<path d="M37.4838 27.0985C37.202 27.1077 36.9218 27.0513 36.6645 26.9335C36.4073 26.8157 36.1799 26.6396 35.9996 26.4187C35.6406 25.9594 35.4598 25.3817 35.4916 24.7955C35.4663 24.2177 35.6507 23.6507 36.0096 23.2026C36.1966 22.9867 36.4265 22.8138 36.6841 22.6953C36.9417 22.5769 37.2211 22.5156 37.5038 22.5156C37.7864 22.5156 38.0658 22.5769 38.3235 22.6953C38.5811 22.8138 38.811 22.9867 38.9979 23.2026C39.3374 23.6587 39.5037 24.2244 39.4661 24.7955C39.489 25.3697 39.3047 25.9327 38.9481 26.3782C38.7755 26.6055 38.5533 26.7889 38.2992 26.9139C38.0451 27.0389 37.766 27.1021 37.4838 27.0985ZM37.4838 26.4999C37.6826 26.5141 37.8813 26.4712 38.0574 26.3762C38.2335 26.2811 38.3799 26.1377 38.48 25.9622C38.6566 25.6011 38.7324 25.1975 38.6991 24.7955C38.7131 24.3988 38.6201 24.0058 38.4302 23.6592C38.3287 23.4957 38.1882 23.3611 38.0219 23.2678C37.8556 23.1745 37.6688 23.1255 37.4789 23.1255C37.289 23.1255 37.1022 23.1745 36.9359 23.2678C36.7695 23.3611 36.6291 23.4957 36.5276 23.6592C36.3445 24.0071 36.2487 24.3957 36.2487 24.7904C36.2487 25.1851 36.3445 25.5737 36.5276 25.9216C36.6124 26.1039 36.7488 26.2563 36.9191 26.3593C37.0894 26.4624 37.2861 26.5113 37.4838 26.4999Z" fill="white"/>
<path d="M43.9885 24.4407C44.0068 25.0862 43.8102 25.7191 43.4306 26.2364C43.2444 26.4945 42.9992 26.7024 42.7163 26.842C42.4333 26.9817 42.1212 27.0489 41.807 27.0379L41.02 26.977V28.6409H40.3228V22.6956H41.02V23.7102C41.1945 23.4165 41.4248 23.1612 41.6974 22.9594C41.9601 22.7513 42.2812 22.634 42.6138 22.6246C42.8302 22.6178 43.0442 22.672 43.2323 22.7812C43.4204 22.8904 43.5752 23.0504 43.6797 23.2435C43.887 23.6068 43.9937 24.0205 43.9885 24.4407ZM43.2314 24.5421C43.235 24.2599 43.1807 23.98 43.072 23.7203C43.0289 23.5871 42.9464 23.4708 42.8359 23.3873C42.7253 23.3037 42.5921 23.257 42.4544 23.2536C42.1285 23.2836 41.8275 23.4442 41.6177 23.7C41.3837 23.9383 41.1826 24.208 41.02 24.5015V26.3379C41.247 26.4029 41.4815 26.437 41.7173 26.4393C41.9451 26.4428 42.1699 26.3867 42.3705 26.2766C42.571 26.1665 42.7405 26.006 42.8629 25.8103C43.1075 25.4347 43.2359 24.9929 43.2314 24.5421Z" fill="white"/>
<path d="M47.7837 23.7099L45.7018 26.9767H45.0045V22.6953H45.7018V25.323V25.9216L47.7936 22.6953H48.4909V26.9767H47.7936L47.7837 23.7099Z" fill="white"/>
<path d="M51.549 25.2722L50.2939 26.9766H49.3676L50.782 25.1504C50.4894 25.0444 50.2334 24.854 50.0449 24.6026C49.8484 24.3483 49.7429 24.0333 49.7461 23.7098C49.7378 23.5537 49.7703 23.3983 49.8403 23.2592C49.9103 23.1202 50.0153 23.0026 50.1445 22.9184C50.4088 22.7578 50.7137 22.6801 51.0211 22.6952H53.093V26.9766H52.3858V25.2722H51.549ZM52.3858 24.6837V23.2836H51.3897C50.8219 23.2836 50.533 23.4663 50.533 23.8417C50.5461 24.0206 50.6055 24.1928 50.7053 24.3408C50.805 24.4887 50.9415 24.6071 51.1008 24.6837H52.3858Z" fill="white"/>
<path d="M10.9373 32.7095H8.87538V36.4025H8.1781V32.1211H11.6446V36.4025H10.9373V32.7095Z" fill="white"/>
<path d="M16.4259 33.8663C16.4443 34.5119 16.2477 35.1448 15.8681 35.6621C15.6809 35.9216 15.4341 36.1304 15.1493 36.2701C14.8645 36.4098 14.5504 36.4763 14.2345 36.4636L13.4575 36.4027V38.0666H12.7502V32.1213H13.4575V33.1358C13.6284 32.8426 13.8553 32.5873 14.1249 32.3851C14.3913 32.1768 14.7156 32.0597 15.0513 32.0503C15.2662 32.0442 15.4786 32.0988 15.6649 32.208C15.8513 32.3172 16.0043 32.4768 16.1072 32.6691C16.3175 33.0316 16.4277 33.4453 16.4259 33.8663ZM15.6589 33.9678C15.6669 33.6851 15.6124 33.4043 15.4995 33.146C15.4577 33.012 15.3756 32.8948 15.2647 32.8111C15.1539 32.7273 15.0199 32.6812 14.8819 32.6793C14.5572 32.7135 14.2577 32.8733 14.0452 33.1257C13.8176 33.3671 13.6202 33.6364 13.4575 33.9272V35.7635C13.6843 35.8293 13.9189 35.8634 14.1548 35.865C14.3864 35.8788 14.6175 35.8308 14.8254 35.7258C15.0333 35.6208 15.2107 35.4625 15.3401 35.2664C15.5812 34.8649 15.6926 34.3966 15.6589 33.9272V33.9678Z" fill="white"/>
<path d="M19.1653 36.5237C18.8849 36.5329 18.6062 36.4764 18.3506 36.3586C18.095 36.2407 17.8693 36.0647 17.6911 35.844C17.3615 35.3826 17.184 34.8268 17.184 34.2562C17.184 33.6857 17.3615 33.1298 17.6911 32.6684C17.878 32.4525 18.108 32.2796 18.3656 32.1611C18.6232 32.0427 18.9026 31.9814 19.1853 31.9814C19.4679 31.9814 19.7473 32.0427 20.0049 32.1611C20.2626 32.2796 20.4925 32.4525 20.6794 32.6684C21.0291 33.1211 21.2092 33.6857 21.1875 34.2613C21.2095 34.8338 21.0292 35.3953 20.6794 35.844C20.4971 36.0703 20.265 36.2497 20.002 36.3678C19.739 36.4859 19.4524 36.5393 19.1653 36.5237ZM19.1653 35.9252C19.3641 35.9393 19.5628 35.8965 19.7389 35.8014C19.915 35.7064 20.0614 35.5629 20.1615 35.3874C20.353 35.0452 20.4462 34.6549 20.4304 34.2613C20.4444 33.8646 20.3514 33.4716 20.1615 33.125C20.0605 32.9593 19.9196 32.8226 19.7523 32.7278C19.585 32.633 19.3967 32.5833 19.2052 32.5833C19.0137 32.5833 18.8254 32.633 18.6581 32.7278C18.4907 32.8226 18.3499 32.9593 18.2489 33.125C18.0724 33.475 17.9803 33.8627 17.9803 34.2562C17.9803 34.6497 18.0724 35.0375 18.2489 35.3874C18.3387 35.5562 18.4708 35.6977 18.6318 35.7975C18.7928 35.8973 18.9769 35.9519 19.1653 35.9556V35.9252Z" fill="white"/>
<path d="M22.9007 36.4025H22.1337V32.1211H25.2316V32.7095H22.9007V36.4025Z" fill="white"/>
<path d="M29.7639 33.8663C29.7823 34.5119 29.5857 35.1448 29.2061 35.6621C29.0189 35.9216 28.7721 36.1304 28.4873 36.2701C28.2025 36.4098 27.8884 36.4763 27.5725 36.4636L26.7955 36.4027V38.0666H26.0883V32.1213H26.7955V33.1358C26.9664 32.8426 27.1933 32.5873 27.4629 32.3851C27.7293 32.1768 28.0536 32.0597 28.3893 32.0503C28.6042 32.0442 28.8166 32.0988 29.0029 32.208C29.1893 32.3172 29.3423 32.4768 29.4452 32.6691C29.6555 33.0316 29.7657 33.4453 29.7639 33.8663ZM28.9969 33.9678C29.0049 33.6851 28.9504 33.4043 28.8375 33.146C28.7957 33.012 28.7136 32.8948 28.6027 32.8111C28.4919 32.7273 28.358 32.6812 28.2199 32.6793C27.8952 32.7135 27.5957 32.8733 27.3832 33.1257C27.1556 33.3671 26.9582 33.6364 26.7955 33.9272V35.7635C27.0224 35.8293 27.2569 35.8634 27.4928 35.865C27.7178 35.8717 27.9408 35.8203 28.1411 35.7157C28.3414 35.611 28.5124 35.4565 28.6383 35.2664C28.8933 34.8696 29.0188 34.4009 28.9969 33.9272V33.9678Z" fill="white"/>
<path d="M33.5292 35.4387C33.3582 35.7289 33.1311 35.9809 32.8619 36.1793C32.596 36.3899 32.272 36.5105 31.9355 36.5242C31.7258 36.5332 31.5176 36.4853 31.3321 36.3855C31.1466 36.2857 30.9905 36.1375 30.8796 35.9561C30.659 35.5757 30.5485 35.1396 30.5608 34.698C30.5389 34.0472 30.7396 33.4089 31.1286 32.8921C31.3154 32.6386 31.5599 32.4351 31.8409 32.299C32.122 32.1629 32.4313 32.0984 32.7423 32.1109L33.5292 32.1718H34.2664V35.2155C34.2526 35.6408 34.3064 36.0656 34.4258 36.4735H33.6886C33.6139 36.1324 33.5607 35.7867 33.5292 35.4387ZM33.5292 34.5864V32.7501C33.3012 32.6918 33.0671 32.6612 32.832 32.6588C32.6091 32.6498 32.3877 32.6992 32.1889 32.8022C31.9901 32.9053 31.8205 33.0585 31.6964 33.2472C31.4402 33.6326 31.3111 34.0909 31.3278 34.556C31.3218 34.8384 31.3762 35.1189 31.4872 35.3778C31.5302 35.5082 31.6115 35.6221 31.7203 35.7038C31.829 35.7855 31.9598 35.831 32.0948 35.8343C32.258 35.8208 32.4168 35.7743 32.5622 35.6977C32.7075 35.6211 32.8365 35.5158 32.9415 35.3879C33.1747 35.1514 33.3727 34.8813 33.5292 34.5864Z" fill="white"/>
<path d="M36.0794 36.4025H35.4618V32.1211H36.2587L37.6034 35.1648L38.9582 32.1211H39.7052V36.4025H38.998V33.2574L38.8386 33.785L37.9322 35.8141H37.205L36.2886 33.785L36.1093 33.2574V33.785L36.0794 36.4025Z" fill="white"/>
<path d="M41.3886 36.4025H40.781V32.1211H41.5381L42.8928 35.1648L44.2375 32.1211H44.9846V36.4025H44.2774V33.2574L44.118 33.785L43.2115 35.8141H42.4844L41.5679 33.785L41.3886 33.2574V33.785V36.4025Z" fill="white"/>
<path d="M48.8695 33.1356L46.7876 36.4025H46.0903V32.1211H46.7876V34.7488V35.3474L48.8795 32.1211H49.5767V36.4025H48.8795L48.8695 33.1356Z" fill="white"/>
<path d="M53.88 36.281C53.4511 36.4359 53.0002 36.5181 52.5452 36.5245C52.2521 36.533 51.9606 36.4787 51.6895 36.3651C51.4183 36.2515 51.1737 36.0811 50.9713 35.865C50.5829 35.4268 50.3678 34.8574 50.3678 34.2671C50.3678 33.6767 50.5829 33.1073 50.9713 32.6691C51.1632 32.4525 51.3986 32.2805 51.6616 32.165C51.9247 32.0494 52.209 31.993 52.4954 31.9995C52.9635 32.0047 53.4277 32.0869 53.87 32.243V32.9126C53.4631 32.7071 53.0188 32.5896 52.5651 32.5677C52.3609 32.5613 52.158 32.6039 51.9729 32.692C51.7878 32.7802 51.6255 32.9113 51.4993 33.075C51.2537 33.4048 51.1207 33.8074 51.1207 34.2214C51.1207 34.6354 51.2537 35.038 51.4993 35.3679C51.6336 35.5252 51.8009 35.6497 51.9888 35.7323C52.1768 35.8148 52.3806 35.8532 52.5851 35.8447C53.0183 35.8219 53.4453 35.7294 53.8501 35.5708L53.88 36.281Z" fill="white"/>
<path d="M56.1212 36.4025V32.7095H54.5175V32.1211H58.5019V32.7095H56.8782V36.4025H56.1212Z" fill="white"/>
<path d="M60.9424 36.5237C60.6605 36.533 60.3803 36.4765 60.1231 36.3587C59.8659 36.2409 59.6385 36.0649 59.4582 35.844C59.1084 35.3953 58.9281 34.8338 58.9502 34.2613C58.9249 33.6836 59.1092 33.1165 59.4682 32.6684C59.6551 32.4525 59.885 32.2796 60.1427 32.1611C60.4003 32.0427 60.6797 31.9814 60.9623 31.9814C61.245 31.9814 61.5244 32.0427 61.782 32.1611C62.0396 32.2796 62.2696 32.4525 62.4565 32.6684C62.8138 33.1175 62.9979 33.6838 62.9745 34.2613C62.9973 34.8356 62.8131 35.3985 62.4565 35.844C62.2752 36.0715 62.0433 36.2519 61.78 36.3701C61.5168 36.4883 61.2296 36.5409 60.9424 36.5237ZM60.9424 35.9252C61.1412 35.9393 61.3399 35.8965 61.516 35.8014C61.6921 35.7064 61.8384 35.5629 61.9385 35.3874C62.1081 35.0384 62.1837 34.6498 62.1577 34.2613C62.1717 33.8646 62.0787 33.4716 61.8887 33.125C61.7872 32.9615 61.6468 32.8269 61.4804 32.7336C61.3141 32.6403 61.1273 32.5914 60.9374 32.5914C60.7475 32.5914 60.5607 32.6403 60.3944 32.7336C60.2281 32.8269 60.0876 32.9615 59.9861 33.125C59.803 33.4729 59.7072 33.8615 59.7072 34.2562C59.7072 34.6509 59.803 35.0395 59.9861 35.3874C60.0725 35.5679 60.2094 35.7181 60.3796 35.8193C60.5499 35.9204 60.7457 35.9679 60.9424 35.9556V35.9252Z" fill="white"/>
<path d="M63.9009 36.4019V32.1205H65.6441C65.98 32.094 66.3179 32.1319 66.6402 32.2321C66.802 32.3018 66.9381 32.4217 67.0293 32.5746C67.1205 32.7276 67.1621 32.9059 67.1482 33.0843C67.1352 33.3038 67.062 33.5152 66.937 33.6946C66.812 33.8739 66.6402 34.0139 66.441 34.0989C66.6839 34.175 66.899 34.3234 67.0586 34.525C67.2096 34.7373 67.2898 34.9933 67.2877 35.2555C67.2878 35.4517 67.2362 35.6445 67.1383 35.8135C67.0381 35.9854 66.8934 36.1258 66.7199 36.2193C66.4445 36.3301 66.1488 36.3785 65.8533 36.3613L63.9009 36.4019ZM66.3912 33.1655C66.4014 33.083 66.3844 32.9994 66.343 32.9278C66.3015 32.8562 66.2379 32.8006 66.1621 32.7698C65.9865 32.706 65.8003 32.6784 65.6142 32.6886H64.6181V33.9264H65.8234C66.1919 33.7438 66.3912 33.5003 66.3912 33.1655ZM66.5207 35.1946C66.5207 34.7177 66.182 34.4743 65.5245 34.4743H64.6081V35.8642H65.7437C65.9359 35.8739 66.1256 35.8167 66.2816 35.7019C66.366 35.6407 66.4327 35.5577 66.4748 35.4613C66.5168 35.3649 66.5327 35.2588 66.5207 35.154V35.1946Z" fill="white"/>
<path d="M12.2324 45.8277H11.3558L10.2899 43.5957V45.8277H9.53288V43.5957L8.46704 45.8277H7.59045L8.72603 43.5044L7.66018 41.5361H8.42719L9.53288 43.5652V41.5361H10.2899V43.5652L11.3956 41.5361H12.1626L11.0968 43.5044L12.2324 45.8277Z" fill="white"/>
<path d="M16.3363 45.5432C15.8405 45.7954 15.2965 45.9339 14.7426 45.949C14.4633 45.9532 14.1867 45.8933 13.9333 45.7739C13.6798 45.6545 13.456 45.4786 13.2783 45.2591C12.9275 44.8129 12.7363 44.2582 12.7363 43.6866C12.7363 43.1149 12.9275 42.5603 13.2783 42.114C13.453 41.8937 13.6748 41.7169 13.9269 41.5973C14.179 41.4778 14.4546 41.4185 14.7326 41.4241C14.9908 41.4096 15.2481 41.4659 15.4777 41.5873C15.7072 41.7087 15.9006 41.8906 16.0375 42.114C16.2718 42.5876 16.3751 43.1172 16.3363 43.646V43.7982H13.4675C13.456 44.1904 13.5794 44.5743 13.8162 44.8838C13.9336 45.0368 14.0853 45.1591 14.2586 45.2403C14.4319 45.3215 14.6217 45.3592 14.8123 45.3504C15.3501 45.3321 15.8745 45.1751 16.3363 44.8939V45.5432ZM13.5273 43.2706H15.6391V43.159C15.647 42.8771 15.5668 42.6 15.41 42.3677C15.3282 42.253 15.2201 42.1607 15.095 42.0987C14.9699 42.0368 14.8317 42.0072 14.6928 42.0126C14.5373 42.0098 14.3833 42.0441 14.2432 42.1128C14.1031 42.1815 13.9807 42.2827 13.8859 42.4082C13.6837 42.6556 13.5496 42.9532 13.4974 43.2706H13.5273Z" fill="white"/>
<path d="M20.7989 45.8275H20.1016V42.1346H18.8365V42.6013C18.8458 43.3771 18.779 44.152 18.6373 44.9144C18.5778 45.2141 18.414 45.4819 18.1761 45.6683C17.9381 45.8547 17.642 45.9473 17.3424 45.929C17.1882 45.9302 17.0345 45.9132 16.8842 45.8783V45.229C17.0311 45.2819 17.1866 45.306 17.3424 45.3C17.6711 45.3 17.8902 45.0666 18.0098 44.5796C18.0861 44.0761 18.1227 43.5672 18.1193 43.0578V41.5664H20.769L20.7989 45.8275Z" fill="white"/>
<path d="M25.3013 45.5432C24.8051 45.7942 24.2613 45.9326 23.7075 45.949C23.4283 45.9532 23.1517 45.8933 22.8982 45.7739C22.6448 45.6545 22.4209 45.4786 22.2432 45.2591C21.8924 44.8129 21.7013 44.2582 21.7013 43.6866C21.7013 43.1149 21.8924 42.5603 22.2432 42.114C22.4179 41.8937 22.6398 41.7169 22.8919 41.5973C23.1439 41.4778 23.4195 41.4185 23.6976 41.4241C23.9558 41.4096 24.2131 41.4659 24.4427 41.5873C24.6722 41.7087 24.8655 41.8906 25.0025 42.114C25.2367 42.5876 25.34 43.1172 25.3013 43.646V43.7982H22.4425C22.431 44.1904 22.5543 44.5743 22.7911 44.8838C22.9085 45.0368 23.0602 45.1591 23.2335 45.2403C23.4068 45.3215 23.5967 45.3592 23.7872 45.3504C24.3216 45.3304 24.8424 45.1734 25.3013 44.8939V45.5432ZM22.4923 43.2706H24.604V43.159C24.612 42.8771 24.5318 42.6 24.3749 42.3677C24.2932 42.253 24.185 42.1607 24.0599 42.0987C23.9348 42.0368 23.7967 42.0072 23.6577 42.0126C23.5022 42.0098 23.3483 42.0441 23.2082 42.1128C23.0681 42.1815 22.9457 42.2827 22.8509 42.4082C22.6522 42.6567 22.5216 42.9542 22.4723 43.2706H22.4923Z" fill="white"/>
<path d="M29.505 44.5289C29.5006 44.7327 29.4463 44.9322 29.3472 45.1093C29.248 45.2865 29.1072 45.4357 28.9372 45.5434C28.5863 45.7888 28.1674 45.9133 27.7419 45.8985C27.1818 45.8905 26.6279 45.777 26.1083 45.5637V44.8028C26.5856 45.1296 27.1468 45.3061 27.722 45.3101C27.9674 45.3146 28.2079 45.24 28.4093 45.097C28.5084 45.0376 28.5907 44.9532 28.6482 44.8519C28.7058 44.7506 28.7368 44.6358 28.738 44.5187C28.7502 44.3875 28.7223 44.2557 28.6581 44.1413C28.5939 44.0269 28.4966 43.9355 28.3794 43.8796C28.1439 43.7769 27.8881 43.7317 27.6323 43.7477H27.1144V43.2201H27.7419C27.937 43.2282 28.1294 43.1712 28.2898 43.0578C28.3699 42.9927 28.4335 42.909 28.4751 42.8136C28.5167 42.7183 28.5352 42.6141 28.5288 42.5099C28.5288 42.1447 28.2599 41.9621 27.712 41.9621C27.1732 41.9808 26.6525 42.1647 26.2178 42.4896V41.7693C26.6853 41.519 27.2039 41.3835 27.7319 41.3736C28.0779 41.3654 28.4204 41.4457 28.7281 41.607C28.8892 41.6823 29.0252 41.8042 29.119 41.9575C29.2129 42.1108 29.2605 42.2887 29.256 42.4693C29.264 42.6768 29.2139 42.8824 29.1116 43.062C29.0093 43.2416 28.859 43.3879 28.6783 43.4839C28.9128 43.5351 29.123 43.6669 29.2735 43.8571C29.4241 44.0474 29.5058 44.2845 29.505 44.5289Z" fill="white"/>
<path d="M33.2703 44.8634C33.1023 45.156 32.8748 45.4085 32.6029 45.604C32.3365 45.8123 32.0123 45.9294 31.6765 45.9388C31.4628 45.9448 31.2516 45.8912 31.0655 45.784C30.8795 45.6767 30.7257 45.5198 30.6207 45.3301C30.3941 44.9514 30.2768 44.5155 30.282 44.0721C30.2573 43.4225 30.4544 42.7843 30.8398 42.2661C31.0266 42.0126 31.2711 41.8091 31.5521 41.673C31.8332 41.5369 32.1425 41.4724 32.4535 41.4849C32.5531 41.4849 32.8121 41.4849 33.2404 41.4849H33.9477V44.5286C33.9339 44.954 33.9877 45.3788 34.1071 45.7867H33.3699C33.3203 45.481 33.2871 45.1728 33.2703 44.8634ZM33.2703 44.0112V42.1748C33.0459 42.1139 32.8152 42.0799 32.583 42.0734C32.3579 42.0657 32.1345 42.1167 31.934 42.2214C31.7336 42.3261 31.5627 42.4812 31.4375 42.672C31.1813 43.0573 31.0522 43.5157 31.0689 43.9807C31.0617 44.26 31.1162 44.5374 31.2283 44.7924C31.2701 44.9264 31.3523 45.0435 31.4631 45.1273C31.5739 45.2111 31.7079 45.2572 31.8459 45.2591C32.1706 45.2249 32.4701 45.0651 32.6826 44.8127C32.9187 44.5787 33.1171 44.3082 33.2703 44.0112Z" fill="white"/>
<path d="M35.3223 46.0098H34.635L38.3505 39.6992H39.0179L35.3223 46.0098Z" fill="white"/>
<path d="M38.7589 46.0098H38.0715L41.7771 39.6992H42.4445L38.7589 46.0098Z" fill="white"/>
<path d="M0.68732 27.1602H0L3.71552 20.8496H4.38291L0.68732 27.1602Z" fill="white"/>
<path d="M4.12397 27.1602H3.38684L7.10236 20.8496H7.76975L4.12397 27.1602Z" fill="white"/>
</g>
<defs>
<clipPath id="clip0">
<rect width="118" height="46" fill="white"/>
</clipPath>
</defs>
</svg>
