<svg width="51" height="44" viewBox="0 0 51 44" fill="none" xmlns="http://www.w3.org/2000/svg">
<path d="M25.5 27.2422C24.6761 27.2422 24.0059 26.6639 24.0059 25.9531C24.0059 25.4339 24.364 24.9676 24.9182 24.765C25.5873 24.5206 26.3879 24.7292 27.1155 25.3373C27.7081 25.8326 28.654 25.8197 29.2282 25.3085C29.8024 24.7972 29.7874 23.9811 29.1948 23.4858C28.5202 22.9219 27.7704 22.5234 26.9941 22.2985V20.7969C26.9941 20.085 26.3252 19.5078 25.5 19.5078C24.6748 19.5078 24.0059 20.085 24.0059 20.7969V22.3069C23.9211 22.3329 23.8366 22.3604 23.7528 22.391C22.0913 22.9982 21.0176 24.3964 21.0176 25.9531C21.0176 28.0855 23.0284 29.8203 25.5 29.8203C26.3239 29.8203 26.9941 30.3986 26.9941 31.1094C26.9941 31.6496 26.5992 32.1367 26.0114 32.3214C25.2439 32.5624 24.3505 32.2354 23.5604 31.4237C23.0297 30.8785 22.0873 30.8078 21.4554 31.2657C20.8234 31.7236 20.7415 32.5367 21.2722 33.0818C22.0799 33.9115 23.0201 34.4805 24.006 34.7669V36.2656C24.006 36.9775 24.6749 37.5547 25.5001 37.5547C26.3253 37.5547 26.9942 36.9775 26.9942 36.2656V34.7554C27.0076 34.7514 27.0209 34.7479 27.0342 34.7438C28.7976 34.1896 29.9824 32.729 29.9824 31.1094C29.9824 28.977 27.9716 27.2422 25.5 27.2422Z" fill="#269DFF"/>
<path d="M39.3376 19.3582C37.5618 17.4733 35.5318 15.9717 33.3033 14.8918C33.6683 14.5192 33.9562 14.0824 34.1422 13.5956C34.8719 11.6784 33.806 9.40105 31.0854 8.65915L34.8993 2.92153C35.3806 2.19742 34.9482 1.27514 34.0204 1.04242C31.2628 0.350711 28.3962 0 25.5 0C22.6038 0 19.7372 0.350711 16.9796 1.04242C16.0507 1.2754 15.62 2.19828 16.1007 2.92153L19.9146 8.65923C17.2047 9.39735 16.1254 11.6713 16.8582 13.5966C17.0436 14.0821 17.3314 14.5187 17.6975 14.8914C15.4687 15.9713 13.4385 17.4732 11.6625 19.3582C8.11229 23.1263 6.07617 27.8792 6.07617 32.3984C6.07617 41.7734 14.7469 44 25.5 44C36.2607 44 44.9238 41.7697 44.9238 32.3984C44.9238 27.8792 42.8877 23.1263 39.3376 19.3582ZM19.6725 3.11248C21.5787 2.75748 23.5315 2.57812 25.5 2.57812C27.4685 2.57812 29.4213 2.75748 31.3275 3.11248L28.0372 8.06266C26.3519 7.85967 24.6486 7.85976 22.9629 8.06274L19.6725 3.11248ZM20.6486 11.1629C23.22 10.4352 25.9103 10.2973 28.5257 10.7484C28.5288 10.7489 28.532 10.7494 28.5351 10.7499C29.1447 10.8555 29.7502 10.9928 30.3493 11.1623C31.1323 11.385 31.5602 12.1157 31.3035 12.7901C31.117 13.2785 30.6244 13.6148 30.045 13.6693C28.5552 13.2669 27.0357 13.0625 25.5 13.0625C23.9674 13.0625 22.4509 13.266 20.964 13.6668C20.3756 13.6146 19.8818 13.2758 19.6969 12.7913C19.4398 12.1157 19.8677 11.3849 20.6486 11.1629ZM25.5 41.4391C13.8262 41.4391 9.06445 38.8077 9.06445 32.3984C9.06445 28.519 10.9025 24.2522 13.9812 20.9844C17.2279 17.5384 21.3187 15.6406 25.5 15.6406C30.1026 15.6406 34.1283 17.9164 37.0188 20.9844C40.0975 24.2522 41.9355 28.519 41.9355 32.3984C41.9355 38.8077 37.1738 41.4391 25.5 41.4391Z" fill="#269DFF"/>
</svg>
