<svg width="86" height="86" viewBox="0 0 86 86" fill="none" xmlns="http://www.w3.org/2000/svg">
<path d="M57.8174 46.4862L50.4969 43.2327C49.9797 43.0029 49.6458 42.4887 49.6458 41.923V39.9128C52.1049 37.9534 53.6855 34.9362 53.6855 31.555V28.7252C54.4956 28.2775 55.0319 27.4125 55.0319 26.4437V26.169C55.0319 20.2773 50.2386 15.484 44.3469 15.484H41.654C35.7623 15.484 30.969 20.2773 30.969 26.169V28.6608C30.969 29.5125 31.3355 30.2839 31.9743 30.7776C32.0826 30.8612 32.1967 30.9348 32.3154 30.9985V31.5548C32.3154 34.936 33.8959 37.9532 36.3548 39.9124V41.9228C36.3548 42.4886 36.0207 43.0027 35.5037 43.2325L28.1832 46.4861C25.7858 47.5515 24.2366 49.9353 24.2366 52.5588V69.2556C24.2366 69.9513 24.8007 70.5154 25.4964 70.5154C26.1921 70.5154 26.7562 69.9513 26.7562 69.2556V52.559C26.7562 52.413 26.7666 52.2687 26.7817 52.1256L30.1549 55.4988C30.6798 56.0238 30.969 56.7218 30.969 57.4644V69.2558C30.969 69.9515 31.533 70.5155 32.2288 70.5155C32.9245 70.5155 33.4885 69.9515 33.4885 69.2558V57.4644C33.4885 56.0489 32.9374 54.7182 31.9365 53.7173L27.9152 49.6958C28.2775 49.3199 28.7122 49.0083 29.2067 48.7884L36.4036 45.5898L41.7409 50.927V69.2556C41.7409 69.9513 42.3049 70.5154 43.0006 70.5154C43.6964 70.5154 44.2604 69.9513 44.2604 69.2556V50.9272L49.5976 45.5899L56.7944 48.7884C57.2889 49.0083 57.7236 49.3199 58.0859 49.6959L54.0646 53.7173C53.0637 54.7182 52.5126 56.0489 52.5126 57.4644V69.2558C52.5126 69.9515 53.0766 70.5155 53.7723 70.5155C54.4681 70.5155 55.0321 69.9515 55.0321 69.2558V57.4644C55.0321 56.7219 55.3212 56.0238 55.8462 55.4988L59.2192 52.1258C59.2343 52.2689 59.2448 52.4128 59.2448 52.5588V69.2556C59.2448 69.9513 59.8088 70.5154 60.5045 70.5154C61.2003 70.5154 61.7643 69.9513 61.7643 69.2556V52.559C61.7638 49.9355 60.2148 47.5517 57.8174 46.4862ZM43.0001 48.6238L38.317 43.9405C38.6731 43.3413 38.8741 42.6481 38.8741 41.923V41.4104C40.1445 41.9442 41.5385 42.24 43.0003 42.24C44.4621 42.24 45.8559 41.9443 47.1261 41.4105V41.923C47.1261 42.6483 47.3272 43.3413 47.6834 43.9407L43.0001 48.6238ZM43.0003 39.7203C38.4979 39.7204 34.8348 36.0574 34.8348 31.555V30.9884C35.6209 30.6768 36.3882 30.181 37.1227 29.5032C37.6339 29.0314 37.6659 28.2344 37.1939 27.7231C36.7221 27.2119 35.9253 27.1799 35.4138 27.6517C34.7838 28.2334 34.1542 28.6091 33.5431 28.7687C33.5283 28.7725 33.5174 28.7742 33.5097 28.7749C33.5006 28.7573 33.4884 28.7203 33.4884 28.661V26.1692C33.4884 21.6668 37.1514 18.0037 41.6539 18.0037H44.3467C48.8493 18.0037 52.5122 21.6668 52.5122 26.1692V26.4438C52.5122 26.4846 52.4877 26.5201 52.4554 26.5265C44.9118 28.0163 41.1281 25.2084 39.8515 23.9318C39.3596 23.4399 38.5619 23.4399 38.0701 23.9318C37.5781 24.4238 37.5781 25.2215 38.0701 25.7133C41.9821 29.6253 47.6905 29.6959 51.1658 29.2783V31.5548C51.1658 36.0572 47.5027 39.7203 43.0003 39.7203Z" fill="url(#paint0_linear)"/>
<path d="M22.7165 39.6342V36.9408C22.7165 33.6543 21.0086 30.7612 18.4351 29.0963C18.594 28.5865 18.677 28.0525 18.677 27.5155C18.677 24.5935 16.2999 22.2164 13.3779 22.2164C10.4559 22.2164 8.07881 24.5937 8.07881 27.5155C8.07881 28.0592 8.16111 28.588 8.32035 29.0966C5.74706 30.7614 4.03932 33.6545 4.03932 36.9408V39.6336C4.03932 42.8162 5.64057 45.6303 8.07864 47.3171V50.0874C8.07864 50.6338 7.77512 51.1249 7.2865 51.3693L2.92921 53.5479C1.12237 54.4515 0 56.2676 0 58.2878V69.256C0 69.9517 0.56404 70.5158 1.25977 70.5158C1.9555 70.5158 2.51954 69.9517 2.51954 69.256V58.8327L4.57178 60.8849C5.09669 61.41 5.38593 62.1079 5.38593 62.8505V69.256C5.38593 69.9517 5.94997 70.5158 6.6457 70.5158C7.34142 70.5158 7.90546 69.9517 7.90546 69.256V62.8505C7.90546 61.435 7.35419 60.1044 6.35343 59.1034L3.49712 56.2471C3.48334 56.2334 3.46856 56.2214 3.45445 56.2085C3.63368 56.0503 3.83473 55.9125 4.05612 55.8017L8.4134 53.6231C8.63663 53.5114 8.84441 53.3796 9.03808 53.2331L12.1181 56.3133V69.2562C12.1181 69.9519 12.6822 70.5159 13.3779 70.5159C14.0736 70.5159 14.6377 69.9519 14.6377 69.2562V56.3131L17.7179 53.2329C17.9117 53.3796 18.1193 53.5114 18.3426 53.623L19.544 54.2238C19.7249 54.3143 19.9171 54.3571 20.1066 54.3571C20.5687 54.3571 21.0136 54.1018 21.2343 53.6606C21.5456 53.0383 21.2933 52.2816 20.6709 51.9705L19.4695 51.3696C18.9807 51.1253 18.6772 50.6341 18.6772 50.0879V47.3176C21.1152 45.6308 22.7165 42.8165 22.7165 39.6342ZM13.3779 24.736C14.9106 24.736 16.1574 25.983 16.1574 27.5155C16.1574 27.6843 16.1423 27.8498 16.1134 28.0119C15.2477 27.7461 14.3294 27.6022 13.3779 27.6022C12.4277 27.6022 11.5106 27.7456 10.6462 28.0107C10.6172 27.8486 10.5983 27.684 10.5983 27.5155C10.5983 25.9828 11.8452 24.736 13.3779 24.736ZM13.3779 30.1219C17.1379 30.1219 20.1969 33.1809 20.1969 36.9409V37.3975C14.9521 39.0033 11.8264 35.0135 11.6928 34.8386C11.4736 34.5465 11.1385 34.3638 10.7744 34.3379C10.4102 34.3124 10.0524 34.4456 9.79428 34.7038C8.59179 35.9062 7.41399 36.4862 6.56339 36.7662C6.65661 33.0867 9.67653 30.1219 13.3779 30.1219ZM13.3779 54.0096L10.4668 51.0985C10.5518 50.7737 10.5983 50.4351 10.5983 50.0875V48.5498C11.4767 48.8242 12.4104 48.9722 13.3779 48.9722C14.3454 48.9722 15.2791 48.8242 16.1574 48.5498V50.0875C16.1574 50.4351 16.204 50.7739 16.289 51.0985L13.3779 54.0096ZM13.3779 46.4527C9.61791 46.4527 6.55886 43.3936 6.55886 39.6336V39.3726C7.56348 39.1418 9.05303 38.6055 10.6069 37.3558C11.1567 37.8745 11.9424 38.5108 12.943 39.0565C14.1265 39.702 15.761 40.2991 17.7575 40.2991C18.5162 40.2991 19.328 40.211 20.1862 40.0084C19.9908 43.5949 17.0121 46.4527 13.3779 46.4527Z" fill="url(#paint1_linear)"/>
<path d="M83.0709 50.8552L76.0208 47.3301C75.5322 47.0857 75.2286 46.5945 75.2286 46.0483V44.2629C76.8789 42.7977 77.9215 40.6625 77.9215 38.2874V36.8535C77.9506 36.8535 77.9791 36.8543 78.0082 36.8543C78.7039 36.8543 79.268 36.2903 79.268 35.5946V32.9017C79.268 28.4948 75.6827 24.9095 71.2758 24.9095H68.583C64.1761 24.9095 60.5908 28.4948 60.5908 32.9017V35.5946C60.5908 36.2903 61.1549 36.8543 61.8506 36.8543C61.861 36.8543 61.8912 36.854 61.9373 36.8521V38.2874C61.9373 40.6627 62.98 42.7979 64.6303 44.2631V46.0485C64.6303 46.5949 64.3268 47.086 63.838 47.3302C63.2157 47.6413 62.9634 48.398 63.2746 49.0203C63.4953 49.4618 63.9403 49.7171 64.4024 49.7171C64.5917 49.7171 64.7838 49.6742 64.9647 49.5839C65.188 49.4722 65.3957 49.3403 65.5894 49.1938L68.6696 52.2741V69.2562C68.6696 69.952 69.2337 70.516 69.9294 70.516C70.6251 70.516 71.1892 69.952 71.1892 69.2562V52.2737L74.2692 49.1935C74.463 49.3401 74.6707 49.472 74.8939 49.5835L81.7159 52.9946L79.6467 55.0639C78.646 56.0648 78.0947 57.3954 78.0947 58.8109V69.2559C78.0947 69.9516 78.6587 70.5157 79.3545 70.5157C80.0502 70.5157 80.6142 69.9516 80.6142 69.2559V58.8109C80.6142 58.0685 80.9033 57.3704 81.4284 56.8453L83.3884 54.8853C83.4479 55.1132 83.4805 55.3509 83.4805 55.5948V69.2559C83.4805 69.9516 84.0445 70.5157 84.7402 70.5157C85.436 70.5157 86 69.9516 86 69.2559V55.5948C86.0002 53.5748 84.8778 51.7587 83.0709 50.8552ZM63.1102 34.0756V32.9015H63.1104C63.1104 29.884 65.5654 27.4289 68.583 27.4289H71.2758C74.2934 27.4289 76.7484 29.884 76.7484 32.9015V34.3009C71.2721 34.0054 67.9673 31.8744 67.9353 31.8534C67.7221 31.7113 67.4789 31.6417 67.2368 31.6417C66.9117 31.6417 66.5892 31.7674 66.3456 32.0108C65.1403 33.2161 63.9593 33.7963 63.1102 34.0756ZM69.9294 49.9704L67.0183 47.0593C67.1033 46.7344 67.1498 46.3958 67.1498 46.0483V45.78C68.0159 46.1024 68.9523 46.2794 69.9294 46.2794C70.9065 46.2794 71.8429 46.1024 72.7089 45.78V46.0483C72.7089 46.3958 72.7553 46.7344 72.8405 47.0593L69.9294 49.9704ZM69.9294 43.76C66.9118 43.76 64.4568 41.3052 64.4568 38.2874V36.2565C65.3391 35.904 66.3671 35.3434 67.4132 34.4522C68.7361 35.1405 71.5039 36.3303 75.402 36.7233V38.2874C75.402 41.305 72.947 43.76 69.9294 43.76Z" fill="url(#paint2_linear)"/>
<defs>
<linearGradient id="paint0_linear" x1="43.0005" y1="15.484" x2="43.0005" y2="70.5155" gradientUnits="userSpaceOnUse">
<stop stop-color="#268AFF"/>
<stop offset="1" stop-color="#26D8FF"/>
</linearGradient>
<linearGradient id="paint1_linear" x1="11.3582" y1="22.2164" x2="11.3582" y2="70.5159" gradientUnits="userSpaceOnUse">
<stop stop-color="#268AFF"/>
<stop offset="1" stop-color="#26D8FF"/>
</linearGradient>
<linearGradient id="paint2_linear" x1="73.2954" y1="24.9095" x2="73.2954" y2="70.516" gradientUnits="userSpaceOnUse">
<stop stop-color="#268AFF"/>
<stop offset="1" stop-color="#26D8FF"/>
</linearGradient>
</defs>
</svg>
