<svg width="74" height="74" viewBox="0 0 74 74" fill="none" xmlns="http://www.w3.org/2000/svg">
<g clip-path="url(#clip0)">
<path d="M70.1806 42.4363C72.0788 39.1747 73.3428 35.5016 73.8035 31.5857C73.8052 31.5733 73.8064 31.5609 73.808 31.5485C73.9334 30.4701 74 29.3737 74 28.2621C74 20.9215 71.1862 14.2262 66.5815 9.19637C66.5081 9.09361 66.4217 8.99989 66.3235 8.91916C63.3324 5.73778 59.6152 3.24631 55.4379 1.71518C55.3628 1.6813 55.2849 1.65308 55.2053 1.63275C52.2441 0.576996 49.0576 0 45.7379 0C42.0354 0 38.4973 0.717011 35.2538 2.01723C35.1657 2.04376 35.081 2.07877 34.9991 2.12167C31.011 3.76572 27.479 6.29727 24.6494 9.46849C24.5568 9.55035 24.4743 9.64238 24.4049 9.744C20.091 14.7077 17.4759 21.1851 17.4759 28.2621C17.4759 29.3229 17.5368 30.3702 17.6514 31.4011C17.6526 31.4141 17.6543 31.4265 17.656 31.4389C17.866 33.3099 18.2595 35.1256 18.8179 36.8685L3.63586 52.0504C3.07129 52.615 3.07129 53.5302 3.63586 54.0948C3.91815 54.3771 4.28795 54.5182 4.65775 54.5182C5.02754 54.5182 5.39734 54.3771 5.67963 54.0948L19.951 39.824C20.3484 40.7064 20.7899 41.5657 21.2726 42.3973C21.3167 42.4967 21.3726 42.5899 21.4375 42.6762C25.0203 48.6929 30.7722 53.2728 37.6069 55.3301L27.4254 65.511C26.8614 66.0756 26.8614 66.9908 27.4254 67.5554C27.7077 67.8377 28.078 67.9788 28.4478 67.9788C28.8176 67.9788 29.1874 67.8377 29.4697 67.5554L40.9142 56.1103C42.4826 56.3813 44.0939 56.5241 45.7379 56.5241C56.033 56.5241 65.0588 50.9896 70 42.7406C70.0723 42.6469 70.1332 42.5453 70.1806 42.4363ZM57.6753 42.4933L52.5332 34.5802L55.2674 26.1652L61.7662 24.7058L63.4571 24.3264L70.8457 31.9137C70.3969 35.0144 69.3852 37.9355 67.9173 40.5698L57.6753 42.4933ZM38.9433 34.5802L33.8034 42.4894L23.5298 40.5179C22.058 37.8615 21.0496 34.9145 20.6126 31.7867L28.0108 24.3242L36.209 26.1652L38.0309 31.7732L38.9433 34.5802ZM24.7007 14.0941L26.0043 22.2426L20.371 27.925C20.4382 22.8105 22.0241 18.0557 24.7007 14.0941ZM41.581 33.3444L39.028 25.4872L45.7114 20.6318L52.3948 25.4877L49.8418 33.3444H41.581ZM71.1066 28.0385L65.4439 22.2234L66.4449 13.617C69.3411 17.7006 71.0597 22.6733 71.1066 28.0385ZM63.8913 10.5564L62.612 21.5538L59.5023 22.2516L54.468 23.3819L47.2098 18.1087V10.2843L55.054 4.66226C58.4081 5.99127 61.4122 8.01584 63.8913 10.5564ZM51.6061 3.57715L45.677 7.82671L39.0669 3.78265C41.1937 3.20227 43.4299 2.89062 45.7379 2.89062C47.7574 2.89062 49.7221 3.12888 51.6061 3.57715ZM35.5592 5.02472L44.2661 10.3521V18.1087L39.1465 21.8282L37.0085 23.3819L28.8199 21.5436L27.1374 11.0273C29.4889 8.49121 32.3507 6.43559 35.5592 5.02472ZM25.765 43.8901L33.5634 45.3873L37.5352 52.2718C32.843 50.6644 28.7668 47.7179 25.765 43.8901ZM41.4477 53.2688L36.1797 44.1374L41.315 36.235H50.1608L55.2962 44.1374L50.0293 53.2682C48.6336 53.507 47.2002 53.6329 45.7379 53.6329C44.2757 53.6335 42.8428 53.5076 41.4477 53.2688ZM53.9412 52.2718L57.9107 45.3902L65.6793 43.9307C62.6808 47.7388 58.617 50.6701 53.9412 52.2718Z" fill="url(#paint0_linear)"/>
<path d="M19.9052 52.0504L0.423431 71.5328C-0.141144 72.0974 -0.141144 73.0126 0.423431 73.5771C0.705719 73.8589 1.07552 74 1.44531 74C1.81511 74 2.18491 73.8589 2.46719 73.5766L21.9496 54.0948C22.5136 53.5302 22.5136 52.615 21.9496 52.0504C21.385 51.4864 20.4698 51.4864 19.9052 52.0504Z" fill="url(#paint1_linear)"/>
<path d="M24.0137 69.5212C23.6337 69.5212 23.2611 69.6759 22.9924 69.9447C22.7236 70.2134 22.5684 70.586 22.5684 70.9677C22.5684 71.3476 22.7231 71.7191 22.9924 71.9884C23.2611 72.2589 23.6337 72.413 24.0137 72.413C24.3942 72.413 24.7668 72.2589 25.0356 71.9884C25.3043 71.7197 25.459 71.3476 25.459 70.9677C25.459 70.586 25.3049 70.2134 25.0356 69.9447C24.7668 69.6759 24.3942 69.5212 24.0137 69.5212Z" fill="url(#paint2_linear)"/>
</g>
<defs>
<linearGradient id="paint0_linear" x1="38.6062" y1="0" x2="38.6062" y2="67.9788" gradientUnits="userSpaceOnUse">
<stop stop-color="#26A4FF"/>
<stop offset="1" stop-color="#26CBFF"/>
</linearGradient>
<linearGradient id="paint1_linear" x1="11.1863" y1="51.6274" x2="11.1863" y2="74" gradientUnits="userSpaceOnUse">
<stop stop-color="#26A4FF"/>
<stop offset="1" stop-color="#26CBFF"/>
</linearGradient>
<linearGradient id="paint2_linear" x1="24.0137" y1="69.5212" x2="24.0137" y2="72.413" gradientUnits="userSpaceOnUse">
<stop stop-color="#26A4FF"/>
<stop offset="1" stop-color="#26CBFF"/>
</linearGradient>
<clipPath id="clip0">
<rect width="74" height="74" fill="white"/>
</clipPath>
</defs>
</svg>
