<svg width="79" height="79" viewBox="0 0 79 79" fill="none" xmlns="http://www.w3.org/2000/svg">
<g clip-path="url(#clip0)">
<path d="M71.5938 41.2281H60.9954L72.4665 29.757C72.9491 29.2744 72.9491 28.4943 72.4665 28.0116L49.0133 4.55851C48.5307 4.07587 47.7506 4.07587 47.2679 4.55851L10.5983 41.2281H-2.46875C-3.15136 41.2281 -3.70312 41.7811 -3.70312 42.4625V74.5562C-3.70312 75.2376 -3.15136 75.7906 -2.46875 75.7906H15.5358L20.1117 80.3664C20.3524 80.6071 20.6684 80.7281 20.9844 80.7281C21.3004 80.7281 21.6164 80.6071 21.8571 80.3664L26.4341 75.7906H71.5938C72.2764 75.7906 72.8281 75.2376 72.8281 74.5562V42.4625C72.8281 41.7811 72.2764 41.2281 71.5938 41.2281ZM48.1406 7.17662L69.8483 28.8843L57.5046 41.2281H48.0801C47.7975 38.0681 46.4347 35.1327 44.1635 32.8615C38.8705 27.5685 30.2558 27.5673 24.9603 32.8615C22.6903 35.1327 21.3275 38.0681 21.0436 41.2281H14.0879L48.1406 7.17662ZM28.6708 41.2281C28.503 40.4257 28.7276 39.5679 29.325 38.9717L31.5827 41.2281H28.6708ZM41.9873 41.2281C41.8515 41.0491 41.7058 40.8763 41.5454 40.7171C39.6185 38.7927 36.4881 38.7914 34.5625 40.7171L31.0705 37.2262C32.0036 36.2943 33.6281 36.2943 34.5613 37.2262L36.3067 35.4808C35.3735 34.5489 34.1342 34.0354 32.8159 34.0354C31.4975 34.0354 30.257 34.5489 29.325 35.4808L29.3238 35.4821L28.4511 34.6094L26.7057 36.3548L27.5784 37.2275C26.4934 38.3125 26.0132 39.7826 26.1675 41.2306H23.5247C23.8 38.731 24.901 36.414 26.7045 34.6094C31.0371 30.278 38.0842 30.2792 42.4168 34.6094C44.2202 36.414 45.3225 38.731 45.5966 41.2306H41.9873V41.2281ZM20.9844 77.7483L19.0267 75.7906H22.9421L20.9844 77.7483ZM70.3594 73.3218H-1.23438V43.6968H70.3594V73.3218Z" fill="url(#paint0_linear)"/>
<path d="M30.8594 62.2125H28.3906C28.3906 64.9355 30.6051 67.15 33.3281 67.15V68.3844H35.7969V67.15C38.5199 67.15 40.7344 64.9355 40.7344 62.2125C40.7344 59.4895 38.5199 57.275 35.7969 57.275V52.3375C37.1584 52.3375 38.2656 53.4448 38.2656 54.8063H40.7344C40.7344 52.0832 38.5199 49.8688 35.7969 49.8688V48.6344H33.3281V49.8688C30.6051 49.8688 28.3906 52.0832 28.3906 54.8063C28.3906 57.5293 30.6051 59.7438 33.3281 59.7438V64.6813C31.9666 64.6813 30.8594 63.574 30.8594 62.2125ZM30.8594 54.8063C30.8594 53.4448 31.9666 52.3375 33.3281 52.3375V57.275C31.9666 57.275 30.8594 56.1678 30.8594 54.8063ZM35.7969 59.7438C37.1584 59.7438 38.2656 60.851 38.2656 62.2125C38.2656 63.574 37.1584 64.6813 35.7969 64.6813V59.7438Z" fill="url(#paint1_linear)"/>
<path d="M34.5625 72.0875C42.049 72.0875 48.1406 65.9959 48.1406 58.5094C48.1406 51.0229 42.049 44.9313 34.5625 44.9313C27.076 44.9313 20.9844 51.0229 20.9844 58.5094C20.9844 65.9959 27.076 72.0875 34.5625 72.0875ZM34.5625 47.4C40.6887 47.4 45.6719 52.3844 45.6719 58.5094C45.6719 64.6344 40.6887 69.6188 34.5625 69.6188C28.4363 69.6188 23.4531 64.6344 23.4531 58.5094C23.4531 52.3844 28.4363 47.4 34.5625 47.4Z" fill="url(#paint2_linear)"/>
<path d="M67.8906 69.6188V47.4C67.8906 46.7186 67.3389 46.1656 66.6562 46.1656H51.8438V48.6344H65.4219V68.3844H51.8438V70.8531H66.6562C67.3389 70.8531 67.8906 70.3001 67.8906 69.6188Z" fill="url(#paint3_linear)"/>
<path d="M2.46875 70.8531H17.2812V68.3844H3.70312V48.6344H17.2812V46.1656H2.46875C1.78614 46.1656 1.23438 46.7186 1.23438 47.4V69.6188C1.23438 70.3001 1.78614 70.8531 2.46875 70.8531Z" fill="url(#paint4_linear)"/>
<path d="M51.8438 63.4469H54.3125V65.9156H51.8438V63.4469Z" fill="url(#paint5_linear)"/>
<path d="M56.7812 63.4469H59.25V65.9156H56.7812V63.4469Z" fill="url(#paint6_linear)"/>
<path d="M51.8438 51.1031H54.3125V53.5719H51.8438V51.1031Z" fill="url(#paint7_linear)"/>
<path d="M56.7812 51.1031H59.25V53.5719H56.7812V51.1031Z" fill="url(#paint8_linear)"/>
<path d="M48.4764 14.583L62.4409 28.5487L52.8399 38.1496L54.5853 39.895L65.059 29.4214C65.5416 28.9387 65.5416 28.1586 65.059 27.676L49.3491 11.9648C48.8862 11.502 48.0666 11.502 47.6037 11.9648L37.13 22.4385L38.8754 24.1839L48.4764 14.583Z" fill="url(#paint9_linear)"/>
<path d="M49.3416 34.6609L51.0872 32.9152L52.8329 34.6609L51.0872 36.4066L49.3416 34.6609Z" fill="url(#paint10_linear)"/>
<path d="M52.8315 31.1696L54.5772 29.4239L56.3228 31.1696L54.5772 32.9152L52.8315 31.1696Z" fill="url(#paint11_linear)"/>
<path d="M40.6144 25.9336L42.3601 24.1879L44.1057 25.9336L42.3601 27.6793L40.6144 25.9336Z" fill="url(#paint12_linear)"/>
<path d="M44.1043 22.4421L45.85 20.6965L47.5956 22.4421L45.85 24.1878L44.1043 22.4421Z" fill="url(#paint13_linear)"/>
<path d="M9.875 51.1031H12.3438V53.5719H9.875V51.1031Z" fill="url(#paint14_linear)"/>
<path d="M14.8125 51.1031H17.2812V53.5719H14.8125V51.1031Z" fill="url(#paint15_linear)"/>
<path d="M9.875 63.4469H12.3438V65.9156H9.875V63.4469Z" fill="url(#paint16_linear)"/>
<path d="M14.8125 63.4469H17.2812V65.9156H14.8125V63.4469Z" fill="url(#paint17_linear)"/>
</g>
<defs>
<linearGradient id="paint0_linear" x1="34.5627" y1="4.19653" x2="34.5627" y2="80.7281" gradientUnits="userSpaceOnUse">
<stop stop-color="#268AFF"/>
<stop offset="1" stop-color="#26ABFF"/>
</linearGradient>
<linearGradient id="paint1_linear" x1="34.5625" y1="48.6344" x2="34.5625" y2="68.3844" gradientUnits="userSpaceOnUse">
<stop stop-color="#268AFF"/>
<stop offset="1" stop-color="#26ABFF"/>
</linearGradient>
<linearGradient id="paint2_linear" x1="34.5625" y1="44.9313" x2="34.5625" y2="72.0875" gradientUnits="userSpaceOnUse">
<stop stop-color="#268AFF"/>
<stop offset="1" stop-color="#26ABFF"/>
</linearGradient>
<linearGradient id="paint3_linear" x1="59.8672" y1="46.1656" x2="59.8672" y2="70.8531" gradientUnits="userSpaceOnUse">
<stop stop-color="#268AFF"/>
<stop offset="1" stop-color="#26ABFF"/>
</linearGradient>
<linearGradient id="paint4_linear" x1="9.25781" y1="46.1656" x2="9.25781" y2="70.8531" gradientUnits="userSpaceOnUse">
<stop stop-color="#268AFF"/>
<stop offset="1" stop-color="#26ABFF"/>
</linearGradient>
<linearGradient id="paint5_linear" x1="53.0781" y1="63.4469" x2="53.0781" y2="65.9156" gradientUnits="userSpaceOnUse">
<stop stop-color="#268AFF"/>
<stop offset="1" stop-color="#26ABFF"/>
</linearGradient>
<linearGradient id="paint6_linear" x1="58.0156" y1="63.4469" x2="58.0156" y2="65.9156" gradientUnits="userSpaceOnUse">
<stop stop-color="#268AFF"/>
<stop offset="1" stop-color="#26ABFF"/>
</linearGradient>
<linearGradient id="paint7_linear" x1="53.0781" y1="51.1031" x2="53.0781" y2="53.5719" gradientUnits="userSpaceOnUse">
<stop stop-color="#268AFF"/>
<stop offset="1" stop-color="#26ABFF"/>
</linearGradient>
<linearGradient id="paint8_linear" x1="58.0156" y1="51.1031" x2="58.0156" y2="53.5719" gradientUnits="userSpaceOnUse">
<stop stop-color="#268AFF"/>
<stop offset="1" stop-color="#26ABFF"/>
</linearGradient>
<linearGradient id="paint9_linear" x1="51.2755" y1="11.6177" x2="51.2755" y2="39.895" gradientUnits="userSpaceOnUse">
<stop stop-color="#268AFF"/>
<stop offset="1" stop-color="#26ABFF"/>
</linearGradient>
<linearGradient id="paint10_linear" x1="50.2144" y1="33.7881" x2="51.9601" y2="35.5337" gradientUnits="userSpaceOnUse">
<stop stop-color="#268AFF"/>
<stop offset="1" stop-color="#26ABFF"/>
</linearGradient>
<linearGradient id="paint11_linear" x1="53.7043" y1="30.2967" x2="55.45" y2="32.0424" gradientUnits="userSpaceOnUse">
<stop stop-color="#268AFF"/>
<stop offset="1" stop-color="#26ABFF"/>
</linearGradient>
<linearGradient id="paint12_linear" x1="41.4872" y1="25.0608" x2="43.2329" y2="26.8064" gradientUnits="userSpaceOnUse">
<stop stop-color="#268AFF"/>
<stop offset="1" stop-color="#26ABFF"/>
</linearGradient>
<linearGradient id="paint13_linear" x1="44.9771" y1="21.5693" x2="46.7228" y2="23.315" gradientUnits="userSpaceOnUse">
<stop stop-color="#268AFF"/>
<stop offset="1" stop-color="#26ABFF"/>
</linearGradient>
<linearGradient id="paint14_linear" x1="11.1094" y1="51.1031" x2="11.1094" y2="53.5719" gradientUnits="userSpaceOnUse">
<stop stop-color="#268AFF"/>
<stop offset="1" stop-color="#26ABFF"/>
</linearGradient>
<linearGradient id="paint15_linear" x1="16.0469" y1="51.1031" x2="16.0469" y2="53.5719" gradientUnits="userSpaceOnUse">
<stop stop-color="#268AFF"/>
<stop offset="1" stop-color="#26ABFF"/>
</linearGradient>
<linearGradient id="paint16_linear" x1="11.1094" y1="63.4469" x2="11.1094" y2="65.9156" gradientUnits="userSpaceOnUse">
<stop stop-color="#268AFF"/>
<stop offset="1" stop-color="#26ABFF"/>
</linearGradient>
<linearGradient id="paint17_linear" x1="16.0469" y1="63.4469" x2="16.0469" y2="65.9156" gradientUnits="userSpaceOnUse">
<stop stop-color="#268AFF"/>
<stop offset="1" stop-color="#26ABFF"/>
</linearGradient>
<clipPath id="clip0">
<rect width="79" height="79" fill="white"/>
</clipPath>
</defs>
</svg>
