<svg width="22" height="21" viewBox="0 0 22 21" fill="none" xmlns="http://www.w3.org/2000/svg">
<path d="M17.3866 13.0087C16.9362 12.5611 16.3929 12.3218 15.8171 12.3218C15.246 12.3218 14.6981 12.5567 14.2291 13.0043L12.7619 14.4005C12.6412 14.3384 12.5204 14.2808 12.4044 14.2232C12.2372 14.1434 12.0793 14.068 11.9447 13.9883C10.5703 13.155 9.32123 12.0691 8.12327 10.6641C7.54287 9.96383 7.15283 9.37434 6.8696 8.776C7.25034 8.44358 7.60323 8.09787 7.94683 7.76546C8.07684 7.64136 8.20685 7.51282 8.33686 7.38872C9.31195 6.45796 9.31195 5.2524 8.33686 4.32164L7.06926 3.11166C6.92532 2.97426 6.77673 2.83243 6.63743 2.6906C6.35884 2.4158 6.06631 2.13214 5.7645 1.86621C5.31411 1.44072 4.77549 1.21468 4.20901 1.21468C3.64254 1.21468 3.09463 1.44072 2.63031 1.86621C2.62567 1.87064 2.62567 1.87064 2.62102 1.87507L1.04232 3.39532C0.447981 3.96264 0.109023 4.65406 0.0347313 5.45629C-0.0767067 6.75049 0.322613 7.95604 0.629067 8.74497C1.38127 10.6818 2.50494 12.4769 4.18115 14.4005C6.2149 16.7185 8.66189 18.549 11.4571 19.8388C12.5251 20.3219 13.9506 20.8936 15.5432 20.9911C15.6407 20.9956 15.7428 21 15.8357 21C16.9083 21 17.8091 20.6321 18.5149 19.9008C18.5195 19.8919 18.5288 19.8875 18.5334 19.8786C18.7749 19.5994 19.0535 19.3468 19.346 19.0764C19.5457 18.8947 19.75 18.7041 19.9496 18.5047C20.4093 18.0482 20.6508 17.5163 20.6508 16.9711C20.6508 16.4215 20.4047 15.8941 19.9357 15.4509L17.3866 13.0087ZM19.0488 17.6758C19.0442 17.6758 19.0442 17.6803 19.0488 17.6758C18.8678 17.862 18.682 18.0304 18.4824 18.2166C18.1806 18.4914 17.8741 18.7795 17.5862 19.103C17.1173 19.5817 16.5647 19.8077 15.8404 19.8077C15.7707 19.8077 15.6964 19.8077 15.6268 19.8033C14.2477 19.7191 12.9662 19.205 12.005 18.7662C9.37695 17.5517 7.06926 15.8276 5.15159 13.6425C3.56825 11.8209 2.50958 10.1367 1.80845 8.32835C1.37663 7.22473 1.21876 6.36489 1.28841 5.55379C1.33484 5.03523 1.54379 4.6053 1.92918 4.23743L3.51253 2.72605C3.74005 2.52217 3.98149 2.41137 4.2183 2.41137C4.51083 2.41137 4.74763 2.57979 4.89621 2.72162C4.90086 2.72605 4.9055 2.73049 4.91014 2.73492C5.19338 2.98755 5.46269 3.24905 5.74593 3.52828C5.88987 3.67011 6.03845 3.81194 6.18704 3.9582L7.45465 5.16819C7.94683 5.63801 7.94683 6.07236 7.45465 6.54217C7.31999 6.67071 7.18998 6.79924 7.05533 6.92334C6.66529 7.30451 6.29383 7.65909 5.88987 8.0048C5.88058 8.01366 5.8713 8.01809 5.86665 8.02696C5.46733 8.40813 5.54163 8.78043 5.62521 9.03307C5.62985 9.04636 5.63449 9.05966 5.63913 9.07296C5.96881 9.83529 6.43313 10.5533 7.1389 11.4087L7.14355 11.4132C8.42509 12.9201 9.77627 14.0946 11.2668 14.9944C11.4571 15.1096 11.6521 15.2027 11.8379 15.2913C12.005 15.3711 12.1629 15.4465 12.2976 15.5262C12.3161 15.5351 12.3347 15.5484 12.3533 15.5573C12.5111 15.6326 12.6597 15.6681 12.813 15.6681C13.1983 15.6681 13.4398 15.4376 13.5187 15.3622L15.1067 13.8464C15.2646 13.6957 15.5153 13.514 15.8079 13.514C16.0957 13.514 16.3325 13.6869 16.4765 13.8376C16.4811 13.842 16.4811 13.842 16.4858 13.8464L19.0442 16.2886C19.5225 16.7407 19.5225 17.206 19.0488 17.6758Z" fill="white"/>
<path d="M11.889 4.99535C13.1055 5.19036 14.2106 5.73995 15.0929 6.58207C15.9751 7.42419 16.5462 8.47905 16.7551 9.64029C16.8062 9.93281 17.0709 10.1367 17.3727 10.1367C17.4098 10.1367 17.4423 10.1323 17.4795 10.1278C17.8231 10.0746 18.0506 9.76439 17.9949 9.43641C17.7441 8.0314 17.0477 6.7505 15.9844 5.73552C14.9211 4.72055 13.5792 4.05572 12.1072 3.81638C11.7636 3.7632 11.4433 3.98037 11.3829 4.30392C11.3225 4.62747 11.5454 4.94216 11.889 4.99535Z" fill="white"/>
<path d="M21.9745 9.26355C21.5612 6.94994 20.419 4.84465 18.6638 3.16928C16.9087 1.49391 14.7031 0.403595 12.2794 0.00912974C11.9404 -0.0484888 11.62 0.173121 11.5597 0.496671C11.5039 0.824653 11.7315 1.13047 12.0751 1.18809C14.2388 1.53824 16.2122 2.51775 17.7816 4.0114C19.351 5.50948 20.3725 7.39316 20.7394 9.45857C20.7904 9.75109 21.0551 9.95497 21.3569 9.95497C21.3941 9.95497 21.4266 9.95054 21.4637 9.94611C21.8027 9.89735 22.0348 9.5871 21.9745 9.26355Z" fill="white"/>
</svg>
