<svg width="558" height="463" viewBox="0 0 558 463" fill="none" xmlns="http://www.w3.org/2000/svg">
<path d="M30.0404 449.883C30.0456 448.924 30.3894 448.13 31.0717 447.5C31.7592 446.865 32.6185 446.547 33.6498 446.547C34.6342 446.547 35.4649 446.844 36.142 447.438C36.8191 448.031 37.1576 448.76 37.1576 449.625C37.1576 450.24 36.9857 450.836 36.642 451.414C36.3034 451.987 35.6654 452.76 34.7279 453.734L31.5873 457.016V457.047H37.4467V458H30.0951V457.25L34.0795 453.039C34.8868 452.19 35.4232 451.542 35.6888 451.094C35.9597 450.646 36.0951 450.177 36.0951 449.688C36.0951 449.073 35.8555 448.552 35.3763 448.125C34.8972 447.698 34.3112 447.484 33.6185 447.484C32.8946 447.484 32.2904 447.714 31.806 448.172C31.3269 448.625 31.0821 449.195 31.0717 449.883V449.891H30.0404V449.883ZM42.9154 458.18C41.6394 458.18 40.6394 457.659 39.9154 456.617C39.1914 455.57 38.8295 454.151 38.8295 452.359C38.8295 450.578 39.1941 449.164 39.9232 448.117C40.6524 447.07 41.6498 446.547 42.9154 446.547C44.1862 446.547 45.1836 447.07 45.9076 448.117C46.6316 449.159 46.9935 450.57 46.9935 452.352C46.9935 454.143 46.6316 455.562 45.9076 456.609C45.1836 457.656 44.1862 458.18 42.9154 458.18ZM40.7045 455.93C41.2357 456.805 41.9727 457.242 42.9154 457.242C43.8581 457.242 44.5951 456.805 45.1263 455.93C45.6576 455.055 45.9232 453.865 45.9232 452.359C45.9232 450.865 45.655 449.68 45.1185 448.805C44.5873 447.93 43.8529 447.492 42.9154 447.492C41.9831 447.492 41.2487 447.932 40.7123 448.812C40.1758 449.693 39.9076 450.872 39.9076 452.352C39.9076 453.862 40.1732 455.055 40.7045 455.93ZM51.3685 458V447.875H51.3373C51.2644 447.922 50.7722 448.263 49.8607 448.898C48.9493 449.529 48.4336 449.88 48.3138 449.953V448.812C48.4076 448.755 48.9076 448.411 49.8138 447.781C50.7201 447.151 51.2331 446.799 51.3529 446.727H52.3998V458H51.3685ZM60.4623 458V455.453H54.7435V454.477C55.8998 452.534 57.6316 449.945 59.9388 446.711H61.5013V454.508H63.181V455.453H61.5013V458H60.4623ZM55.8217 454.477V454.508H60.4623V447.648H60.4467C58.5508 450.273 57.0092 452.549 55.8217 454.477Z" fill="#636363"/>
<path d="M120.04 449.883C120.046 448.924 120.389 448.13 121.072 447.5C121.759 446.865 122.619 446.547 123.65 446.547C124.634 446.547 125.465 446.844 126.142 447.438C126.819 448.031 127.158 448.76 127.158 449.625C127.158 450.24 126.986 450.836 126.642 451.414C126.303 451.987 125.665 452.76 124.728 453.734L121.587 457.016V457.047H127.447V458H120.095V457.25L124.079 453.039C124.887 452.19 125.423 451.542 125.689 451.094C125.96 450.646 126.095 450.177 126.095 449.688C126.095 449.073 125.856 448.552 125.376 448.125C124.897 447.698 124.311 447.484 123.619 447.484C122.895 447.484 122.29 447.714 121.806 448.172C121.327 448.625 121.082 449.195 121.072 449.883V449.891H120.04V449.883ZM132.915 458.18C131.639 458.18 130.639 457.659 129.915 456.617C129.191 455.57 128.829 454.151 128.829 452.359C128.829 450.578 129.194 449.164 129.923 448.117C130.652 447.07 131.65 446.547 132.915 446.547C134.186 446.547 135.184 447.07 135.908 448.117C136.632 449.159 136.994 450.57 136.994 452.352C136.994 454.143 136.632 455.562 135.908 456.609C135.184 457.656 134.186 458.18 132.915 458.18ZM130.704 455.93C131.236 456.805 131.973 457.242 132.915 457.242C133.858 457.242 134.595 456.805 135.126 455.93C135.658 455.055 135.923 453.865 135.923 452.359C135.923 450.865 135.655 449.68 135.119 448.805C134.587 447.93 133.853 447.492 132.915 447.492C131.983 447.492 131.249 447.932 130.712 448.812C130.176 449.693 129.908 450.872 129.908 452.352C129.908 453.862 130.173 455.055 130.704 455.93ZM141.369 458V447.875H141.337C141.264 447.922 140.772 448.263 139.861 448.898C138.949 449.529 138.434 449.88 138.314 449.953V448.812C138.408 448.755 138.908 448.411 139.814 447.781C140.72 447.151 141.233 446.799 141.353 446.727H142.4V458H141.369ZM148.962 458.18C148.285 458.18 147.665 458.047 147.103 457.781C146.546 457.516 146.098 457.146 145.759 456.672C145.421 456.198 145.228 455.661 145.181 455.062H146.228C146.301 455.693 146.595 456.214 147.111 456.625C147.626 457.031 148.249 457.234 148.978 457.234C149.816 457.234 150.504 456.969 151.04 456.438C151.582 455.901 151.853 455.219 151.853 454.391C151.853 453.568 151.585 452.885 151.048 452.344C150.517 451.802 149.842 451.531 149.025 451.531C148.457 451.531 147.939 451.659 147.47 451.914C147.001 452.169 146.637 452.521 146.376 452.969H145.353L145.994 446.727H152.244V447.68H146.876L146.454 451.844H146.486C146.762 451.458 147.139 451.156 147.619 450.938C148.103 450.714 148.629 450.602 149.197 450.602C150.27 450.602 151.158 450.958 151.861 451.672C152.569 452.385 152.923 453.284 152.923 454.367C152.923 455.482 152.551 456.396 151.806 457.109C151.061 457.823 150.113 458.18 148.962 458.18Z" fill="#636363"/>
<path d="M210.04 449.883C210.046 448.924 210.389 448.13 211.072 447.5C211.759 446.865 212.619 446.547 213.65 446.547C214.634 446.547 215.465 446.844 216.142 447.438C216.819 448.031 217.158 448.76 217.158 449.625C217.158 450.24 216.986 450.836 216.642 451.414C216.303 451.987 215.665 452.76 214.728 453.734L211.587 457.016V457.047H217.447V458H210.095V457.25L214.079 453.039C214.887 452.19 215.423 451.542 215.689 451.094C215.96 450.646 216.095 450.177 216.095 449.688C216.095 449.073 215.856 448.552 215.376 448.125C214.897 447.698 214.311 447.484 213.619 447.484C212.895 447.484 212.29 447.714 211.806 448.172C211.327 448.625 211.082 449.195 211.072 449.883V449.891H210.04V449.883ZM222.915 458.18C221.639 458.18 220.639 457.659 219.915 456.617C219.191 455.57 218.829 454.151 218.829 452.359C218.829 450.578 219.194 449.164 219.923 448.117C220.652 447.07 221.65 446.547 222.915 446.547C224.186 446.547 225.184 447.07 225.908 448.117C226.632 449.159 226.994 450.57 226.994 452.352C226.994 454.143 226.632 455.562 225.908 456.609C225.184 457.656 224.186 458.18 222.915 458.18ZM220.704 455.93C221.236 456.805 221.973 457.242 222.915 457.242C223.858 457.242 224.595 456.805 225.126 455.93C225.658 455.055 225.923 453.865 225.923 452.359C225.923 450.865 225.655 449.68 225.119 448.805C224.587 447.93 223.853 447.492 222.915 447.492C221.983 447.492 221.249 447.932 220.712 448.812C220.176 449.693 219.908 450.872 219.908 452.352C219.908 453.862 220.173 455.055 220.704 455.93ZM231.369 458V447.875H231.337C231.264 447.922 230.772 448.263 229.861 448.898C228.949 449.529 228.434 449.88 228.314 449.953V448.812C228.408 448.755 228.908 448.411 229.814 447.781C230.72 447.151 231.233 446.799 231.353 446.727H232.4V458H231.369ZM239.212 458.18C238.457 458.18 237.78 457.995 237.181 457.625C236.587 457.255 236.116 456.729 235.767 456.047C235.262 455.167 235.009 454.018 235.009 452.602C235.009 450.711 235.387 449.229 236.142 448.156C236.902 447.083 237.952 446.547 239.29 446.547C240.228 446.547 241.027 446.807 241.689 447.328C242.35 447.849 242.762 448.542 242.923 449.406H241.845C241.704 448.833 241.4 448.372 240.931 448.023C240.462 447.669 239.913 447.492 239.283 447.492C238.251 447.492 237.452 447.953 236.884 448.875C236.322 449.792 236.04 451.086 236.04 452.758H236.064C236.293 452.122 236.712 451.607 237.322 451.211C237.936 450.815 238.624 450.617 239.384 450.617C240.457 450.617 241.348 450.971 242.056 451.68C242.77 452.388 243.126 453.276 243.126 454.344C243.126 455.448 242.757 456.365 242.017 457.094C241.277 457.818 240.342 458.18 239.212 458.18ZM239.204 457.227C239.996 457.227 240.665 456.951 241.212 456.398C241.764 455.846 242.04 455.172 242.04 454.375C242.04 453.568 241.772 452.898 241.236 452.367C240.704 451.831 240.03 451.562 239.212 451.562C238.41 451.562 237.731 451.828 237.173 452.359C236.621 452.885 236.345 453.531 236.345 454.297C236.345 455.12 236.619 455.815 237.165 456.383C237.717 456.945 238.397 457.227 239.204 457.227Z" fill="#636363"/>
<path d="M300.04 449.883C300.046 448.924 300.389 448.13 301.072 447.5C301.759 446.865 302.619 446.547 303.65 446.547C304.634 446.547 305.465 446.844 306.142 447.438C306.819 448.031 307.158 448.76 307.158 449.625C307.158 450.24 306.986 450.836 306.642 451.414C306.303 451.987 305.665 452.76 304.728 453.734L301.587 457.016V457.047H307.447V458H300.095V457.25L304.079 453.039C304.887 452.19 305.423 451.542 305.689 451.094C305.96 450.646 306.095 450.177 306.095 449.688C306.095 449.073 305.856 448.552 305.376 448.125C304.897 447.698 304.311 447.484 303.619 447.484C302.895 447.484 302.29 447.714 301.806 448.172C301.327 448.625 301.082 449.195 301.072 449.883V449.891H300.04V449.883ZM312.915 458.18C311.639 458.18 310.639 457.659 309.915 456.617C309.191 455.57 308.829 454.151 308.829 452.359C308.829 450.578 309.194 449.164 309.923 448.117C310.652 447.07 311.65 446.547 312.915 446.547C314.186 446.547 315.184 447.07 315.908 448.117C316.632 449.159 316.994 450.57 316.994 452.352C316.994 454.143 316.632 455.562 315.908 456.609C315.184 457.656 314.186 458.18 312.915 458.18ZM310.704 455.93C311.236 456.805 311.973 457.242 312.915 457.242C313.858 457.242 314.595 456.805 315.126 455.93C315.658 455.055 315.923 453.865 315.923 452.359C315.923 450.865 315.655 449.68 315.119 448.805C314.587 447.93 313.853 447.492 312.915 447.492C311.983 447.492 311.249 447.932 310.712 448.812C310.176 449.693 309.908 450.872 309.908 452.352C309.908 453.862 310.173 455.055 310.704 455.93ZM321.369 458V447.875H321.337C321.264 447.922 320.772 448.263 319.861 448.898C318.949 449.529 318.434 449.88 318.314 449.953V448.812C318.408 448.755 318.908 448.411 319.814 447.781C320.72 447.151 321.233 446.799 321.353 446.727H322.4V458H321.369ZM325.994 458L331.22 447.711V447.68H324.947V446.727H332.29V447.727L327.126 458H325.994Z" fill="#636363"/>
<path d="M390.04 449.883C390.046 448.924 390.389 448.13 391.072 447.5C391.759 446.865 392.619 446.547 393.65 446.547C394.634 446.547 395.465 446.844 396.142 447.438C396.819 448.031 397.158 448.76 397.158 449.625C397.158 450.24 396.986 450.836 396.642 451.414C396.303 451.987 395.665 452.76 394.728 453.734L391.587 457.016V457.047H397.447V458H390.095V457.25L394.079 453.039C394.887 452.19 395.423 451.542 395.689 451.094C395.96 450.646 396.095 450.177 396.095 449.688C396.095 449.073 395.856 448.552 395.376 448.125C394.897 447.698 394.311 447.484 393.619 447.484C392.895 447.484 392.29 447.714 391.806 448.172C391.327 448.625 391.082 449.195 391.072 449.883V449.891H390.04V449.883ZM402.915 458.18C401.639 458.18 400.639 457.659 399.915 456.617C399.191 455.57 398.829 454.151 398.829 452.359C398.829 450.578 399.194 449.164 399.923 448.117C400.652 447.07 401.65 446.547 402.915 446.547C404.186 446.547 405.184 447.07 405.908 448.117C406.632 449.159 406.994 450.57 406.994 452.352C406.994 454.143 406.632 455.562 405.908 456.609C405.184 457.656 404.186 458.18 402.915 458.18ZM400.704 455.93C401.236 456.805 401.973 457.242 402.915 457.242C403.858 457.242 404.595 456.805 405.126 455.93C405.658 455.055 405.923 453.865 405.923 452.359C405.923 450.865 405.655 449.68 405.119 448.805C404.587 447.93 403.853 447.492 402.915 447.492C401.983 447.492 401.249 447.932 400.712 448.812C400.176 449.693 399.908 450.872 399.908 452.352C399.908 453.862 400.173 455.055 400.704 455.93ZM411.369 458V447.875H411.337C411.264 447.922 410.772 448.263 409.861 448.898C408.949 449.529 408.434 449.88 408.314 449.953V448.812C408.408 448.755 408.908 448.411 409.814 447.781C410.72 447.151 411.233 446.799 411.353 446.727H412.4V458H411.369ZM418.978 458.18C417.801 458.18 416.837 457.875 416.087 457.266C415.337 456.656 414.962 455.88 414.962 454.938C414.962 454.229 415.194 453.609 415.658 453.078C416.121 452.547 416.728 452.201 417.478 452.039V452.016C416.837 451.839 416.329 451.526 415.954 451.078C415.579 450.625 415.392 450.096 415.392 449.492C415.392 448.638 415.731 447.935 416.408 447.383C417.085 446.826 417.941 446.547 418.978 446.547C420.02 446.547 420.876 446.826 421.548 447.383C422.22 447.935 422.556 448.638 422.556 449.492C422.556 450.086 422.369 450.609 421.994 451.062C421.619 451.516 421.113 451.833 420.478 452.016V452.039C421.228 452.201 421.835 452.547 422.298 453.078C422.762 453.609 422.994 454.229 422.994 454.938C422.994 455.885 422.619 456.664 421.869 457.273C421.124 457.878 420.16 458.18 418.978 458.18ZM416.861 456.578C417.408 457.021 418.113 457.242 418.978 457.242C419.842 457.242 420.546 457.021 421.087 456.578C421.634 456.13 421.908 455.562 421.908 454.875C421.908 454.198 421.634 453.643 421.087 453.211C420.546 452.779 419.842 452.562 418.978 452.562C418.119 452.562 417.415 452.779 416.869 453.211C416.322 453.643 416.048 454.198 416.048 454.875C416.048 455.562 416.319 456.13 416.861 456.578ZM418.978 451.609C419.712 451.609 420.314 451.419 420.783 451.039C421.257 450.659 421.494 450.172 421.494 449.578C421.494 448.969 421.259 448.466 420.79 448.07C420.327 447.674 419.723 447.477 418.978 447.477C418.233 447.477 417.626 447.674 417.158 448.07C416.689 448.466 416.454 448.969 416.454 449.578C416.454 450.172 416.689 450.659 417.158 451.039C417.632 451.419 418.238 451.609 418.978 451.609Z" fill="#636363"/>
<path d="M480.04 449.883C480.046 448.924 480.389 448.13 481.072 447.5C481.759 446.865 482.619 446.547 483.65 446.547C484.634 446.547 485.465 446.844 486.142 447.438C486.819 448.031 487.158 448.76 487.158 449.625C487.158 450.24 486.986 450.836 486.642 451.414C486.303 451.987 485.665 452.76 484.728 453.734L481.587 457.016V457.047H487.447V458H480.095V457.25L484.079 453.039C484.887 452.19 485.423 451.542 485.689 451.094C485.96 450.646 486.095 450.177 486.095 449.688C486.095 449.073 485.856 448.552 485.376 448.125C484.897 447.698 484.311 447.484 483.619 447.484C482.895 447.484 482.29 447.714 481.806 448.172C481.327 448.625 481.082 449.195 481.072 449.883V449.891H480.04V449.883ZM492.915 458.18C491.639 458.18 490.639 457.659 489.915 456.617C489.191 455.57 488.829 454.151 488.829 452.359C488.829 450.578 489.194 449.164 489.923 448.117C490.652 447.07 491.65 446.547 492.915 446.547C494.186 446.547 495.184 447.07 495.908 448.117C496.632 449.159 496.994 450.57 496.994 452.352C496.994 454.143 496.632 455.562 495.908 456.609C495.184 457.656 494.186 458.18 492.915 458.18ZM490.704 455.93C491.236 456.805 491.973 457.242 492.915 457.242C493.858 457.242 494.595 456.805 495.126 455.93C495.658 455.055 495.923 453.865 495.923 452.359C495.923 450.865 495.655 449.68 495.119 448.805C494.587 447.93 493.853 447.492 492.915 447.492C491.983 447.492 491.249 447.932 490.712 448.812C490.176 449.693 489.908 450.872 489.908 452.352C489.908 453.862 490.173 455.055 490.704 455.93ZM501.369 458V447.875H501.337C501.264 447.922 500.772 448.263 499.861 448.898C498.949 449.529 498.434 449.88 498.314 449.953V448.812C498.408 448.755 498.908 448.411 499.814 447.781C500.72 447.151 501.233 446.799 501.353 446.727H502.4V458H501.369ZM508.767 458.18C507.819 458.18 507.014 457.919 506.353 457.398C505.691 456.872 505.283 456.18 505.126 455.32H506.212C506.353 455.893 506.655 456.357 507.119 456.711C507.582 457.065 508.134 457.242 508.775 457.242C509.78 457.242 510.564 456.802 511.126 455.922C511.689 455.036 511.983 453.799 512.009 452.211C512.009 452.19 512.007 452.151 512.001 452.094C512.001 452.031 512.001 451.984 512.001 451.953H511.994H511.986C511.772 452.589 511.358 453.107 510.744 453.508C510.129 453.909 509.436 454.109 508.665 454.109C507.592 454.109 506.699 453.758 505.986 453.055C505.277 452.346 504.923 451.464 504.923 450.406C504.923 449.292 505.293 448.37 506.033 447.641C506.772 446.911 507.707 446.547 508.837 446.547C509.598 446.547 510.275 446.732 510.869 447.102C511.467 447.471 511.939 447.997 512.283 448.68C512.788 449.56 513.04 450.708 513.04 452.125C513.04 454.016 512.663 455.497 511.908 456.57C511.152 457.643 510.106 458.18 508.767 458.18ZM508.837 453.164C509.645 453.164 510.324 452.898 510.876 452.367C511.434 451.836 511.712 451.19 511.712 450.43C511.712 449.612 511.436 448.922 510.884 448.359C510.332 447.792 509.652 447.508 508.845 447.508C508.043 447.508 507.369 447.784 506.822 448.336C506.275 448.888 506.001 449.568 506.001 450.375C506.001 451.167 506.27 451.831 506.806 452.367C507.342 452.898 508.02 453.164 508.837 453.164Z" fill="#636363"/>
<line x1="0.5" y1="435.961" x2="0.499981" y2="28.8464" stroke="#242424"/>
<line x1="111.732" y1="435.961" x2="111.732" y2="28.8464" stroke="#242424"/>
<line x1="222.964" y1="435.961" x2="222.963" y2="28.8464" stroke="#242424"/>
<line x1="334.195" y1="435.961" x2="334.195" y2="28.8464" stroke="#242424"/>
<line x1="445.427" y1="435.961" x2="445.427" y2="28.8464" stroke="#242424"/>
<line x1="556.659" y1="435.961" x2="556.659" y2="28.8464" stroke="#242424"/>
<line x1="556.157" y1="436.461" x2="1.00006" y2="436.461" stroke="#242424"/>
<line x1="556.157" y1="331.124" x2="1.00006" y2="331.124" stroke="#242424"/>
<line x1="556.157" y1="225.787" x2="1.00006" y2="225.787" stroke="#242424"/>
<line x1="556.157" y1="120.449" x2="1.00006" y2="120.449" stroke="#242424"/>
<g filter="url(#filter0_i)">
<path d="M556.157 435.961H1L43.0877 353.4L137.284 285.073L228.474 243.317L304.633 132.286L422.879 100.021L494.027 37.3875L556.157 28.8467V435.961Z" fill="url(#paint0_linear)"/>
</g>
<g filter="url(#filter1_d)">
<ellipse cx="43.0877" cy="354.348" rx="5.01044" ry="4.74493" fill="#26A4FF"/>
</g>
<g filter="url(#filter2_d)">
<ellipse cx="137.284" cy="284.124" rx="5.01044" ry="4.74493" fill="#26A4FF"/>
</g>
<g filter="url(#filter3_d)">
<ellipse cx="228.474" cy="242.368" rx="5.01044" ry="4.74493" fill="#26A4FF"/>
</g>
<g filter="url(#filter4_d)">
<ellipse cx="305.635" cy="133.235" rx="5.01044" ry="4.74493" fill="#26A4FF"/>
</g>
<g filter="url(#filter5_d)">
<ellipse cx="423.881" cy="99.0711" rx="5.01044" ry="4.74493" fill="#26A4FF"/>
</g>
<g filter="url(#filter6_d)">
<ellipse cx="496.031" cy="38.3367" rx="5.01044" ry="4.74493" fill="#26A4FF"/>
</g>
<path d="M15.2836 329.725V318.334H15.2484C15.1664 318.387 14.6127 318.771 13.5873 319.485C12.5619 320.194 11.9818 320.59 11.847 320.672V319.389C11.9525 319.324 12.515 318.938 13.5345 318.229C14.5541 317.52 15.1312 317.124 15.266 317.042H16.4437V329.725H15.2836ZM23.8265 329.927C23.0648 329.927 22.3676 329.777 21.7347 329.479C21.1078 329.18 20.6039 328.764 20.223 328.23C19.8422 327.697 19.6254 327.094 19.5726 326.42H20.7504C20.8324 327.129 21.1635 327.715 21.7435 328.178C22.3236 328.635 23.0238 328.863 23.8441 328.863C24.7875 328.863 25.5609 328.564 26.1644 327.967C26.7738 327.363 27.0785 326.596 27.0785 325.664C27.0785 324.738 26.7767 323.971 26.1732 323.361C25.5756 322.752 24.8168 322.447 23.8969 322.447C23.2582 322.447 22.6752 322.591 22.1478 322.878C21.6205 323.165 21.2103 323.561 20.9174 324.064H19.766L20.4867 317.042H27.5179V318.114H21.4799L21.0052 322.799H21.0404C21.351 322.365 21.7758 322.025 22.3148 321.779C22.8597 321.527 23.4515 321.401 24.0902 321.401C25.2972 321.401 26.2963 321.803 27.0873 322.605C27.8842 323.408 28.2826 324.419 28.2826 325.638C28.2826 326.892 27.8636 327.92 27.0258 328.723C26.1879 329.525 25.1215 329.927 23.8265 329.927ZM30.8051 329.725L36.6849 318.149V318.114H29.6273V317.042H37.889V318.167L32.0795 329.725H30.8051ZM44.5775 329.725H43.4261V320.584H44.8236L48.392 328.195H48.4535L52.0219 320.584H53.3666V329.725H52.2064V322.641H52.1625L48.849 329.54H47.9437L44.6302 322.641H44.5775V329.725ZM57.6644 325.778C57.6176 326.417 57.5443 326.965 57.4447 327.422C57.351 327.873 57.2133 328.289 57.0316 328.67C56.85 329.045 56.6068 329.329 56.3021 329.522C55.9974 329.71 55.6312 329.804 55.2035 329.804C55.016 329.804 54.8431 329.774 54.6849 329.716V328.661C54.8256 328.708 54.9808 328.731 55.1508 328.731C55.5961 328.731 55.9242 328.477 56.1351 327.967C56.3519 327.451 56.4955 326.71 56.5658 325.743C56.5892 325.503 56.6478 324.662 56.7416 323.221C56.8412 321.773 56.8998 320.895 56.9174 320.584H62.7709V329.725H61.6195V321.551H57.9633C57.8812 323.045 57.7816 324.454 57.6644 325.778ZM71.1205 329.725V325.471H66.0931V329.725H64.9418V320.584H66.0931V324.504H71.1205V320.584H72.2719V329.725H71.1205ZM82.8802 331.043H81.9662V329.804C80.7767 329.728 79.807 329.367 79.057 328.723C78.307 328.078 77.9261 327.267 77.9144 326.288H79.057C79.1039 326.962 79.391 327.524 79.9183 327.976C80.4515 328.421 81.1342 328.682 81.9662 328.758V323.669L81.4828 323.537C80.3754 323.256 79.5551 322.849 79.0219 322.315C78.4886 321.782 78.222 321.103 78.222 320.276C78.222 319.333 78.5619 318.554 79.2416 317.938C79.9271 317.317 80.8353 316.966 81.9662 316.884V315.671H82.8802V316.875C83.9701 316.951 84.8636 317.303 85.5609 317.93C86.264 318.551 86.6302 319.318 86.6595 320.232H85.517C85.4935 319.623 85.2328 319.102 84.7347 318.668C84.2426 318.234 83.6244 317.985 82.8802 317.921V322.702L83.39 322.834C84.6205 323.145 85.5111 323.569 86.0619 324.108C86.6127 324.642 86.8881 325.356 86.8881 326.253C86.8881 327.261 86.5277 328.084 85.807 328.723C85.0863 329.355 84.1107 329.713 82.8802 329.795V331.043ZM85.7279 326.341C85.7279 325.685 85.5052 325.163 85.0599 324.776C84.6205 324.39 83.8939 324.082 82.8802 323.854V328.775C83.7416 328.734 84.4301 328.494 84.9457 328.055C85.4672 327.609 85.7279 327.038 85.7279 326.341ZM79.3734 320.215C79.3734 320.807 79.5814 321.287 79.9974 321.656C80.4135 322.02 81.0697 322.301 81.9662 322.5V317.921C81.2162 317.956 80.5951 318.19 80.1029 318.624C79.6166 319.052 79.3734 319.582 79.3734 320.215Z" fill="white"/>
<path d="M101.463 265.08V253.689H101.428C101.346 253.742 100.792 254.126 99.7668 254.841C98.7415 255.55 98.1614 255.945 98.0266 256.027V254.744C98.1321 254.68 98.6946 254.293 99.7141 253.584C100.734 252.875 101.311 252.479 101.446 252.397H102.623V265.08H101.463ZM110.287 265.282C109.438 265.282 108.676 265.074 108.002 264.658C107.334 264.242 106.804 263.65 106.411 262.883C105.843 261.893 105.559 260.601 105.559 259.007C105.559 256.88 105.984 255.213 106.833 254.006C107.689 252.799 108.869 252.195 110.375 252.195C111.43 252.195 112.329 252.488 113.073 253.074C113.818 253.66 114.281 254.439 114.462 255.412H113.249C113.091 254.768 112.748 254.249 112.221 253.856C111.694 253.458 111.075 253.259 110.366 253.259C109.206 253.259 108.307 253.777 107.668 254.814C107.035 255.846 106.719 257.302 106.719 259.183H106.745C107.003 258.468 107.475 257.888 108.16 257.442C108.852 256.997 109.625 256.774 110.481 256.774C111.688 256.774 112.69 257.173 113.487 257.97C114.289 258.767 114.691 259.766 114.691 260.967C114.691 262.209 114.275 263.24 113.443 264.061C112.611 264.875 111.559 265.282 110.287 265.282ZM110.279 264.21C111.169 264.21 111.922 263.899 112.537 263.278C113.158 262.657 113.469 261.898 113.469 261.002C113.469 260.094 113.167 259.341 112.564 258.743C111.966 258.14 111.207 257.838 110.287 257.838C109.385 257.838 108.62 258.137 107.993 258.734C107.372 259.326 107.062 260.053 107.062 260.914C107.062 261.84 107.369 262.622 107.985 263.261C108.606 263.894 109.37 264.21 110.279 264.21ZM120.729 265.282C119.293 265.282 118.168 264.696 117.354 263.524C116.539 262.347 116.132 260.75 116.132 258.734C116.132 256.73 116.542 255.14 117.363 253.962C118.183 252.784 119.305 252.195 120.729 252.195C122.158 252.195 123.281 252.784 124.095 253.962C124.909 255.134 125.317 256.722 125.317 258.726C125.317 260.741 124.909 262.338 124.095 263.516C123.281 264.693 122.158 265.282 120.729 265.282ZM118.241 262.751C118.839 263.735 119.668 264.228 120.729 264.228C121.789 264.228 122.618 263.735 123.216 262.751C123.814 261.767 124.113 260.428 124.113 258.734C124.113 257.053 123.811 255.72 123.207 254.735C122.61 253.751 121.783 253.259 120.729 253.259C119.68 253.259 118.854 253.754 118.25 254.744C117.647 255.734 117.345 257.062 117.345 258.726C117.345 260.425 117.644 261.767 118.241 262.751ZM132.023 265.08H130.871V255.939H132.269L135.837 263.551H135.899L139.467 255.939H140.812V265.08H139.652V257.996H139.608L136.294 264.896H135.389L132.075 257.996H132.023V265.08ZM145.11 261.134C145.063 261.772 144.99 262.32 144.89 262.777C144.796 263.229 144.658 263.645 144.477 264.025C144.295 264.4 144.052 264.685 143.747 264.878C143.443 265.065 143.076 265.159 142.649 265.159C142.461 265.159 142.288 265.13 142.13 265.071V264.017C142.271 264.063 142.426 264.087 142.596 264.087C143.041 264.087 143.369 263.832 143.58 263.322C143.797 262.807 143.941 262.065 144.011 261.099C144.034 260.858 144.093 260.018 144.187 258.576C144.286 257.129 144.345 256.25 144.363 255.939H150.216V265.08H149.065V256.906H145.408C145.326 258.4 145.227 259.81 145.11 261.134ZM158.566 265.08V260.826H153.538V265.08H152.387V255.939H153.538V259.859H158.566V255.939H159.717V265.08H158.566ZM170.325 266.398H169.411V265.159C168.222 265.083 167.252 264.723 166.502 264.078C165.752 263.434 165.371 262.622 165.36 261.644H166.502C166.549 262.317 166.836 262.88 167.364 263.331C167.897 263.776 168.579 264.037 169.411 264.113V259.024L168.928 258.893C167.821 258.611 167 258.204 166.467 257.671C165.934 257.138 165.667 256.458 165.667 255.632C165.667 254.688 166.007 253.909 166.687 253.294C167.372 252.673 168.281 252.321 169.411 252.239V251.026H170.325V252.23C171.415 252.307 172.309 252.658 173.006 253.285C173.709 253.906 174.075 254.674 174.105 255.588H172.962C172.939 254.979 172.678 254.457 172.18 254.023C171.688 253.59 171.07 253.341 170.325 253.276V258.058L170.835 258.189C172.066 258.5 172.956 258.925 173.507 259.464C174.058 259.997 174.333 260.712 174.333 261.608C174.333 262.616 173.973 263.439 173.252 264.078C172.531 264.711 171.556 265.068 170.325 265.15V266.398ZM173.173 261.696C173.173 261.04 172.95 260.519 172.505 260.132C172.066 259.745 171.339 259.438 170.325 259.209V264.131C171.187 264.09 171.875 263.85 172.391 263.41C172.912 262.965 173.173 262.394 173.173 261.696ZM166.819 255.57C166.819 256.162 167.027 256.643 167.443 257.012C167.859 257.375 168.515 257.656 169.411 257.855V253.276C168.661 253.312 168.04 253.546 167.548 253.979C167.062 254.407 166.819 254.938 166.819 255.57Z" fill="white"/>
<path d="M192.653 220.024V208.634H192.618C192.536 208.687 191.982 209.07 190.957 209.785C189.931 210.494 189.351 210.89 189.217 210.972V209.688C189.322 209.624 189.885 209.237 190.904 208.528C191.924 207.819 192.501 207.424 192.635 207.342H193.813V220.024H192.653ZM201.477 220.227C200.628 220.227 199.866 220.019 199.192 219.603C198.524 219.187 197.994 218.595 197.601 217.827C197.033 216.837 196.749 215.545 196.749 213.951C196.749 211.824 197.174 210.157 198.023 208.95C198.879 207.743 200.059 207.14 201.565 207.14C202.62 207.14 203.519 207.433 204.263 208.019C205.008 208.604 205.47 209.384 205.652 210.356H204.439C204.281 209.712 203.938 209.193 203.411 208.801C202.884 208.402 202.265 208.203 201.556 208.203C200.396 208.203 199.497 208.722 198.858 209.759C198.225 210.79 197.909 212.246 197.909 214.127H197.935C198.193 213.412 198.665 212.832 199.35 212.387C200.042 211.941 200.815 211.719 201.671 211.719C202.878 211.719 203.88 212.117 204.677 212.914C205.479 213.711 205.881 214.71 205.881 215.911C205.881 217.153 205.465 218.185 204.633 219.005C203.801 219.819 202.749 220.227 201.477 220.227ZM201.469 219.154C202.359 219.154 203.112 218.844 203.727 218.223C204.348 217.602 204.659 216.843 204.659 215.946C204.659 215.038 204.357 214.285 203.754 213.688C203.156 213.084 202.397 212.782 201.477 212.782C200.575 212.782 199.81 213.081 199.183 213.679C198.562 214.271 198.252 214.997 198.252 215.858C198.252 216.784 198.559 217.566 199.175 218.205C199.796 218.838 200.56 219.154 201.469 219.154ZM211.866 220.227C211.104 220.227 210.407 220.077 209.774 219.778C209.147 219.479 208.643 219.063 208.262 218.53C207.882 217.997 207.665 217.394 207.612 216.72H208.79C208.872 217.429 209.203 218.015 209.783 218.478C210.363 218.935 211.063 219.163 211.884 219.163C212.827 219.163 213.6 218.864 214.204 218.267C214.813 217.663 215.118 216.896 215.118 215.964C215.118 215.038 214.816 214.271 214.213 213.661C213.615 213.052 212.856 212.747 211.936 212.747C211.298 212.747 210.715 212.891 210.187 213.178C209.66 213.465 209.25 213.86 208.957 214.364H207.805L208.526 207.342H215.557V208.414H209.519L209.045 213.099H209.08C209.39 212.665 209.815 212.325 210.354 212.079C210.899 211.827 211.491 211.701 212.13 211.701C213.337 211.701 214.336 212.103 215.127 212.905C215.924 213.708 216.322 214.719 216.322 215.938C216.322 217.191 215.903 218.22 215.065 219.022C214.227 219.825 213.161 220.227 211.866 220.227ZM222.896 220.024H221.745V210.884H223.142L226.711 218.495H226.772L230.341 210.884H231.685V220.024H230.525V212.94H230.481L227.168 219.84H226.262L222.949 212.94H222.896V220.024ZM235.983 216.078C235.936 216.717 235.863 217.265 235.763 217.722C235.67 218.173 235.532 218.589 235.35 218.97C235.169 219.345 234.926 219.629 234.621 219.822C234.316 220.01 233.95 220.104 233.522 220.104C233.335 220.104 233.162 220.074 233.004 220.016V218.961C233.144 219.008 233.3 219.031 233.469 219.031C233.915 219.031 234.243 218.776 234.454 218.267C234.671 217.751 234.814 217.01 234.885 216.043C234.908 215.803 234.967 214.962 235.06 213.521C235.16 212.073 235.219 211.194 235.236 210.884H241.09V220.024H239.938V211.851H236.282C236.2 213.345 236.1 214.754 235.983 216.078ZM249.439 220.024V215.771H244.412V220.024H243.26V210.884H244.412V214.804H249.439V210.884H250.591V220.024H249.439ZM261.199 221.343H260.285V220.104C259.095 220.027 258.126 219.667 257.376 219.022C256.626 218.378 256.245 217.566 256.233 216.588H257.376C257.423 217.262 257.71 217.824 258.237 218.275C258.77 218.721 259.453 218.981 260.285 219.058V213.969L259.802 213.837C258.694 213.556 257.874 213.148 257.341 212.615C256.807 212.082 256.541 211.402 256.541 210.576C256.541 209.633 256.881 208.854 257.56 208.238C258.246 207.617 259.154 207.266 260.285 207.184V205.971H261.199V207.175C262.289 207.251 263.182 207.603 263.88 208.229C264.583 208.851 264.949 209.618 264.978 210.532H263.836C263.812 209.923 263.552 209.401 263.053 208.968C262.561 208.534 261.943 208.285 261.199 208.221V213.002L261.709 213.134C262.939 213.444 263.83 213.869 264.381 214.408C264.931 214.941 265.207 215.656 265.207 216.553C265.207 217.561 264.846 218.384 264.126 219.022C263.405 219.655 262.429 220.013 261.199 220.095V221.343ZM264.047 216.641C264.047 215.984 263.824 215.463 263.379 215.076C262.939 214.689 262.213 214.382 261.199 214.153V219.075C262.06 219.034 262.749 218.794 263.264 218.354C263.786 217.909 264.047 217.338 264.047 216.641ZM257.692 210.515C257.692 211.106 257.9 211.587 258.316 211.956C258.732 212.319 259.388 212.601 260.285 212.8V208.221C259.535 208.256 258.914 208.49 258.422 208.924C257.935 209.352 257.692 209.882 257.692 210.515Z" fill="white"/>
<path d="M272.82 115.223V103.832H272.785C272.703 103.885 272.149 104.269 271.124 104.983C270.098 105.692 269.518 106.088 269.384 106.17V104.887C269.489 104.822 270.052 104.436 271.071 103.727C272.091 103.018 272.668 102.622 272.802 102.54H273.98V115.223H272.82ZM278.023 115.223L283.903 103.647V103.612H276.845V102.54H285.107V103.665L279.298 115.223H278.023ZM290.89 115.425C289.455 115.425 288.33 114.839 287.515 113.667C286.701 112.489 286.294 110.893 286.294 108.877C286.294 106.873 286.704 105.282 287.524 104.104C288.344 102.927 289.467 102.338 290.89 102.338C292.32 102.338 293.442 102.927 294.257 104.104C295.071 105.276 295.478 106.864 295.478 108.868C295.478 110.884 295.071 112.48 294.257 113.658C293.442 114.836 292.32 115.425 290.89 115.425ZM288.403 112.894C289.001 113.878 289.83 114.37 290.89 114.37C291.951 114.37 292.78 113.878 293.378 112.894C293.975 111.909 294.274 110.57 294.274 108.877C294.274 107.195 293.972 105.862 293.369 104.878C292.771 103.894 291.945 103.401 290.89 103.401C289.842 103.401 289.015 103.896 288.412 104.887C287.808 105.877 287.507 107.204 287.507 108.868C287.507 110.567 287.805 111.909 288.403 112.894ZM302.184 115.223H301.033V106.082H302.43L305.999 113.693H306.06L309.629 106.082H310.973V115.223H309.813V108.139H309.769L306.456 115.038H305.551L302.237 108.139H302.184V115.223ZM315.271 111.276C315.224 111.915 315.151 112.463 315.052 112.92C314.958 113.371 314.82 113.787 314.638 114.168C314.457 114.543 314.214 114.827 313.909 115.021C313.604 115.208 313.238 115.302 312.81 115.302C312.623 115.302 312.45 115.272 312.292 115.214V114.159C312.432 114.206 312.588 114.229 312.758 114.229C313.203 114.229 313.531 113.975 313.742 113.465C313.959 112.949 314.102 112.208 314.173 111.241C314.196 111.001 314.255 110.16 314.348 108.719C314.448 107.271 314.507 106.393 314.524 106.082H320.378V115.223H319.226V107.049H315.57C315.488 108.543 315.388 109.952 315.271 111.276ZM328.727 115.223V110.969H323.7V115.223H322.549V106.082H323.7V110.002H328.727V106.082H329.879V115.223H328.727ZM340.487 116.541H339.573V115.302C338.384 115.226 337.414 114.865 336.664 114.221C335.914 113.576 335.533 112.765 335.521 111.786H336.664C336.711 112.46 336.998 113.022 337.525 113.474C338.058 113.919 338.741 114.18 339.573 114.256V109.167L339.09 109.035C337.982 108.754 337.162 108.347 336.629 107.813C336.095 107.28 335.829 106.601 335.829 105.774C335.829 104.831 336.169 104.052 336.848 103.437C337.534 102.815 338.442 102.464 339.573 102.382V101.169H340.487V102.373C341.577 102.449 342.47 102.801 343.168 103.428C343.871 104.049 344.237 104.816 344.266 105.73H343.124C343.1 105.121 342.84 104.6 342.342 104.166C341.849 103.732 341.231 103.483 340.487 103.419V108.2L340.997 108.332C342.227 108.643 343.118 109.067 343.669 109.606C344.219 110.14 344.495 110.854 344.495 111.751C344.495 112.759 344.135 113.582 343.414 114.221C342.693 114.854 341.718 115.211 340.487 115.293V116.541ZM343.335 111.839C343.335 111.183 343.112 110.661 342.667 110.274C342.227 109.888 341.501 109.58 340.487 109.352V114.273C341.348 114.232 342.037 113.992 342.552 113.553C343.074 113.107 343.335 112.536 343.335 111.839ZM336.98 105.713C336.98 106.305 337.188 106.785 337.604 107.154C338.02 107.518 338.677 107.799 339.573 107.998V103.419C338.823 103.454 338.202 103.688 337.71 104.122C337.223 104.55 336.98 105.08 336.98 105.713Z" fill="white"/>
<path d="M397.079 83.8799V72.4893H397.044C396.962 72.542 396.408 72.9258 395.383 73.6406C394.357 74.3496 393.777 74.7451 393.642 74.8271V73.5439C393.748 73.4795 394.31 73.0928 395.33 72.3838C396.349 71.6748 396.927 71.2793 397.061 71.1973H398.239V83.8799H397.079ZM402.282 83.8799L408.162 72.3047V72.2695H401.104V71.1973H409.366V72.3223L403.557 83.8799H402.282ZM415.307 84.082C414.458 84.082 413.696 83.874 413.022 83.458C412.354 83.042 411.824 82.4502 411.432 81.6826C410.863 80.6924 410.579 79.4004 410.579 77.8066C410.579 75.6797 411.004 74.0127 411.853 72.8057C412.709 71.5986 413.89 70.9951 415.395 70.9951C416.45 70.9951 417.349 71.2881 418.094 71.874C418.838 72.46 419.301 73.2393 419.482 74.2119H418.269C418.111 73.5674 417.768 73.0488 417.241 72.6562C416.714 72.2578 416.096 72.0586 415.387 72.0586C414.226 72.0586 413.327 72.5771 412.688 73.6143C412.056 74.6455 411.739 76.1016 411.739 77.9824H411.766C412.023 77.2676 412.495 76.6875 413.181 76.2422C413.872 75.7969 414.645 75.5742 415.501 75.5742C416.708 75.5742 417.71 75.9727 418.507 76.7695C419.309 77.5664 419.711 78.5654 419.711 79.7666C419.711 81.0088 419.295 82.04 418.463 82.8604C417.631 83.6748 416.579 84.082 415.307 84.082ZM415.299 83.0098C416.189 83.0098 416.942 82.6992 417.557 82.0781C418.179 81.457 418.489 80.6982 418.489 79.8018C418.489 78.8936 418.187 78.1406 417.584 77.543C416.986 76.9395 416.227 76.6377 415.307 76.6377C414.405 76.6377 413.641 76.9365 413.014 77.5342C412.392 78.126 412.082 78.8525 412.082 79.7139C412.082 80.6396 412.39 81.4219 413.005 82.0605C413.626 82.6934 414.391 83.0098 415.299 83.0098ZM426.303 83.8799H425.151V74.7393H426.549L430.117 82.3506H430.179L433.747 74.7393H435.092V83.8799H433.932V76.7959H433.888L430.574 83.6953H429.669L426.355 76.7959H426.303V83.8799ZM439.39 79.9336C439.343 80.5723 439.269 81.1201 439.17 81.5771C439.076 82.0283 438.938 82.4443 438.757 82.8252C438.575 83.2002 438.332 83.4844 438.027 83.6777C437.723 83.8652 437.356 83.959 436.929 83.959C436.741 83.959 436.568 83.9297 436.41 83.8711V82.8164C436.551 82.8633 436.706 82.8867 436.876 82.8867C437.321 82.8867 437.649 82.6318 437.86 82.1221C438.077 81.6064 438.221 80.8652 438.291 79.8984C438.314 79.6582 438.373 78.8174 438.467 77.376C438.566 75.9287 438.625 75.0498 438.642 74.7393H444.496V83.8799H443.345V75.7061H439.688C439.606 77.2002 439.507 78.6094 439.39 79.9336ZM452.846 83.8799V79.626H447.818V83.8799H446.667V74.7393H447.818V78.6592H452.846V74.7393H453.997V83.8799H452.846ZM464.605 85.1982H463.691V83.959C462.502 83.8828 461.532 83.5225 460.782 82.8779C460.032 82.2334 459.651 81.4219 459.64 80.4434H460.782C460.829 81.1172 461.116 81.6797 461.643 82.1309C462.177 82.5762 462.859 82.8369 463.691 82.9131V77.8242L463.208 77.6924C462.1 77.4111 461.28 77.0039 460.747 76.4707C460.214 75.9375 459.947 75.2578 459.947 74.4316C459.947 73.4883 460.287 72.709 460.967 72.0938C461.652 71.4727 462.56 71.1211 463.691 71.0391V69.8262H464.605V71.0303C465.695 71.1064 466.589 71.458 467.286 72.085C467.989 72.7061 468.355 73.4736 468.385 74.3877H467.242C467.219 73.7783 466.958 73.2568 466.46 72.8232C465.968 72.3896 465.349 72.1406 464.605 72.0762V76.8574L465.115 76.9893C466.346 77.2998 467.236 77.7246 467.787 78.2637C468.338 78.7969 468.613 79.5117 468.613 80.4082C468.613 81.416 468.253 82.2393 467.532 82.8779C466.811 83.5107 465.836 83.8682 464.605 83.9502V85.1982ZM467.453 80.4961C467.453 79.8398 467.23 79.3184 466.785 78.9316C466.346 78.5449 465.619 78.2373 464.605 78.0088V82.9307C465.467 82.8896 466.155 82.6494 466.671 82.21C467.192 81.7646 467.453 81.1934 467.453 80.4961ZM461.099 74.3701C461.099 74.9619 461.307 75.4424 461.723 75.8115C462.139 76.1748 462.795 76.4561 463.691 76.6553V72.0762C462.941 72.1113 462.32 72.3457 461.828 72.7793C461.342 73.207 461.099 73.7373 461.099 74.3701Z" fill="white"/>
<path d="M460.211 18.2559V6.86523H460.175C460.093 6.91797 459.54 7.30176 458.514 8.0166C457.489 8.72559 456.909 9.12109 456.774 9.20312V7.91992C456.88 7.85547 457.442 7.46875 458.462 6.75977C459.481 6.05078 460.058 5.65527 460.193 5.57324H461.371V18.2559H460.211ZM468.534 18.458C467.467 18.458 466.562 18.165 465.818 17.5791C465.074 16.9873 464.614 16.208 464.438 15.2412H465.66C465.818 15.8857 466.158 16.4072 466.679 16.8057C467.201 17.2041 467.822 17.4033 468.543 17.4033C469.673 17.4033 470.555 16.9082 471.188 15.918C471.821 14.9219 472.152 13.5303 472.181 11.7432C472.181 11.7197 472.178 11.6758 472.172 11.6113C472.172 11.541 472.172 11.4883 472.172 11.4531H472.164H472.155C471.915 12.168 471.449 12.751 470.757 13.2021C470.066 13.6533 469.287 13.8789 468.42 13.8789C467.213 13.8789 466.208 13.4834 465.405 12.6924C464.608 11.8955 464.21 10.9023 464.21 9.71289C464.21 8.45898 464.626 7.42187 465.458 6.60156C466.29 5.78125 467.341 5.37109 468.613 5.37109C469.468 5.37109 470.23 5.5791 470.898 5.99512C471.572 6.41113 472.102 7.00293 472.489 7.77051C473.057 8.76074 473.341 10.0527 473.341 11.6465C473.341 13.7734 472.917 15.4404 472.067 16.6475C471.217 17.8545 470.04 18.458 468.534 18.458ZM468.613 12.8154C469.521 12.8154 470.286 12.5166 470.907 11.9189C471.534 11.3213 471.847 10.5947 471.847 9.73926C471.847 8.81934 471.537 8.04297 470.916 7.41016C470.295 6.77148 469.53 6.45215 468.622 6.45215C467.719 6.45215 466.961 6.7627 466.345 7.38379C465.73 8.00488 465.422 8.76953 465.422 9.67773C465.422 10.5684 465.724 11.3154 466.328 11.9189C466.931 12.5166 467.693 12.8154 468.613 12.8154ZM479.459 18.458C478.134 18.458 477.05 18.1152 476.207 17.4297C475.363 16.7441 474.941 15.8711 474.941 14.8105C474.941 14.0137 475.202 13.3164 475.723 12.7188C476.245 12.1211 476.927 11.7314 477.771 11.5498V11.5234C477.05 11.3242 476.479 10.9727 476.057 10.4688C475.635 9.95898 475.424 9.36426 475.424 8.68457C475.424 7.72363 475.805 6.93262 476.567 6.31152C477.329 5.68457 478.293 5.37109 479.459 5.37109C480.63 5.37109 481.594 5.68457 482.35 6.31152C483.106 6.93262 483.484 7.72363 483.484 8.68457C483.484 9.35254 483.273 9.94141 482.851 10.4512C482.429 10.9609 481.861 11.3184 481.146 11.5234V11.5498C481.99 11.7314 482.672 12.1211 483.194 12.7188C483.715 13.3164 483.976 14.0137 483.976 14.8105C483.976 15.877 483.554 16.7529 482.711 17.4385C481.873 18.1182 480.789 18.458 479.459 18.458ZM477.077 16.6562C477.692 17.1543 478.486 17.4033 479.459 17.4033C480.431 17.4033 481.222 17.1543 481.832 16.6562C482.447 16.1523 482.755 15.5137 482.755 14.7402C482.755 13.9785 482.447 13.3545 481.832 12.8682C481.222 12.3818 480.431 12.1387 479.459 12.1387C478.492 12.1387 477.701 12.3818 477.086 12.8682C476.47 13.3545 476.163 13.9785 476.163 14.7402C476.163 15.5137 476.467 16.1523 477.077 16.6562ZM479.459 11.0664C480.285 11.0664 480.962 10.8525 481.489 10.4248C482.022 9.99707 482.289 9.44922 482.289 8.78125C482.289 8.0957 482.025 7.53027 481.498 7.08496C480.976 6.63965 480.297 6.41699 479.459 6.41699C478.621 6.41699 477.938 6.63965 477.411 7.08496C476.883 7.53027 476.62 8.0957 476.62 8.78125C476.62 9.44922 476.883 9.99707 477.411 10.4248C477.944 10.8525 478.627 11.0664 479.459 11.0664ZM490.717 18.2559H489.566V9.11523H490.964L494.532 16.7266H494.593L498.162 9.11523H499.506V18.2559H498.346V11.1719H498.302L494.989 18.0713H494.084L490.77 11.1719H490.717V18.2559ZM503.804 14.3096C503.757 14.9482 503.684 15.4961 503.585 15.9531C503.491 16.4043 503.353 16.8203 503.172 17.2012C502.99 17.5762 502.747 17.8604 502.442 18.0537C502.137 18.2412 501.771 18.335 501.343 18.335C501.156 18.335 500.983 18.3057 500.825 18.2471V17.1924C500.965 17.2393 501.121 17.2627 501.291 17.2627C501.736 17.2627 502.064 17.0078 502.275 16.498C502.492 15.9824 502.635 15.2412 502.706 14.2744C502.729 14.0342 502.788 13.1934 502.881 11.752C502.981 10.3047 503.04 9.42578 503.057 9.11523H508.911V18.2559H507.759V10.082H504.103C504.021 11.5762 503.922 12.9854 503.804 14.3096ZM517.26 18.2559V14.002H512.233V18.2559H511.082V9.11523H512.233V13.0352H517.26V9.11523H518.412V18.2559H517.26ZM529.02 19.5742H528.106V18.335C526.917 18.2588 525.947 17.8984 525.197 17.2539C524.447 16.6094 524.066 15.7979 524.054 14.8193H525.197C525.244 15.4932 525.531 16.0557 526.058 16.5068C526.591 16.9521 527.274 17.2129 528.106 17.2891V12.2002L527.623 12.0684C526.515 11.7871 525.695 11.3799 525.162 10.8467C524.629 10.3135 524.362 9.63379 524.362 8.80762C524.362 7.86426 524.702 7.08496 525.381 6.46973C526.067 5.84863 526.975 5.49707 528.106 5.41504V4.20215H529.02V5.40625C530.11 5.48242 531.004 5.83398 531.701 6.46094C532.404 7.08203 532.77 7.84961 532.799 8.76367H531.657C531.633 8.1543 531.373 7.63281 530.875 7.19922C530.382 6.76563 529.764 6.5166 529.02 6.45215V11.2334L529.53 11.3652C530.76 11.6758 531.651 12.1006 532.202 12.6396C532.753 13.1729 533.028 13.8877 533.028 14.7842C533.028 15.792 532.668 16.6152 531.947 17.2539C531.226 17.8867 530.251 18.2441 529.02 18.3262V19.5742ZM531.868 14.8721C531.868 14.2158 531.645 13.6943 531.2 13.3076C530.76 12.9209 530.034 12.6133 529.02 12.3848V17.3066C529.881 17.2656 530.57 17.0254 531.086 16.5859C531.607 16.1406 531.868 15.5693 531.868 14.8721ZM525.513 8.74609C525.513 9.33789 525.721 9.81836 526.137 10.1875C526.553 10.5508 527.21 10.832 528.106 11.0312V6.45215C527.356 6.4873 526.735 6.72168 526.243 7.15527C525.756 7.58301 525.513 8.11328 525.513 8.74609Z" fill="white"/>
<defs>
<filter id="filter0_i" x="1" y="28.8467" width="555.157" height="416.115" filterUnits="userSpaceOnUse" color-interpolation-filters="sRGB">
<feFlood flood-opacity="0" result="BackgroundImageFix"/>
<feBlend mode="normal" in="SourceGraphic" in2="BackgroundImageFix" result="shape"/>
<feColorMatrix in="SourceAlpha" type="matrix" values="0 0 0 0 0 0 0 0 0 0 0 0 0 0 0 0 0 0 127 0" result="hardAlpha"/>
<feOffset dy="9"/>
<feGaussianBlur stdDeviation="9.5"/>
<feComposite in2="hardAlpha" operator="arithmetic" k2="-1" k3="1"/>
<feColorMatrix type="matrix" values="0 0 0 0 0.15 0 0 0 0 0.541 0 0 0 0 1 0 0 0 0.4 0"/>
<feBlend mode="normal" in2="shape" result="effect1_innerShadow"/>
</filter>
<filter id="filter1_d" x="30.0773" y="342.604" width="26.0209" height="25.4899" filterUnits="userSpaceOnUse" color-interpolation-filters="sRGB">
<feFlood flood-opacity="0" result="BackgroundImageFix"/>
<feColorMatrix in="SourceAlpha" type="matrix" values="0 0 0 0 0 0 0 0 0 0 0 0 0 0 0 0 0 0 127 0"/>
<feOffset dy="1"/>
<feGaussianBlur stdDeviation="4"/>
<feColorMatrix type="matrix" values="0 0 0 0 0 0 0 0 0 0 0 0 0 0 0 0 0 0 0.25 0"/>
<feBlend mode="normal" in2="BackgroundImageFix" result="effect1_dropShadow"/>
<feBlend mode="normal" in="SourceGraphic" in2="effect1_dropShadow" result="shape"/>
</filter>
<filter id="filter2_d" x="124.274" y="272.379" width="26.0209" height="25.4899" filterUnits="userSpaceOnUse" color-interpolation-filters="sRGB">
<feFlood flood-opacity="0" result="BackgroundImageFix"/>
<feColorMatrix in="SourceAlpha" type="matrix" values="0 0 0 0 0 0 0 0 0 0 0 0 0 0 0 0 0 0 127 0"/>
<feOffset dy="1"/>
<feGaussianBlur stdDeviation="4"/>
<feColorMatrix type="matrix" values="0 0 0 0 0 0 0 0 0 0 0 0 0 0 0 0 0 0 0.25 0"/>
<feBlend mode="normal" in2="BackgroundImageFix" result="effect1_dropShadow"/>
<feBlend mode="normal" in="SourceGraphic" in2="effect1_dropShadow" result="shape"/>
</filter>
<filter id="filter3_d" x="215.464" y="230.623" width="26.0209" height="25.4899" filterUnits="userSpaceOnUse" color-interpolation-filters="sRGB">
<feFlood flood-opacity="0" result="BackgroundImageFix"/>
<feColorMatrix in="SourceAlpha" type="matrix" values="0 0 0 0 0 0 0 0 0 0 0 0 0 0 0 0 0 0 127 0"/>
<feOffset dy="1"/>
<feGaussianBlur stdDeviation="4"/>
<feColorMatrix type="matrix" values="0 0 0 0 0 0 0 0 0 0 0 0 0 0 0 0 0 0 0.25 0"/>
<feBlend mode="normal" in2="BackgroundImageFix" result="effect1_dropShadow"/>
<feBlend mode="normal" in="SourceGraphic" in2="effect1_dropShadow" result="shape"/>
</filter>
<filter id="filter4_d" x="292.624" y="121.49" width="26.0209" height="25.4899" filterUnits="userSpaceOnUse" color-interpolation-filters="sRGB">
<feFlood flood-opacity="0" result="BackgroundImageFix"/>
<feColorMatrix in="SourceAlpha" type="matrix" values="0 0 0 0 0 0 0 0 0 0 0 0 0 0 0 0 0 0 127 0"/>
<feOffset dy="1"/>
<feGaussianBlur stdDeviation="4"/>
<feColorMatrix type="matrix" values="0 0 0 0 0 0 0 0 0 0 0 0 0 0 0 0 0 0 0.25 0"/>
<feBlend mode="normal" in2="BackgroundImageFix" result="effect1_dropShadow"/>
<feBlend mode="normal" in="SourceGraphic" in2="effect1_dropShadow" result="shape"/>
</filter>
<filter id="filter5_d" x="410.87" y="87.3262" width="26.0209" height="25.4899" filterUnits="userSpaceOnUse" color-interpolation-filters="sRGB">
<feFlood flood-opacity="0" result="BackgroundImageFix"/>
<feColorMatrix in="SourceAlpha" type="matrix" values="0 0 0 0 0 0 0 0 0 0 0 0 0 0 0 0 0 0 127 0"/>
<feOffset dy="1"/>
<feGaussianBlur stdDeviation="4"/>
<feColorMatrix type="matrix" values="0 0 0 0 0 0 0 0 0 0 0 0 0 0 0 0 0 0 0.25 0"/>
<feBlend mode="normal" in2="BackgroundImageFix" result="effect1_dropShadow"/>
<feBlend mode="normal" in="SourceGraphic" in2="effect1_dropShadow" result="shape"/>
</filter>
<filter id="filter6_d" x="483.021" y="26.5918" width="26.0209" height="25.4899" filterUnits="userSpaceOnUse" color-interpolation-filters="sRGB">
<feFlood flood-opacity="0" result="BackgroundImageFix"/>
<feColorMatrix in="SourceAlpha" type="matrix" values="0 0 0 0 0 0 0 0 0 0 0 0 0 0 0 0 0 0 127 0"/>
<feOffset dy="1"/>
<feGaussianBlur stdDeviation="4"/>
<feColorMatrix type="matrix" values="0 0 0 0 0 0 0 0 0 0 0 0 0 0 0 0 0 0 0.25 0"/>
<feBlend mode="normal" in2="BackgroundImageFix" result="effect1_dropShadow"/>
<feBlend mode="normal" in="SourceGraphic" in2="effect1_dropShadow" result="shape"/>
</filter>
<linearGradient id="paint0_linear" x1="212.44" y1="88.6327" x2="349.146" y2="454.334" gradientUnits="userSpaceOnUse">
<stop stop-color="#11F1FF" stop-opacity="0.88"/>
<stop offset="1" stop-color="#001AFF" stop-opacity="0.13"/>
</linearGradient>
</defs>
</svg>
