<svg width="34" height="34" viewBox="0 0 34 34" fill="none" xmlns="http://www.w3.org/2000/svg">
<circle cx="16.5318" cy="17.4683" r="16.5318" fill="#636363"/>
<path d="M25.2936 13.2531C24.715 13.5011 24.0537 13.6664 23.3925 13.7491C24.0537 13.3358 24.6323 12.6745 24.8803 11.9306C24.2191 12.3439 23.5578 12.5919 22.7312 12.7572C22.1526 12.0959 21.2433 11.6826 20.3341 11.6826C18.5156 11.6826 17.0277 13.1705 17.0277 14.989C17.0277 15.237 17.0277 15.4849 17.1104 15.7329C14.3826 15.5676 11.9029 14.245 10.2497 12.2612C10.0017 12.7572 9.83639 13.3358 9.83639 13.9144C9.83639 15.0716 10.415 16.0635 11.3243 16.6422C10.7456 16.6422 10.2497 16.4768 9.83639 16.2289C9.83639 17.7994 10.9936 19.2046 12.4815 19.4526C12.2335 19.5352 11.9029 19.5352 11.5722 19.5352C11.3243 19.5352 11.1589 19.5352 10.911 19.4526C11.3243 20.7751 12.5641 21.767 14.052 21.767C12.8948 22.6763 11.4896 23.1722 9.91906 23.1722C9.67108 23.1722 9.4231 23.1722 9.09247 23.0896C10.5803 23.9988 12.3162 24.5774 14.2173 24.5774C20.3341 24.5774 23.6404 19.5352 23.6404 15.1543V14.741C24.3017 14.493 24.8803 13.9144 25.2936 13.2531Z" fill="white"/>
</svg>
