<svg width="34" height="34" viewBox="0 0 34 34" fill="none" xmlns="http://www.w3.org/2000/svg">
<circle cx="17" cy="17.4683" r="16.5318" fill="#636363"/>
<path d="M22.1694 9.65339C19.0188 9.05173 15.7471 9.05173 12.5965 9.65339C11.203 9.95423 9.44598 11.6389 9.14304 12.9625C8.59775 15.5497 8.59775 18.197 9.14304 20.7841C9.50656 22.1078 11.2636 23.7925 12.5965 24.0933C12.6571 24.0933 12.7177 24.1535 12.7177 24.2136V28.0041C12.7177 28.1846 12.9601 28.3049 13.0812 28.1244L14.8989 26.2593C14.8989 26.2593 16.353 24.7551 16.5953 24.5144C16.5953 24.5144 16.6559 24.4543 16.7165 24.4543C18.5341 24.5144 20.4124 24.334 22.23 24.0331C23.6235 23.7323 25.3805 22.0476 25.6835 20.724C26.2288 18.1368 26.2288 15.4895 25.6835 12.9024C25.32 11.6389 23.5629 9.95423 22.1694 9.65339ZM22.23 20.9646C21.927 21.5663 21.5635 22.0476 20.9576 22.3485C20.7759 22.4086 20.5941 22.4688 20.4124 22.529C20.17 22.4688 19.9882 22.4086 19.8065 22.3485C17.8677 21.5663 16.05 20.4833 14.5959 18.919C13.8083 18.0165 13.1418 16.9937 12.5965 15.9107C12.3542 15.3692 12.1118 14.8879 11.9301 14.3464C11.7483 13.865 12.0512 13.3837 12.3542 13.0227C12.6571 12.6617 13.0207 12.421 13.4448 12.2405C13.7477 12.06 14.0506 12.1804 14.293 12.421C14.7777 13.0227 15.2624 13.6244 15.6259 14.2862C15.8683 14.7074 15.8077 15.1887 15.3836 15.4895C15.2624 15.5497 15.2018 15.6098 15.0806 15.7302C15.02 15.7903 14.8989 15.8505 14.8383 15.9708C14.7171 16.1513 14.7171 16.3318 14.7777 16.5123C15.2624 17.8962 16.1712 18.9792 17.5647 19.5808C17.8071 19.7012 17.9888 19.7613 18.2918 19.7613C18.7159 19.7012 18.8977 19.2198 19.2006 18.9792C19.5035 18.7385 19.8671 18.7385 20.2306 18.919C20.5335 19.0995 20.8365 19.3402 21.2 19.5808C21.5029 19.8215 21.8059 20.002 22.1088 20.2426C22.2906 20.363 22.3512 20.6638 22.23 20.9646ZM19.6853 16.4522C19.5641 16.4522 19.6247 16.4522 19.6853 16.4522C19.4429 16.4522 19.3824 16.3318 19.3218 16.1513C19.3218 16.031 19.3218 15.8505 19.2612 15.7302C19.2006 15.4895 19.0794 15.2489 18.8371 15.0684C18.7159 15.0082 18.5947 14.948 18.4735 14.8879C18.2918 14.8277 18.1706 14.8277 17.9888 14.8277C17.8071 14.7675 17.7465 14.6472 17.7465 14.4667C17.7465 14.3464 17.9283 14.226 18.0494 14.226C19.0188 14.2862 19.7459 14.8277 19.8671 15.9708C19.8671 16.031 19.8671 16.1513 19.8671 16.2115C19.8671 16.3318 19.8065 16.4522 19.6853 16.4522ZM19.0794 13.8049C18.7765 13.6845 18.4735 13.5642 18.11 13.504C17.9888 13.504 17.8071 13.4439 17.6859 13.4439C17.5041 13.4439 17.383 13.3235 17.4436 13.143C17.4436 12.9625 17.5647 12.8422 17.7465 12.9024C18.3524 12.9625 18.8977 13.0829 19.443 13.3235C20.5335 13.865 21.1394 14.7675 21.3212 15.9708C21.3212 16.031 21.3212 16.0912 21.3212 16.1513C21.3212 16.2717 21.3212 16.392 21.3212 16.5725C21.3212 16.6327 21.3212 16.6928 21.3212 16.753C21.2606 16.9937 20.8365 17.0538 20.7759 16.753C20.7759 16.6928 20.7153 16.5725 20.7153 16.5123C20.7153 15.9708 20.5941 15.4294 20.3518 14.948C19.9882 14.4065 19.5641 14.0455 19.0794 13.8049ZM22.3512 17.4148C22.1694 17.4148 22.0482 17.2343 22.0482 17.0538C22.0482 16.6928 21.9876 16.3318 21.927 15.9708C21.6847 14.0455 20.1094 12.4812 18.2312 12.1804C17.9283 12.1202 17.6253 12.1202 17.383 12.06C17.2012 12.06 16.9589 12.06 16.8983 11.8194C16.8377 11.6389 17.0194 11.4584 17.2012 11.4584C17.2618 11.4584 17.3224 11.4584 17.3224 11.4584C19.8065 11.5185 17.4436 11.4584 17.3224 11.4584C19.8671 11.5185 21.9876 13.2032 22.4117 15.7302C22.4723 16.1513 22.5329 16.5725 22.5329 17.0538C22.6541 17.2343 22.5329 17.4148 22.3512 17.4148Z" fill="white"/>
</svg>
