<svg width="34" height="34" viewBox="0 0 34 34" fill="none" xmlns="http://www.w3.org/2000/svg">
<circle cx="17.3122" cy="17.4683" r="16.5318" fill="#636363"/>
<path d="M25.4178 21.697C25.4178 21.6284 25.3492 21.6284 25.3492 21.5598C25.0747 21.0108 24.457 20.3245 23.6335 19.5696C23.2218 19.2265 23.0159 18.952 22.8786 18.8147C22.6728 18.5402 22.6728 18.3344 22.7414 18.0599C22.81 17.854 23.0845 17.5108 23.5649 16.8932C23.8394 16.5501 23.9767 16.3442 24.1825 16.1383C25.2119 14.7658 25.6923 13.8737 25.555 13.4619L25.4864 13.3933C25.4178 13.3247 25.3492 13.256 25.2119 13.256C25.0747 13.1874 24.8688 13.1874 24.6629 13.256H22.0551C21.9865 13.256 21.9865 13.256 21.8493 13.256C21.7806 13.256 21.712 13.256 21.712 13.256H21.6434H21.5748L21.5061 13.3247C21.4375 13.3933 21.4375 13.3933 21.4375 13.4619C21.163 14.2168 20.8199 14.8344 20.4767 15.5207C20.2709 15.8638 20.065 16.207 19.8591 16.4815C19.6532 16.756 19.516 16.9618 19.3787 17.0991C19.2415 17.2363 19.1042 17.305 19.0356 17.4422C18.967 17.5108 18.8297 17.5795 18.8297 17.5108C18.7611 17.5108 18.6925 17.5108 18.6925 17.4422C18.6238 17.3736 18.5552 17.305 18.4866 17.2363C18.418 17.1677 18.418 17.0305 18.3493 16.8932C18.3493 16.756 18.3493 16.6187 18.3493 16.5501C18.3493 16.4814 18.3493 16.2756 18.3493 16.1383C18.3493 15.9324 18.3493 15.7952 18.3493 15.7266C18.3493 15.5207 18.3493 15.2462 18.3493 14.9717C18.3493 14.6972 18.3493 14.4913 18.3493 14.354C18.3493 14.2168 18.3493 14.0109 18.3493 13.8737C18.3493 13.6678 18.3493 13.5305 18.3493 13.4619C18.3493 13.3933 18.2807 13.256 18.2807 13.1874C18.2121 13.1188 18.1435 13.0502 18.0748 12.9815C18.0062 12.9129 17.869 12.9129 17.8003 12.8443C17.4572 12.7757 17.0455 12.707 16.5651 12.707C15.4671 12.707 14.7122 12.7757 14.4377 12.9129C14.3004 12.9815 14.1632 13.0502 14.0945 13.1874C13.9573 13.3247 13.9573 13.3933 14.0259 13.3933C14.369 13.4619 14.6435 13.5992 14.7808 13.805L14.8494 13.9423C14.9181 14.0109 14.918 14.1482 14.9867 14.354C15.0553 14.5599 15.0553 14.7658 15.0553 15.0403C15.0553 15.4521 15.0553 15.8638 15.0553 16.1383C15.0553 16.4815 14.9867 16.6873 14.9867 16.8932C14.9867 17.0991 14.9181 17.2363 14.8494 17.305C14.7808 17.4422 14.7808 17.5108 14.7122 17.5108C14.7122 17.5108 14.7122 17.5795 14.6435 17.5795C14.5749 17.5795 14.5063 17.6481 14.369 17.6481C14.3004 17.6481 14.1632 17.5795 14.0945 17.5108C13.9573 17.4422 13.82 17.305 13.7514 17.1677C13.6142 17.0305 13.4769 16.8246 13.3396 16.5501C13.2024 16.2756 12.9965 16.0011 12.8593 15.5893L12.722 15.3148C12.6534 15.1776 12.5161 14.9031 12.3789 14.5599C12.2416 14.2168 12.1044 13.9423 11.9671 13.5992C11.8985 13.4619 11.8299 13.3933 11.7613 13.3247H11.6926C11.6926 13.3247 11.624 13.256 11.5554 13.256C11.4867 13.256 11.4181 13.1874 11.3495 13.1874H8.87897C8.60446 13.1874 8.46721 13.256 8.39859 13.3247L8.32996 13.3933C8.32996 13.3933 8.32996 13.4619 8.32996 13.5305C8.32996 13.5992 8.32996 13.6678 8.39859 13.805C8.74172 14.6285 9.15347 15.4521 9.56522 16.2756C9.97698 17.0305 10.3887 17.7167 10.6632 18.1971C11.0064 18.6775 11.2809 19.1579 11.624 19.5696C11.9671 19.9814 12.173 20.2559 12.2416 20.3931C12.3789 20.5304 12.4475 20.599 12.5161 20.6676L12.722 20.8735C12.8593 21.0108 13.0651 21.2166 13.3396 21.4225C13.6142 21.6284 13.9573 21.8343 14.3004 22.0401C14.6435 22.246 15.0553 22.3833 15.4671 22.5205C15.9474 22.6578 16.3592 22.7264 16.7709 22.6578H17.8003C18.0062 22.6578 18.1435 22.5892 18.2807 22.4519L18.3493 22.3833C18.3493 22.3146 18.418 22.3147 18.418 22.246C18.418 22.1774 18.418 22.1088 18.418 21.9715C18.418 21.697 18.418 21.4911 18.4866 21.2853C18.5552 21.0794 18.5552 20.9421 18.6238 20.8049C18.6925 20.6676 18.7611 20.599 18.8297 20.5304C18.8983 20.4618 18.967 20.3931 18.967 20.3931H19.0356C19.1728 20.3245 19.3787 20.3931 19.516 20.5304C19.7219 20.6676 19.9277 20.8735 20.065 21.0794C20.2022 21.2853 20.4081 21.4911 20.6826 21.7656C20.9571 22.0401 21.163 22.246 21.3003 22.3147L21.5061 22.4519C21.6434 22.5205 21.7806 22.5892 21.9865 22.6578C22.1924 22.7264 22.3296 22.7264 22.4669 22.7264L24.8002 22.6578C25.0061 22.6578 25.2119 22.5892 25.3492 22.5205C25.4864 22.4519 25.555 22.3833 25.555 22.246C25.555 22.1774 25.555 22.0402 25.555 21.9715C25.4178 21.8343 25.4178 21.7656 25.4178 21.697Z" fill="white"/>
</svg>
