<svg width="34" height="34" viewBox="0 0 34 34" fill="none" xmlns="http://www.w3.org/2000/svg">
<circle cx="16.8439" cy="17.4683" r="16.5318" fill="#636363"/>
<path d="M23.3961 10.9074C21.7631 9.28006 19.5858 8.37598 17.2874 8.37598C12.5093 8.37598 8.63848 12.2334 8.63848 16.9949C8.63848 18.5017 9.06186 20.0085 9.78765 21.2742L8.578 25.7344L13.1746 24.5289C14.4448 25.1919 15.8359 25.5535 17.2874 25.5535C22.0655 25.5535 25.9364 21.6961 25.9364 16.9346C25.8759 14.7046 25.0291 12.5348 23.3961 10.9074ZM21.4607 20.0688C21.2793 20.551 20.4325 21.0331 20.0091 21.0934C19.6462 21.1537 19.1624 21.1537 18.6785 21.0331C18.3761 20.9126 17.9527 20.792 17.4689 20.551C15.2915 19.6469 13.9004 17.4771 13.7795 17.2963C13.6585 17.1757 12.8722 16.1511 12.8722 15.0662C12.8722 13.9813 13.4166 13.4991 13.598 13.258C13.7795 13.0169 14.0214 13.0169 14.2028 13.0169C14.3238 13.0169 14.5053 13.0169 14.6262 13.0169C14.7472 13.0169 14.9286 12.9567 15.1101 13.3786C15.2915 13.8005 15.7149 14.8854 15.7754 14.9456C15.8359 15.0662 15.8359 15.1867 15.7754 15.3073C15.7149 15.4278 15.6544 15.5484 15.5334 15.6689C15.4125 15.7895 15.2915 15.9703 15.231 16.0305C15.1101 16.1511 14.9891 16.2716 15.1101 16.4524C15.231 16.6935 15.6544 17.3565 16.3197 17.9592C17.1665 18.6825 17.8318 18.9236 18.0737 19.0441C18.3156 19.1647 18.4366 19.1044 18.5576 18.9839C18.6785 18.8633 19.1019 18.3812 19.2229 18.1401C19.3438 17.899 19.5253 17.9592 19.7067 18.0195C19.8882 18.0798 20.9768 18.6222 21.1583 18.7428C21.4002 18.8633 21.5212 18.9236 21.5817 18.9839C21.6421 19.1647 21.6421 19.5866 21.4607 20.0688Z" fill="white"/>
</svg>
