<svg width="34" height="34" viewBox="0 0 34 34" fill="none" xmlns="http://www.w3.org/2000/svg">
<circle cx="17.1561" cy="17.4683" r="16.5318" fill="#636363"/>
<path d="M24.3582 16.5699C24.3582 16.2493 24.3048 15.8753 24.3048 15.4478C24.2514 15.0203 24.1979 14.5928 24.1445 14.2187C24.0376 13.7913 23.8773 13.4706 23.5567 13.2035C23.2895 12.9363 22.9155 12.776 22.5414 12.7225C21.3124 12.5622 19.4955 12.5088 17.0375 12.5088C14.5794 12.5088 12.7092 12.5622 11.5336 12.7225C11.1595 12.776 10.7855 12.9363 10.5183 13.2035C10.2511 13.4706 10.0373 13.7913 9.93048 14.2187C9.8236 14.5928 9.77018 14.9668 9.77018 15.4478C9.71674 15.8753 9.71674 16.2493 9.71674 16.5699C9.71674 16.8905 9.71674 17.2646 9.71674 17.799C9.71674 18.3333 9.71674 18.7608 9.71674 19.028C9.71674 19.3486 9.77018 19.7227 9.77018 20.1502C9.82361 20.5776 9.87704 21.0051 9.93048 21.3792C10.0373 21.8067 10.1977 22.1273 10.5183 22.3945C10.7855 22.6616 11.1595 22.822 11.5336 22.8754C12.7626 23.0357 14.5794 23.0891 17.0375 23.0891C19.4955 23.0891 21.3658 23.0357 22.5414 22.8754C22.9155 22.822 23.2895 22.6616 23.5567 22.3945C23.8239 22.1273 24.0376 21.8067 24.1445 21.3792C24.2514 21.0051 24.3048 20.6311 24.3048 20.1502C24.3582 19.7227 24.3582 19.3486 24.3582 19.028C24.3582 18.7074 24.3582 18.3333 24.3582 17.799C24.3582 17.2646 24.3582 16.8371 24.3582 16.5699ZM19.8696 18.2264L15.6481 20.8448C15.5947 20.8983 15.4878 20.9517 15.381 20.9517C15.2741 20.9517 15.2207 20.9517 15.1138 20.8983C14.9535 20.7914 14.8466 20.6311 14.8466 20.4173V15.1272C14.8466 14.9134 14.9535 14.7531 15.1138 14.6462C15.2741 14.5394 15.4878 14.5394 15.6481 14.6462L19.8696 17.2646C20.0299 17.3715 20.1368 17.5318 20.1368 17.6921C20.1368 17.8524 20.0299 18.1196 19.8696 18.2264Z" fill="white"/>
</svg>
